{"glyphs":{"0":{"ha":764,"x_min":62,"x_max":741,"o":"m 314 -12 q 211 6 257 -12 q 131 61 164 24 q 80 154 98 98 q 62 285 62 210 q 67 364 62 319 q 81 458 71 408 q 107 559 91 507 q 148 661 123 612 q 204 753 172 709 q 278 828 236 796 q 372 880 320 861 q 489 899 425 899 q 592 881 546 899 q 672 826 639 863 q 723 733 705 789 q 741 602 741 677 q 736 522 741 567 q 722 428 732 477 q 696 327 712 378 q 655 226 680 275 q 599 134 631 177 q 525 58 567 90 q 430 7 483 26 q 314 -12 378 -12 m 329 87 q 412 107 374 87 q 481 160 450 127 q 535 237 511 193 q 575 329 558 281 q 602 429 592 378 q 616 526 612 479 l 184 248 q 197 183 188 212 q 223 133 206 154 q 267 99 241 111 q 329 87 292 87 m 473 799 q 391 780 428 799 q 323 729 353 761 q 270 653 293 696 q 229 563 246 610 q 201 465 212 515 q 186 368 191 414 l 618 646 q 604 707 614 679 q 576 755 593 735 q 533 787 559 776 q 473 799 508 799 z "},"1":{"ha":764,"x_min":50,"x_max":629,"o":"m 607 0 l 50 0 l 72 110 l 300 110 l 428 750 l 197 637 l 168 742 l 479 890 l 586 890 l 431 110 l 629 110 l 607 0 z "},"2":{"ha":764,"x_min":31,"x_max":697,"o":"m 614 0 l 31 0 l 52 106 l 326 336 q 451 450 404 401 q 526 538 499 499 q 562 609 552 577 q 571 673 571 642 q 541 761 571 728 q 446 794 510 794 q 338 769 389 794 q 240 704 287 744 l 182 782 q 244 830 212 808 q 312 866 277 851 q 385 890 347 882 q 465 899 423 899 q 560 884 517 899 q 633 841 603 869 q 681 773 664 812 q 697 685 697 734 q 682 584 697 631 q 632 489 667 537 q 542 388 597 441 q 406 269 486 335 l 212 113 l 636 113 l 614 0 z "},"3":{"ha":764,"x_min":41,"x_max":693,"o":"m 222 -12 q 123 -8 170 -12 q 41 1 77 -5 l 62 104 q 145 94 102 98 q 237 90 189 90 q 341 100 296 90 q 418 125 386 109 q 472 161 451 140 q 506 204 494 182 q 524 248 519 226 q 529 290 529 271 q 515 342 529 320 q 476 379 501 364 q 414 401 450 394 q 334 408 378 408 l 232 408 l 252 505 l 345 505 q 428 518 388 505 q 499 556 469 531 q 549 616 530 581 q 567 697 567 652 q 531 772 567 748 q 424 796 495 796 q 333 787 379 796 q 229 761 286 779 l 229 864 q 282 879 254 872 q 337 889 309 885 q 392 896 366 894 q 443 899 419 899 q 552 886 505 899 q 631 849 600 873 q 677 793 662 826 q 693 720 693 760 q 685 655 693 690 q 655 586 677 621 q 597 519 634 551 q 501 463 559 487 q 561 443 533 456 q 610 409 589 429 q 643 360 631 388 q 654 297 654 332 q 644 229 654 264 q 613 159 634 193 q 557 94 591 125 q 475 39 523 62 q 365 2 427 16 q 222 -12 302 -12 z "},"4":{"ha":764,"x_min":-1,"x_max":718,"o":"m 697 196 l 546 196 l 507 0 l 386 0 l 425 196 l -1 196 l 20 300 l 504 886 l 685 886 l 567 300 l 718 300 l 697 196 m 541 772 l 147 300 l 446 300 l 541 772 z "},"5":{"ha":764,"x_min":52,"x_max":722,"o":"m 652 326 q 620 194 652 256 q 530 86 587 132 q 395 14 473 41 q 225 -12 317 -12 q 179 -11 203 -12 q 133 -8 155 -10 q 89 -4 110 -7 q 52 1 68 -2 l 72 106 q 110 99 90 102 q 152 94 131 96 q 195 91 174 92 q 236 90 216 90 q 353 107 300 90 q 444 154 406 124 q 504 225 482 184 q 525 313 525 266 q 475 403 525 372 q 322 433 426 433 l 153 433 l 244 886 l 722 886 l 701 783 l 335 783 l 285 534 l 355 534 q 470 523 416 534 q 564 487 524 511 q 628 422 604 462 q 652 326 652 382 z "},"6":{"ha":764,"x_min":77,"x_max":733,"o":"m 685 342 q 658 205 685 270 q 582 93 631 141 q 466 16 534 45 q 318 -12 399 -12 q 139 52 201 -12 q 77 250 77 117 q 81 333 77 286 q 96 431 85 379 q 126 536 107 482 q 176 641 146 590 q 249 736 206 691 q 348 814 291 781 q 477 867 404 848 q 642 886 550 886 l 733 886 l 713 783 l 623 783 q 469 761 533 783 q 360 700 405 739 q 288 611 315 662 q 243 504 260 560 l 237 492 q 339 531 286 515 q 447 546 393 546 q 554 531 509 546 q 628 489 599 516 q 671 425 657 462 q 685 342 685 387 m 561 330 q 528 419 561 388 q 425 450 495 450 q 370 445 398 450 q 314 432 341 440 q 260 412 286 423 q 214 389 235 401 q 202 320 205 357 q 199 248 199 283 q 208 170 199 201 q 234 120 217 138 q 277 93 252 101 q 335 85 302 85 q 429 106 387 85 q 500 161 471 127 q 545 240 530 196 q 561 330 561 284 z "},"7":{"ha":764,"x_min":103,"x_max":787,"o":"m 765 777 l 244 0 l 103 0 l 636 777 l 165 777 l 187 886 l 787 886 l 765 777 z "},"8":{"ha":764,"x_min":52,"x_max":736,"o":"m 408 515 q 509 570 470 546 q 571 615 549 593 q 603 659 594 637 q 611 707 611 681 q 576 775 611 751 q 475 800 542 800 q 398 791 433 800 q 338 763 363 781 q 300 716 313 744 q 286 653 286 689 q 293 616 286 633 q 314 582 300 598 q 352 549 329 566 q 408 515 376 533 m 517 463 q 624 375 587 424 q 661 258 661 326 q 639 157 661 206 q 572 71 616 109 q 461 11 528 33 q 307 -12 395 -12 q 194 2 242 -12 q 114 42 146 17 q 67 103 83 68 q 52 180 52 138 q 62 253 52 218 q 100 321 73 288 q 172 387 127 354 q 288 456 218 420 q 193 536 224 491 q 161 640 161 581 q 182 736 161 689 q 243 819 202 783 q 346 877 284 854 q 490 899 408 899 q 598 886 552 899 q 675 849 644 873 q 721 793 705 826 q 736 721 736 760 q 726 652 736 684 q 691 588 715 619 q 624 526 666 556 q 517 463 581 495 m 396 403 q 288 348 330 373 q 222 299 246 323 q 188 250 197 275 q 179 193 179 224 q 218 115 179 140 q 328 89 256 89 q 404 99 367 89 q 470 129 441 109 q 516 177 498 149 q 533 243 533 206 q 526 284 533 264 q 503 325 519 305 q 461 364 487 345 q 396 403 435 383 z "},"9":{"ha":764,"x_min":53,"x_max":722,"o":"m 722 632 q 719 554 722 599 q 704 458 715 509 q 674 354 693 408 q 624 250 654 300 q 549 153 593 199 q 445 74 505 108 q 308 20 385 40 q 132 0 231 0 l 53 0 l 74 103 l 142 103 q 303 124 233 103 q 425 182 374 145 q 510 270 477 219 q 559 382 543 321 l 564 395 q 465 356 517 371 q 355 340 412 340 q 242 357 288 340 q 168 403 197 374 q 127 469 140 431 q 115 546 115 506 q 141 678 115 614 q 214 791 167 742 q 329 869 262 840 q 481 899 397 899 q 659 834 595 899 q 722 632 722 769 m 464 802 q 367 779 409 802 q 296 722 325 757 q 253 643 268 687 q 239 557 239 600 q 245 513 239 534 q 268 474 252 491 q 310 447 283 457 q 378 436 337 436 q 433 441 405 436 q 489 454 462 446 q 541 473 516 462 q 586 496 566 484 q 597 571 593 532 q 600 643 600 610 q 591 718 600 688 q 565 767 582 749 q 522 793 547 785 q 464 802 496 802 z "},"\u0000":{"ha":764,"x_min":0,"x_max":0,"o":""},"\r":{"ha":0,"x_min":0,"x_max":0,"o":""}," ":{"ha":764,"x_min":0,"x_max":0,"o":""},"A":{"ha":764,"x_min":-62,"x_max":688,"o":"m 688 0 l 559 0 l 538 193 l 168 193 l 66 0 l -62 0 l 410 886 l 575 886 l 688 0 m 524 301 l 469 775 l 224 301 l 524 301 z "},"B":{"ha":764,"x_min":37,"x_max":725,"o":"m 37 0 l 215 886 l 461 886 q 659 843 592 886 q 725 714 725 799 q 715 639 725 677 q 683 568 705 602 q 624 508 661 535 q 534 465 587 481 q 590 447 564 460 q 635 414 616 434 q 665 366 654 393 q 676 304 676 339 q 667 234 676 270 q 638 164 659 198 q 587 100 618 130 q 512 48 556 71 q 410 13 468 26 q 278 0 351 0 l 37 0 m 597 688 q 589 727 597 709 q 563 758 581 745 q 514 778 545 770 q 440 785 484 785 l 315 785 l 260 507 l 375 507 q 484 526 441 507 q 552 571 526 544 q 587 630 577 598 q 597 688 597 661 m 547 293 q 502 377 547 347 q 370 407 456 407 l 240 407 l 179 102 l 297 102 q 390 111 351 102 q 457 137 429 121 q 503 173 485 153 q 530 214 520 193 q 544 256 540 235 q 547 293 547 276 z "},"C":{"ha":764,"x_min":65,"x_max":777,"o":"m 612 33 q 500 0 555 12 q 386 -11 446 -11 q 149 66 232 -11 q 65 300 65 144 q 78 434 65 365 q 118 570 91 504 q 185 696 144 637 q 281 800 226 755 q 406 871 336 845 q 561 897 475 897 q 677 887 623 897 q 777 854 732 876 l 753 736 q 663 776 710 762 q 554 790 615 790 q 439 768 490 790 q 348 710 387 747 q 279 626 308 674 q 232 526 250 578 q 205 419 214 473 q 196 317 196 366 q 408 97 196 97 q 524 110 465 97 q 635 147 583 123 l 612 33 z "},"D":{"ha":764,"x_min":4,"x_max":749,"o":"m 4 0 l 182 886 l 404 886 q 662 813 575 886 q 749 587 749 741 q 745 520 749 560 q 732 434 742 480 q 706 337 723 388 q 661 239 688 287 q 593 147 633 191 q 498 71 553 104 q 373 19 444 39 q 212 0 302 0 l 4 0 m 624 582 q 609 675 624 637 q 566 738 595 713 q 492 773 536 762 q 390 785 448 785 l 282 785 l 146 104 l 228 104 q 347 120 294 104 q 439 162 399 136 q 509 224 479 189 q 558 299 538 260 q 592 379 579 338 q 612 457 605 420 q 622 527 619 495 q 624 582 624 559 z "},"E":{"ha":764,"x_min":66,"x_max":749,"o":"m 571 0 l 66 0 l 244 886 l 749 886 l 728 785 l 345 785 l 289 510 l 657 510 l 637 408 l 269 408 l 208 103 l 591 103 l 571 0 z "},"F":{"ha":764,"x_min":69,"x_max":747,"o":"m 726 783 l 350 783 l 292 496 l 648 496 l 629 395 l 272 395 l 193 0 l 69 0 l 248 886 l 747 886 l 726 783 z "},"G":{"ha":764,"x_min":49,"x_max":783,"o":"m 760 734 q 716 758 738 747 q 670 775 694 768 q 619 786 646 783 q 562 790 593 790 q 438 769 494 790 q 340 711 382 747 q 266 627 297 675 q 214 526 235 579 q 184 418 194 473 q 175 313 175 363 q 188 220 175 261 q 228 152 201 180 q 297 109 255 124 q 399 94 340 94 q 428 96 412 94 q 461 99 444 97 q 493 105 477 102 q 519 113 508 109 l 576 395 l 396 395 l 415 494 l 715 494 l 625 41 q 499 2 564 16 q 374 -12 433 -12 q 237 7 298 -12 q 135 67 177 27 q 71 166 94 106 q 49 306 49 226 q 63 449 49 377 q 107 587 78 521 q 180 709 137 652 q 282 808 224 766 q 411 874 340 850 q 568 899 483 899 q 683 888 628 899 q 783 854 739 878 l 760 734 z "},"H":{"ha":764,"x_min":5,"x_max":798,"o":"m 619 0 l 498 0 l 581 407 l 208 407 l 126 0 l 5 0 l 183 886 l 304 886 l 229 511 l 602 511 l 676 886 l 798 886 l 619 0 z "},"I":{"ha":764,"x_min":47,"x_max":755,"o":"m 408 785 l 204 785 l 225 886 l 755 886 l 734 785 l 530 785 l 395 103 l 599 103 l 578 0 l 47 0 l 68 103 l 272 103 l 408 785 z "},"J":{"ha":764,"x_min":24,"x_max":703,"o":"m 703 886 l 576 257 q 542 157 566 204 q 477 73 517 109 q 379 13 436 36 q 250 -9 321 -9 q 129 12 184 -9 q 24 75 73 33 l 94 161 q 170 114 128 132 q 264 95 211 95 q 332 106 300 95 q 389 140 363 117 q 431 198 414 163 q 458 278 449 233 l 559 782 l 222 782 l 243 886 l 703 886 z "},"K":{"ha":764,"x_min":36,"x_max":810,"o":"m 635 0 l 492 0 l 245 440 l 157 0 l 36 0 l 214 886 l 335 886 l 253 479 l 657 886 l 810 886 l 367 458 l 635 0 z "},"L":{"ha":764,"x_min":89,"x_max":619,"o":"m 599 0 l 89 0 l 267 886 l 389 886 l 231 103 l 619 103 l 599 0 z "},"M":{"ha":764,"x_min":-36,"x_max":796,"o":"m 661 0 l 543 0 l 636 553 l 671 765 l 604 642 l 404 289 l 321 289 l 262 628 l 249 765 l 201 543 l 78 0 l -36 0 l 184 886 l 322 886 l 375 553 l 390 440 l 452 553 l 643 886 l 796 886 l 661 0 z "},"N":{"ha":764,"x_min":13,"x_max":788,"o":"m 610 0 l 459 0 l 312 553 l 271 730 l 182 283 l 125 0 l 13 0 l 191 886 l 341 886 l 481 363 l 530 160 l 625 635 l 675 886 l 788 886 l 610 0 z "},"O":{"ha":764,"x_min":41,"x_max":762,"o":"m 313 -12 q 109 65 177 -12 q 41 286 41 143 q 54 427 41 355 q 91 567 66 499 q 153 695 115 635 q 240 801 190 755 q 353 872 290 846 q 492 899 416 899 q 694 821 627 899 q 762 600 762 743 q 750 459 762 532 q 713 319 738 387 q 651 191 688 251 q 564 85 614 130 q 451 14 514 40 q 313 -12 389 -12 m 639 591 q 630 675 639 637 q 601 738 621 712 q 551 779 581 764 q 478 793 521 793 q 378 768 423 793 q 299 702 334 743 q 239 609 264 661 q 197 501 214 556 q 173 392 181 446 q 165 294 165 338 q 175 211 165 248 q 203 148 184 174 q 253 107 222 121 q 326 93 283 93 q 426 118 381 93 q 506 183 471 142 q 566 277 541 224 q 607 385 591 330 q 631 494 623 440 q 639 591 639 548 z "},"P":{"ha":764,"x_min":37,"x_max":747,"o":"m 222 318 l 158 0 l 37 0 l 215 886 l 458 886 q 571 874 519 886 q 663 835 624 861 q 725 767 703 808 q 747 668 747 726 q 736 584 747 626 q 701 503 724 541 q 644 430 678 464 q 565 371 610 396 q 463 332 519 347 q 339 318 406 318 l 222 318 m 621 657 q 576 751 621 718 q 444 785 532 785 l 315 785 l 243 420 l 350 420 q 445 431 404 420 q 516 461 486 442 q 566 504 546 479 q 598 554 586 528 q 615 607 610 581 q 621 657 621 634 z "},"Q":{"ha":764,"x_min":41,"x_max":762,"o":"m 358 -9 q 363 -63 357 -39 q 384 -104 369 -87 q 422 -131 398 -121 q 479 -140 446 -140 q 546 -130 512 -140 q 616 -93 579 -119 l 665 -176 q 563 -229 613 -213 q 463 -244 513 -244 q 365 -229 408 -244 q 292 -184 321 -214 q 251 -110 263 -155 q 245 -7 238 -66 q 93 86 144 11 q 41 286 41 162 q 54 427 41 355 q 91 567 66 499 q 153 695 115 635 q 240 801 190 755 q 353 872 290 846 q 492 899 416 899 q 694 821 627 899 q 762 600 762 743 q 751 467 762 535 q 719 334 741 399 q 663 211 696 269 q 585 106 629 152 q 483 29 540 60 q 358 -9 427 -1 m 639 591 q 630 675 639 637 q 601 739 621 712 q 551 779 581 765 q 478 793 521 793 q 378 768 423 793 q 299 702 334 743 q 239 609 264 661 q 197 501 214 556 q 173 392 181 446 q 165 294 165 338 q 175 211 165 248 q 203 148 184 174 q 253 107 222 121 q 326 93 283 93 q 426 118 381 93 q 506 183 471 142 q 566 277 541 224 q 607 385 591 330 q 631 494 623 440 q 639 591 639 548 z "},"R":{"ha":764,"x_min":46,"x_max":710,"o":"m 640 0 l 510 0 l 435 283 q 414 337 426 316 q 386 371 402 359 q 350 389 370 384 q 302 395 329 395 l 245 395 l 167 0 l 46 0 l 224 886 l 453 886 q 567 873 519 886 q 648 837 616 861 q 695 778 680 812 q 710 699 710 743 q 693 602 710 646 q 645 521 676 557 q 570 460 614 486 q 472 421 526 435 q 526 373 507 408 q 559 285 545 338 l 640 0 m 583 679 q 440 785 583 785 l 323 785 l 265 492 l 355 492 q 453 507 410 492 q 524 547 495 522 q 568 606 553 572 q 583 679 583 640 z "},"S":{"ha":764,"x_min":9,"x_max":725,"o":"m 261 -12 q 190 -9 226 -12 q 121 -3 155 -7 q 59 7 88 1 q 9 18 31 12 l 32 135 q 141 105 80 116 q 283 94 203 94 q 395 106 349 94 q 471 140 441 119 q 513 189 500 161 q 526 250 526 218 q 510 304 526 281 q 467 346 494 327 q 407 381 441 365 q 337 414 373 397 q 268 450 302 431 q 208 495 234 470 q 165 555 181 521 q 149 633 149 589 q 173 733 149 685 q 244 818 197 781 q 360 877 291 854 q 518 899 429 899 q 568 897 541 899 q 623 891 595 895 q 677 882 650 887 q 725 872 703 878 l 703 764 q 603 786 654 779 q 503 794 551 794 q 401 783 444 794 q 330 752 358 772 q 289 706 302 732 q 275 648 275 679 q 292 595 275 618 q 335 554 308 572 q 395 520 361 536 q 465 487 429 504 q 534 450 500 470 q 595 405 568 431 q 638 344 622 378 q 654 264 654 310 q 629 155 654 205 q 554 67 604 104 q 431 9 505 31 q 261 -12 357 -12 z "},"T":{"ha":764,"x_min":146,"x_max":814,"o":"m 793 783 l 530 783 l 374 0 l 252 0 l 408 783 l 146 783 l 167 886 l 814 886 l 793 783 z "},"U":{"ha":764,"x_min":49,"x_max":799,"o":"m 682 309 q 636 176 667 235 q 559 75 606 117 q 452 11 513 33 q 315 -12 391 -12 q 178 9 233 -12 q 93 71 123 31 q 56 166 63 111 q 62 290 49 222 l 182 886 l 302 886 l 184 300 q 176 208 174 248 q 193 142 177 169 q 242 102 210 116 q 326 89 275 89 q 481 144 422 89 q 559 301 540 200 l 677 886 l 799 886 l 682 309 z "},"V":{"ha":764,"x_min":111,"x_max":869,"o":"m 869 886 l 390 0 l 228 0 l 111 886 l 241 886 l 314 289 l 332 114 l 424 289 l 734 886 l 869 886 z "},"W":{"ha":764,"x_min":22,"x_max":842,"o":"m 842 886 l 604 0 l 450 0 l 403 315 l 393 416 l 339 307 l 176 0 l 22 0 l 139 886 l 252 886 l 165 283 l 142 118 l 212 258 l 386 587 l 469 587 l 522 235 l 541 118 l 568 240 l 732 886 l 842 886 z "},"X":{"ha":764,"x_min":-57,"x_max":833,"o":"m 677 0 l 530 0 l 387 358 l 98 0 l -57 0 l 328 453 l 144 886 l 282 886 l 418 553 l 689 886 l 833 886 l 475 458 l 677 0 z "},"Y":{"ha":764,"x_min":109,"x_max":872,"o":"m 872 886 l 437 317 l 374 0 l 252 0 l 315 319 l 109 886 l 249 886 l 359 562 l 399 432 l 482 550 l 728 886 l 872 886 z "},"Z":{"ha":764,"x_min":5,"x_max":787,"o":"m 768 791 l 183 113 l 640 113 l 618 0 l 5 0 l 24 90 l 612 777 l 174 777 l 196 886 l 787 886 l 768 791 z "},"À":{"ha":764,"x_min":-62,"x_max":688,"o":"m 688 0 l 559 0 l 538 193 l 168 193 l 66 0 l -62 0 l 410 886 l 575 886 l 688 0 m 524 301 l 469 775 l 224 301 l 524 301 m 564 981 l 444 981 l 257 1125 l 428 1125 l 564 981 m -12 886 z "},"Á":{"ha":764,"x_min":-62,"x_max":762,"o":"m 688 0 l 559 0 l 538 193 l 168 193 l 66 0 l -62 0 l 410 886 l 575 886 l 688 0 m 524 301 l 469 775 l 224 301 l 524 301 m 762 1125 l 562 981 l 441 981 l 591 1125 l 762 1125 m 0 886 z "},"Â":{"ha":764,"x_min":-62,"x_max":710,"o":"m 688 0 l 559 0 l 538 193 l 168 193 l 66 0 l -62 0 l 410 886 l 575 886 l 688 0 m 524 301 l 469 775 l 224 301 l 524 301 m 710 981 l 591 981 l 513 1050 l 407 981 l 282 981 l 469 1125 l 583 1125 l 710 981 m -12 886 z "},"Ã":{"ha":764,"x_min":-62,"x_max":763,"o":"m 688 0 l 559 0 l 538 193 l 168 193 l 66 0 l -62 0 l 410 886 l 575 886 l 688 0 m 524 301 l 469 775 l 224 301 l 524 301 m 270 1035 q 339 1108 301 1084 q 424 1133 377 1133 q 490 1122 463 1133 q 537 1097 517 1110 q 576 1072 557 1083 q 617 1060 594 1060 q 666 1079 644 1060 q 707 1126 688 1097 l 763 1071 q 693 997 731 1022 q 608 972 655 972 q 562 978 582 972 q 526 991 542 983 q 496 1009 509 1000 q 470 1027 483 1019 q 445 1040 458 1035 q 417 1046 432 1046 q 368 1027 389 1046 q 325 979 346 1008 l 270 1035 m -7 886 z "},"Ä":{"ha":764,"x_min":-62,"x_max":729,"o":"m 688 0 l 559 0 l 538 193 l 168 193 l 66 0 l -62 0 l 410 886 l 575 886 l 688 0 m 524 301 l 469 775 l 224 301 l 524 301 m 362 1125 q 412 1104 393 1125 q 431 1054 431 1084 q 425 1025 431 1038 q 409 1002 419 1012 q 385 986 399 992 q 357 981 372 981 q 306 1001 325 981 q 287 1051 287 1022 q 293 1080 287 1067 q 309 1104 299 1094 q 333 1119 319 1114 q 362 1125 347 1125 m 659 1125 q 687 1119 674 1125 q 709 1104 700 1114 q 724 1082 719 1095 q 729 1054 729 1069 q 723 1025 729 1038 q 707 1002 717 1012 q 683 986 696 992 q 654 981 669 981 q 604 1001 623 981 q 585 1051 585 1022 q 590 1080 585 1067 q 606 1104 596 1094 q 630 1119 616 1114 q 659 1125 644 1125 m -16 886 z "},"Ā":{"ha":764,"x_min":-62,"x_max":713,"o":"m 688 0 l 559 0 l 538 193 l 168 193 l 66 0 l -62 0 l 410 886 l 575 886 l 688 0 m 524 301 l 469 775 l 224 301 l 524 301 m 694 1006 l 311 1006 l 330 1096 l 713 1096 l 694 1006 m -11 886 z "},"Ă":{"ha":764,"x_min":-62,"x_max":711,"o":"m 688 0 l 559 0 l 538 193 l 168 193 l 66 0 l -62 0 l 410 886 l 575 886 l 688 0 m 524 301 l 469 775 l 224 301 l 524 301 m 711 1129 q 684 1058 703 1088 q 638 1010 665 1029 q 576 982 610 991 q 506 972 543 972 q 438 982 470 972 q 384 1010 406 991 q 352 1058 361 1029 q 350 1129 342 1088 l 444 1129 q 454 1077 436 1095 q 514 1060 472 1060 q 584 1077 556 1060 q 618 1129 611 1095 l 711 1129 m -8 886 z "},"Å":{"ha":764,"x_min":-62,"x_max":688,"o":"m 688 0 l 559 0 l 538 193 l 168 193 l 66 0 l -62 0 l 410 886 l 575 886 l 688 0 m 524 301 l 469 775 l 224 301 l 524 301 m 517 1180 q 569 1170 545 1180 q 610 1144 593 1160 q 637 1106 627 1128 q 646 1059 646 1084 q 635 1003 646 1028 q 603 960 623 978 q 557 931 583 941 q 503 921 532 921 q 451 931 475 921 q 410 957 427 941 q 383 996 393 974 q 374 1043 374 1018 q 385 1099 374 1074 q 417 1142 397 1124 q 463 1170 437 1160 q 517 1180 488 1180 m 513 1111 q 467 1093 484 1111 q 449 1047 449 1076 q 465 1007 449 1023 q 507 990 480 990 q 553 1007 536 990 q 571 1054 571 1025 q 555 1094 571 1077 q 513 1111 540 1111 m -12 886 z "},"Ǻ":{"ha":764,"x_min":-62,"x_max":793,"o":"m 688 0 l 559 0 l 538 193 l 168 193 l 66 0 l -62 0 l 410 886 l 575 886 l 688 0 m 524 301 l 469 775 l 224 301 l 524 301 m 520 1160 q 575 1152 550 1160 q 619 1127 601 1143 q 647 1092 637 1112 q 657 1048 657 1071 q 645 995 657 1018 q 611 954 633 971 q 563 929 590 937 q 505 920 536 920 q 450 928 475 920 q 407 952 425 937 q 378 988 389 968 q 368 1034 368 1008 q 380 1084 368 1061 q 414 1124 393 1107 q 463 1151 435 1141 q 520 1160 490 1160 m 515 1096 q 467 1080 486 1096 q 448 1037 448 1063 q 465 1000 448 1015 q 510 985 481 985 q 558 1001 540 985 q 577 1043 577 1017 q 561 1080 577 1065 q 515 1096 545 1096 m 793 1322 l 603 1194 l 488 1194 l 631 1322 l 793 1322 m 0 886 z "},"Ą":{"ha":764,"x_min":-62,"x_max":688,"o":"m 665 -254 q 627 -259 648 -258 q 589 -261 606 -261 q 526 -253 552 -261 q 483 -232 500 -245 q 458 -201 467 -219 q 450 -164 450 -184 q 455 -130 450 -147 q 471 -94 459 -113 q 504 -51 483 -74 q 559 0 526 -28 l 538 193 l 168 193 l 66 0 l -62 0 l 410 886 l 575 886 l 688 0 l 672 0 q 617 -51 638 -29 q 584 -89 596 -72 q 568 -119 572 -105 q 564 -146 564 -132 q 575 -170 564 -159 q 618 -180 587 -180 q 641 -180 627 -180 q 665 -178 654 -179 l 665 -254 m 524 301 l 469 775 l 224 301 l 524 301 z "},"Æ":{"ha":764,"x_min":-98,"x_max":835,"o":"m 667 0 l 326 0 l 364 191 l 132 191 l 21 0 l -98 0 l 440 886 l 835 886 l 815 790 l 597 790 l 541 507 l 749 507 l 729 411 l 521 411 l 458 97 l 686 97 l 667 0 m 383 288 l 485 791 l 189 288 l 383 288 z "},"Ǽ":{"ha":764,"x_min":-98,"x_max":835,"o":"m 667 0 l 326 0 l 364 191 l 132 191 l 21 0 l -98 0 l 440 886 l 835 886 l 815 790 l 597 790 l 541 507 l 749 507 l 729 411 l 521 411 l 458 97 l 686 97 l 667 0 m 383 288 l 485 791 l 189 288 l 383 288 m 804 1125 l 604 981 l 483 981 l 633 1125 l 804 1125 m 41 886 z "},"Ć":{"ha":764,"x_min":0,"x_max":777,"o":"m 612 33 q 500 0 555 12 q 386 -11 446 -11 q 149 66 232 -11 q 65 300 65 144 q 78 434 65 365 q 118 570 91 504 q 185 696 144 637 q 281 800 226 755 q 406 871 336 845 q 561 897 475 897 q 677 887 623 897 q 777 854 732 876 l 753 736 q 663 776 710 762 q 554 790 615 790 q 439 768 490 790 q 348 710 387 747 q 279 626 308 674 q 232 526 250 578 q 205 419 214 473 q 196 317 196 366 q 408 97 196 97 q 524 110 465 97 q 635 147 583 123 l 612 33 m 762 1125 l 562 981 l 441 981 l 591 1125 l 762 1125 m 0 886 z "},"Ĉ":{"ha":764,"x_min":14,"x_max":777,"o":"m 612 33 q 500 0 555 12 q 386 -11 446 -11 q 149 66 232 -11 q 65 300 65 144 q 78 434 65 365 q 118 570 91 504 q 185 696 144 637 q 281 800 226 755 q 406 871 336 845 q 561 897 475 897 q 677 887 623 897 q 777 854 732 876 l 753 736 q 663 776 710 762 q 554 790 615 790 q 439 768 490 790 q 348 710 387 747 q 279 626 308 674 q 232 526 250 578 q 205 419 214 473 q 196 317 196 366 q 408 97 196 97 q 524 110 465 97 q 635 147 583 123 l 612 33 m 736 981 l 616 981 l 538 1050 l 433 981 l 308 981 l 494 1125 l 608 1125 l 736 981 m 14 886 z "},"Č":{"ha":764,"x_min":28,"x_max":779,"o":"m 612 33 q 500 0 555 12 q 386 -11 446 -11 q 149 66 232 -11 q 65 300 65 144 q 78 434 65 365 q 118 570 91 504 q 185 696 144 637 q 281 800 226 755 q 406 871 336 845 q 561 897 475 897 q 677 887 623 897 q 777 854 732 876 l 753 736 q 663 776 710 762 q 554 790 615 790 q 439 768 490 790 q 348 710 387 747 q 279 626 308 674 q 232 526 250 578 q 205 419 214 473 q 196 317 196 366 q 408 97 196 97 q 524 110 465 97 q 635 147 583 123 l 612 33 m 351 1125 l 471 1125 l 549 1055 l 654 1125 l 779 1125 l 593 981 l 479 981 l 351 1125 m 28 886 z "},"Ċ":{"ha":764,"x_min":41,"x_max":777,"o":"m 612 33 q 500 0 555 12 q 386 -11 446 -11 q 149 66 232 -11 q 65 300 65 144 q 78 434 65 365 q 118 570 91 504 q 185 696 144 637 q 281 800 226 755 q 406 871 336 845 q 561 897 475 897 q 677 887 623 897 q 777 854 732 876 l 753 736 q 663 776 710 762 q 554 790 615 790 q 439 768 490 790 q 348 710 387 747 q 279 626 308 674 q 232 526 250 578 q 205 419 214 473 q 196 317 196 366 q 408 97 196 97 q 524 110 465 97 q 635 147 583 123 l 612 33 m 479 1048 q 486 1084 479 1067 q 505 1113 493 1101 q 533 1132 517 1125 q 568 1139 549 1139 q 601 1132 586 1139 q 628 1114 616 1125 q 645 1088 639 1103 q 651 1057 651 1074 q 644 1021 651 1038 q 624 992 637 1004 q 595 973 612 980 q 561 966 579 966 q 527 973 543 966 q 502 991 512 980 q 485 1018 491 1003 q 479 1048 479 1032 m 41 886 z "},"Ç":{"ha":764,"x_min":65,"x_max":777,"o":"m 391 -11 l 298 -200 l 195 -200 l 280 0 q 119 100 172 25 q 65 300 65 175 q 78 434 65 365 q 118 570 91 504 q 185 696 144 637 q 281 800 226 755 q 406 871 336 845 q 561 897 475 897 q 677 887 623 897 q 777 854 732 876 l 753 736 q 663 776 710 762 q 554 790 615 790 q 439 768 490 790 q 348 710 387 747 q 279 626 308 674 q 232 526 250 578 q 205 419 214 473 q 196 317 196 366 q 408 97 196 97 q 524 110 465 97 q 635 147 583 123 l 612 33 q 502 1 555 12 q 391 -11 449 -10 z "},"Ď":{"ha":764,"x_min":-54,"x_max":749,"o":"m 4 0 l 182 886 l 404 886 q 662 813 575 886 q 749 587 749 741 q 745 520 749 560 q 732 434 742 480 q 706 337 723 388 q 661 239 688 287 q 593 147 633 191 q 498 71 553 104 q 373 19 444 39 q 212 0 302 0 l 4 0 m 624 582 q 609 675 624 637 q 566 738 595 713 q 492 773 536 762 q 390 785 448 785 l 282 785 l 146 104 l 228 104 q 347 120 294 104 q 439 162 399 136 q 509 224 479 189 q 558 299 538 260 q 592 379 579 338 q 612 457 605 420 q 622 527 619 495 q 624 582 624 559 m 269 1125 l 389 1125 l 467 1055 l 572 1125 l 697 1125 l 511 981 l 397 981 l 269 1125 m -54 886 z "},"Ð":{"ha":764,"x_min":12,"x_max":749,"o":"m 32 510 l 126 510 l 203 886 l 415 886 q 665 813 581 886 q 749 587 749 741 q 746 520 749 560 q 733 434 743 480 q 707 337 724 388 q 663 239 690 287 q 597 147 636 191 q 505 71 558 104 q 382 19 452 39 q 224 0 312 0 l 25 0 l 107 408 l 12 408 l 32 510 m 624 582 q 610 675 624 637 q 568 738 596 713 q 499 773 541 762 q 401 785 457 785 l 302 785 l 248 510 l 400 510 l 380 408 l 228 408 l 167 104 l 239 104 q 355 120 304 104 q 446 162 406 136 q 513 224 485 189 q 562 299 542 260 q 593 379 581 338 q 612 457 606 420 q 622 527 619 495 q 624 582 624 559 z "},"Đ":{"ha":764,"x_min":12,"x_max":749,"o":"m 32 510 l 126 510 l 203 886 l 415 886 q 665 813 581 886 q 749 587 749 741 q 746 520 749 560 q 733 434 743 480 q 707 337 724 388 q 663 239 690 287 q 597 147 636 191 q 505 71 558 104 q 382 19 452 39 q 224 0 312 0 l 25 0 l 107 408 l 12 408 l 32 510 m 624 582 q 610 675 624 637 q 568 738 596 713 q 499 773 541 762 q 401 785 457 785 l 302 785 l 248 510 l 400 510 l 380 408 l 228 408 l 167 104 l 239 104 q 355 120 304 104 q 446 162 406 136 q 513 224 485 189 q 562 299 542 260 q 593 379 581 338 q 612 457 606 420 q 622 527 619 495 q 624 582 624 559 z "},"È":{"ha":764,"x_min":-12,"x_max":749,"o":"m 571 0 l 66 0 l 244 886 l 749 886 l 728 785 l 345 785 l 289 510 l 657 510 l 637 408 l 269 408 l 208 103 l 591 103 l 571 0 m 564 981 l 444 981 l 257 1125 l 428 1125 l 564 981 m -12 886 z "},"É":{"ha":764,"x_min":0,"x_max":762,"o":"m 571 0 l 66 0 l 244 886 l 749 886 l 728 785 l 345 785 l 289 510 l 657 510 l 637 408 l 269 408 l 208 103 l 591 103 l 571 0 m 762 1125 l 562 981 l 441 981 l 591 1125 l 762 1125 m 0 886 z "},"Ê":{"ha":764,"x_min":0,"x_max":749,"o":"m 571 0 l 66 0 l 244 886 l 749 886 l 728 785 l 345 785 l 289 510 l 657 510 l 637 408 l 269 408 l 208 103 l 591 103 l 571 0 m 722 981 l 603 981 l 525 1050 l 419 981 l 294 981 l 481 1125 l 595 1125 l 722 981 m 0 886 z "},"Ě":{"ha":764,"x_min":0,"x_max":751,"o":"m 571 0 l 66 0 l 244 886 l 749 886 l 728 785 l 345 785 l 289 510 l 657 510 l 637 408 l 269 408 l 208 103 l 591 103 l 571 0 m 323 1125 l 443 1125 l 521 1055 l 627 1125 l 751 1125 l 566 981 l 452 981 l 323 1125 m 0 886 z "},"Ë":{"ha":764,"x_min":0,"x_max":749,"o":"m 571 0 l 66 0 l 244 886 l 749 886 l 728 785 l 345 785 l 289 510 l 657 510 l 637 408 l 269 408 l 208 103 l 591 103 l 571 0 m 378 1125 q 428 1104 408 1125 q 447 1054 447 1084 q 441 1025 447 1038 q 425 1002 435 1012 q 401 986 414 992 q 372 981 387 981 q 321 1001 340 981 q 302 1051 302 1022 q 309 1080 302 1067 q 325 1104 315 1094 q 349 1119 335 1114 q 378 1125 362 1125 m 675 1125 q 703 1119 690 1125 q 725 1104 715 1114 q 740 1082 734 1095 q 745 1054 745 1069 q 739 1025 745 1038 q 722 1002 732 1012 q 698 986 712 992 q 669 981 684 981 q 619 1001 638 981 q 600 1051 600 1022 q 606 1080 600 1067 q 622 1104 612 1094 q 646 1119 632 1114 q 675 1125 659 1125 m 0 886 z "},"Ē":{"ha":764,"x_min":0,"x_max":749,"o":"m 571 0 l 66 0 l 244 886 l 749 886 l 728 785 l 345 785 l 289 510 l 657 510 l 637 408 l 269 408 l 208 103 l 591 103 l 571 0 m 705 1006 l 322 1006 l 340 1096 l 724 1096 l 705 1006 m 0 886 z "},"Ĕ":{"ha":764,"x_min":0,"x_max":749,"o":"m 571 0 l 66 0 l 244 886 l 749 886 l 728 785 l 345 785 l 289 510 l 657 510 l 637 408 l 269 408 l 208 103 l 591 103 l 571 0 m 720 1129 q 692 1058 711 1088 q 646 1010 673 1029 q 585 982 618 991 q 514 972 551 972 q 446 982 478 972 q 392 1010 414 991 q 360 1058 370 1029 q 358 1129 350 1088 l 452 1129 q 462 1077 444 1095 q 522 1060 480 1060 q 592 1077 564 1060 q 627 1129 619 1095 l 720 1129 m 0 886 z "},"Ė":{"ha":764,"x_min":-12,"x_max":749,"o":"m 571 0 l 66 0 l 244 886 l 749 886 l 728 785 l 345 785 l 289 510 l 657 510 l 637 408 l 269 408 l 208 103 l 591 103 l 571 0 m 425 1048 q 432 1084 425 1067 q 452 1113 439 1101 q 480 1132 464 1125 q 514 1139 496 1139 q 548 1132 532 1139 q 574 1114 563 1125 q 591 1088 585 1103 q 597 1057 597 1074 q 590 1021 597 1038 q 571 992 583 1004 q 542 973 558 980 q 507 966 526 966 q 474 973 489 966 q 448 991 458 980 q 431 1018 437 1003 q 425 1048 425 1032 m -12 886 z "},"Ę":{"ha":764,"x_min":66,"x_max":749,"o":"m 564 -254 q 525 -259 547 -258 q 487 -261 504 -261 q 424 -253 450 -261 q 381 -232 398 -245 q 357 -201 365 -219 q 349 -164 349 -184 q 353 -130 349 -147 q 369 -94 357 -113 q 402 -51 381 -74 q 458 0 424 -28 l 66 0 l 244 886 l 749 886 l 728 785 l 345 785 l 289 510 l 657 510 l 637 408 l 269 408 l 208 103 l 591 103 l 571 0 l 570 0 q 515 -51 536 -29 q 483 -89 494 -72 q 467 -119 471 -105 q 463 -146 463 -132 q 474 -170 463 -159 q 516 -180 485 -180 q 539 -180 526 -180 q 564 -178 552 -179 l 564 -254 z "},"Ĝ":{"ha":764,"x_min":14,"x_max":783,"o":"m 760 734 q 716 758 738 747 q 670 775 694 768 q 619 786 646 783 q 562 790 593 790 q 438 769 494 790 q 340 711 382 747 q 266 627 297 675 q 214 526 235 579 q 184 418 194 473 q 175 313 175 363 q 188 220 175 261 q 228 152 201 180 q 297 109 255 124 q 399 94 340 94 q 428 96 412 94 q 461 99 444 97 q 493 105 477 102 q 519 113 508 109 l 576 395 l 396 395 l 415 494 l 715 494 l 625 41 q 499 2 564 16 q 374 -12 433 -12 q 237 7 298 -12 q 135 67 177 27 q 71 166 94 106 q 49 306 49 226 q 63 449 49 377 q 107 587 78 521 q 180 709 137 652 q 282 808 224 766 q 411 874 340 850 q 568 899 483 899 q 683 888 628 899 q 783 854 739 878 l 760 734 m 736 981 l 616 981 l 538 1050 l 433 981 l 308 981 l 494 1125 l 608 1125 l 736 981 m 14 886 z "},"Ğ":{"ha":764,"x_min":41,"x_max":783,"o":"m 760 734 q 716 758 738 747 q 670 775 694 768 q 619 786 646 783 q 562 790 593 790 q 438 769 494 790 q 340 711 382 747 q 266 627 297 675 q 214 526 235 579 q 184 418 194 473 q 175 313 175 363 q 188 220 175 261 q 228 152 201 180 q 297 109 255 124 q 399 94 340 94 q 428 96 412 94 q 461 99 444 97 q 493 105 477 102 q 519 113 508 109 l 576 395 l 396 395 l 415 494 l 715 494 l 625 41 q 499 2 564 16 q 374 -12 433 -12 q 237 7 298 -12 q 135 67 177 27 q 71 166 94 106 q 49 306 49 226 q 63 449 49 377 q 107 587 78 521 q 180 709 137 652 q 282 808 224 766 q 411 874 340 850 q 568 899 483 899 q 683 888 628 899 q 783 854 739 878 l 760 734 m 761 1129 q 734 1058 753 1088 q 687 1010 715 1029 q 626 982 660 991 q 555 972 592 972 q 488 982 519 972 q 433 1010 456 991 q 401 1058 411 1029 q 399 1129 391 1088 l 493 1129 q 504 1077 486 1095 q 564 1060 522 1060 q 633 1077 606 1060 q 668 1129 661 1095 l 761 1129 m 41 886 z "},"Ġ":{"ha":764,"x_min":14,"x_max":783,"o":"m 760 734 q 716 758 738 747 q 670 775 694 768 q 619 786 646 783 q 562 790 593 790 q 438 769 494 790 q 340 711 382 747 q 266 627 297 675 q 214 526 235 579 q 184 418 194 473 q 175 313 175 363 q 188 220 175 261 q 228 152 201 180 q 297 109 255 124 q 399 94 340 94 q 428 96 412 94 q 461 99 444 97 q 493 105 477 102 q 519 113 508 109 l 576 395 l 396 395 l 415 494 l 715 494 l 625 41 q 499 2 564 16 q 374 -12 433 -12 q 237 7 298 -12 q 135 67 177 27 q 71 166 94 106 q 49 306 49 226 q 63 449 49 377 q 107 587 78 521 q 180 709 137 652 q 282 808 224 766 q 411 874 340 850 q 568 899 483 899 q 683 888 628 899 q 783 854 739 878 l 760 734 m 451 1048 q 458 1084 451 1067 q 477 1113 465 1101 q 506 1132 490 1125 q 540 1139 522 1139 q 573 1132 558 1139 q 600 1114 589 1125 q 617 1088 611 1103 q 623 1057 623 1074 q 616 1021 623 1038 q 596 992 609 1004 q 568 973 584 980 q 533 966 551 966 q 499 973 515 966 q 474 991 484 980 q 457 1018 463 1003 q 451 1048 451 1032 m 14 886 z "},"Ģ":{"ha":764,"x_min":49,"x_max":783,"o":"m 760 734 q 716 758 738 747 q 670 775 694 768 q 619 786 646 783 q 562 790 593 790 q 438 769 494 790 q 340 711 382 747 q 266 627 297 675 q 214 526 235 579 q 184 418 194 473 q 175 313 175 363 q 188 220 175 261 q 228 152 201 180 q 297 109 255 124 q 399 94 340 94 q 428 96 412 94 q 461 99 444 97 q 493 105 477 102 q 519 113 508 109 l 576 395 l 396 395 l 415 494 l 715 494 l 625 41 q 499 2 564 16 q 374 -12 433 -12 q 237 7 298 -12 q 135 67 177 27 q 71 166 94 106 q 49 306 49 226 q 63 449 49 377 q 107 587 78 521 q 180 709 137 652 q 282 808 224 766 q 411 874 340 850 q 568 899 483 899 q 683 888 628 899 q 783 854 739 878 l 760 734 m 367 -78 l 267 -278 l 167 -278 l 252 -78 l 367 -78 z "},"Ĥ":{"ha":764,"x_min":-12,"x_max":798,"o":"m 619 0 l 498 0 l 581 407 l 208 407 l 126 0 l 5 0 l 183 886 l 304 886 l 229 511 l 602 511 l 676 886 l 798 886 l 619 0 m 710 981 l 591 981 l 513 1050 l 407 981 l 282 981 l 469 1125 l 583 1125 l 710 981 m -12 886 z "},"Ħ":{"ha":764,"x_min":26,"x_max":821,"o":"m 725 637 l 599 0 l 478 0 l 554 387 l 224 387 l 147 0 l 26 0 l 153 637 l 78 637 l 98 739 l 174 739 l 203 886 l 323 886 l 294 739 l 625 739 l 654 886 l 775 886 l 746 739 l 821 739 l 800 637 l 725 637 m 575 489 l 604 637 l 273 637 l 244 489 l 575 489 z "},"Ì":{"ha":764,"x_min":-40,"x_max":755,"o":"m 408 785 l 204 785 l 225 886 l 755 886 l 734 785 l 530 785 l 395 103 l 599 103 l 578 0 l 47 0 l 68 103 l 272 103 l 408 785 m 536 981 l 416 981 l 229 1125 l 400 1125 l 536 981 m -40 886 z "},"Í":{"ha":764,"x_min":-12,"x_max":755,"o":"m 408 785 l 204 785 l 225 886 l 755 886 l 734 785 l 530 785 l 395 103 l 599 103 l 578 0 l 47 0 l 68 103 l 272 103 l 408 785 m 750 1125 l 550 981 l 429 981 l 579 1125 l 750 1125 m -12 886 z "},"Î":{"ha":764,"x_min":-12,"x_max":755,"o":"m 408 785 l 204 785 l 225 886 l 755 886 l 734 785 l 530 785 l 395 103 l 599 103 l 578 0 l 47 0 l 68 103 l 272 103 l 408 785 m 710 981 l 591 981 l 513 1050 l 407 981 l 282 981 l 469 1125 l 583 1125 l 710 981 m -12 886 z "},"Ĩ":{"ha":764,"x_min":-12,"x_max":758,"o":"m 408 785 l 204 785 l 225 886 l 755 886 l 734 785 l 530 785 l 395 103 l 599 103 l 578 0 l 47 0 l 68 103 l 272 103 l 408 785 m 264 1035 q 334 1108 296 1084 q 418 1133 372 1133 q 485 1122 458 1133 q 532 1097 511 1110 q 570 1072 552 1083 q 612 1060 589 1060 q 661 1079 639 1060 q 702 1126 682 1097 l 758 1071 q 688 997 726 1022 q 603 972 650 972 q 556 978 576 972 q 520 991 536 983 q 491 1009 504 1000 q 465 1027 477 1019 q 439 1040 452 1035 q 412 1046 427 1046 q 362 1027 384 1046 q 319 979 340 1008 l 264 1035 m -12 886 z "},"Ï":{"ha":764,"x_min":-8,"x_max":755,"o":"m 408 785 l 204 785 l 225 886 l 755 886 l 734 785 l 530 785 l 395 103 l 599 103 l 578 0 l 47 0 l 68 103 l 272 103 l 408 785 m 370 1125 q 419 1104 400 1125 q 439 1054 439 1084 q 433 1025 439 1038 q 416 1002 427 1012 q 393 986 406 992 q 364 981 379 981 q 313 1001 332 981 q 294 1051 294 1022 q 300 1080 294 1067 q 317 1104 307 1094 q 340 1119 327 1114 q 370 1125 354 1125 m 667 1125 q 694 1119 682 1125 q 717 1104 707 1114 q 731 1082 726 1095 q 736 1054 736 1069 q 730 1025 736 1038 q 714 1002 724 1012 q 690 986 704 992 q 661 981 676 981 q 611 1001 630 981 q 592 1051 592 1022 q 598 1080 592 1067 q 614 1104 604 1094 q 637 1119 624 1114 q 667 1125 651 1125 m -8 886 z "},"Ī":{"ha":764,"x_min":-4,"x_max":755,"o":"m 408 785 l 204 785 l 225 886 l 755 886 l 734 785 l 530 785 l 395 103 l 599 103 l 578 0 l 47 0 l 68 103 l 272 103 l 408 785 m 701 1006 l 318 1006 l 336 1096 l 720 1096 l 701 1006 m -4 886 z "},"Ĭ":{"ha":764,"x_min":-5,"x_max":755,"o":"m 408 785 l 204 785 l 225 886 l 755 886 l 734 785 l 530 785 l 395 103 l 599 103 l 578 0 l 47 0 l 68 103 l 272 103 l 408 785 m 714 1129 q 687 1058 706 1088 q 641 1010 668 1029 q 579 982 613 991 q 509 972 545 972 q 441 982 473 972 q 387 1010 409 991 q 354 1058 364 1029 q 353 1129 345 1088 l 446 1129 q 457 1077 439 1095 q 517 1060 475 1060 q 586 1077 559 1060 q 621 1129 614 1095 l 714 1129 m -5 886 z "},"İ":{"ha":764,"x_min":-11,"x_max":755,"o":"m 408 785 l 204 785 l 225 886 l 755 886 l 734 785 l 530 785 l 395 103 l 599 103 l 578 0 l 47 0 l 68 103 l 272 103 l 408 785 m 427 1048 q 434 1084 427 1067 q 453 1113 441 1101 q 481 1132 465 1125 q 515 1139 497 1139 q 549 1132 534 1139 q 575 1114 564 1125 q 593 1088 587 1103 q 599 1057 599 1074 q 592 1021 599 1038 q 572 992 585 1004 q 543 973 559 980 q 509 966 527 966 q 475 973 490 966 q 449 991 460 980 q 433 1018 439 1003 q 427 1048 427 1032 m -11 886 z "},"Į":{"ha":764,"x_min":47,"x_max":755,"o":"m 571 -254 q 533 -259 554 -258 q 494 -261 511 -261 q 432 -253 458 -261 q 389 -232 406 -245 q 364 -201 372 -219 q 356 -164 356 -184 q 360 -130 356 -147 q 377 -94 365 -113 q 410 -51 389 -74 q 465 0 431 -28 l 47 0 l 68 103 l 272 103 l 408 785 l 204 785 l 225 886 l 755 886 l 734 785 l 530 785 l 395 103 l 599 103 l 578 0 q 523 -51 544 -29 q 490 -89 502 -72 q 474 -119 478 -105 q 470 -146 470 -132 q 481 -170 470 -159 q 524 -180 492 -180 q 546 -180 533 -180 q 571 -178 559 -179 l 571 -254 z "},"Ĳ":{"ha":764,"x_min":5,"x_max":796,"o":"m 290 114 q 333 97 310 103 q 382 92 356 92 q 440 101 413 92 q 488 130 467 110 q 526 181 510 150 q 550 257 541 213 l 675 886 l 796 886 l 667 240 q 571 57 644 122 q 382 -8 498 -8 q 303 -1 337 -8 q 239 21 269 6 l 290 114 m 126 0 l 5 0 l 182 886 l 302 886 l 126 0 z "},"Ĵ":{"ha":764,"x_min":0,"x_max":722,"o":"m 703 886 l 576 257 q 542 157 566 204 q 477 73 517 109 q 379 13 436 36 q 250 -9 321 -9 q 129 12 184 -9 q 24 75 73 33 l 94 161 q 170 114 128 132 q 264 95 211 95 q 332 106 300 95 q 389 140 363 117 q 431 198 414 163 q 458 278 449 233 l 559 782 l 222 782 l 243 886 l 703 886 m 722 981 l 603 981 l 525 1050 l 419 981 l 294 981 l 481 1125 l 595 1125 l 722 981 m 0 886 z "},"Ķ":{"ha":764,"x_min":36,"x_max":810,"o":"m 635 0 l 492 0 l 245 440 l 157 0 l 36 0 l 214 886 l 335 886 l 253 479 l 657 886 l 810 886 l 367 458 l 635 0 m 367 -78 l 267 -278 l 167 -278 l 252 -78 l 367 -78 z "},"Ĺ":{"ha":764,"x_min":0,"x_max":762,"o":"m 599 0 l 89 0 l 267 886 l 389 886 l 231 103 l 619 103 l 599 0 m 762 1125 l 562 981 l 441 981 l 591 1125 l 762 1125 m 0 886 z "},"Ľ":{"ha":764,"x_min":-179,"x_max":774,"o":"m 599 0 l 89 0 l 267 886 l 389 886 l 231 103 l 619 103 l 599 0 m 774 994 l 678 794 l 579 794 l 659 994 l 774 994 m -179 681 z "},"Ļ":{"ha":764,"x_min":89,"x_max":619,"o":"m 599 0 l 89 0 l 267 886 l 389 886 l 231 103 l 619 103 l 599 0 m 395 -78 l 294 -278 l 195 -278 l 279 -78 l 395 -78 z "},"Ł":{"ha":764,"x_min":39,"x_max":619,"o":"m 245 103 l 619 103 l 599 0 l 103 0 l 184 408 l 39 340 l 39 440 l 207 518 l 281 886 l 401 886 l 340 579 l 597 697 l 597 597 l 318 469 l 245 103 z "},"Ŀ":{"ha":764,"x_min":62,"x_max":762,"o":"m 572 0 l 62 0 l 240 886 l 362 886 l 205 103 l 593 103 l 572 0 m 654 511 q 698 503 678 511 q 732 478 718 494 q 754 443 747 463 q 762 401 762 423 q 753 356 762 377 q 727 319 743 334 q 690 294 711 303 q 646 285 669 285 q 602 294 622 285 q 568 318 583 302 q 545 352 553 333 q 537 393 537 372 q 547 440 537 418 q 572 477 556 461 q 610 502 589 493 q 654 511 631 511 z "},"Ń":{"ha":764,"x_min":0,"x_max":788,"o":"m 610 0 l 459 0 l 312 553 l 271 730 l 182 283 l 125 0 l 13 0 l 191 886 l 341 886 l 481 363 l 530 160 l 625 635 l 675 886 l 788 886 l 610 0 m 762 1125 l 562 981 l 441 981 l 591 1125 l 762 1125 m 0 886 z "},"Ň":{"ha":764,"x_min":0,"x_max":788,"o":"m 610 0 l 459 0 l 312 553 l 271 730 l 182 283 l 125 0 l 13 0 l 191 886 l 341 886 l 481 363 l 530 160 l 625 635 l 675 886 l 788 886 l 610 0 m 323 1125 l 443 1125 l 521 1055 l 627 1125 l 751 1125 l 566 981 l 452 981 l 323 1125 m 0 886 z "},"Ñ":{"ha":764,"x_min":0,"x_max":788,"o":"m 610 0 l 459 0 l 312 553 l 271 730 l 182 283 l 125 0 l 13 0 l 191 886 l 341 886 l 481 363 l 530 160 l 625 635 l 675 886 l 788 886 l 610 0 m 277 1035 q 346 1108 308 1084 q 431 1133 384 1133 q 497 1122 470 1133 q 544 1097 524 1110 q 583 1072 564 1083 q 624 1060 601 1060 q 673 1079 651 1060 q 714 1126 694 1097 l 770 1071 q 700 997 738 1022 q 615 972 662 972 q 569 978 589 972 q 532 991 549 983 q 503 1009 516 1000 q 477 1027 490 1019 q 452 1040 465 1035 q 424 1046 439 1046 q 374 1027 396 1046 q 332 979 353 1008 l 277 1035 m 0 886 z "},"Ņ":{"ha":764,"x_min":13,"x_max":788,"o":"m 610 0 l 459 0 l 312 553 l 271 730 l 182 283 l 125 0 l 13 0 l 191 886 l 341 886 l 481 363 l 530 160 l 625 635 l 675 886 l 788 886 l 610 0 m 355 -78 l 254 -278 l 155 -278 l 239 -78 l 355 -78 z "},"Ŋ":{"ha":764,"x_min":11,"x_max":790,"o":"m 321 557 l 269 730 l 123 0 l 11 0 l 187 886 l 335 886 l 503 376 l 547 228 l 677 886 l 790 886 l 614 5 q 500 -211 585 -138 q 282 -285 415 -285 l 304 -183 q 428 -135 378 -183 q 497 8 477 -87 l 321 557 z "},"Ò":{"ha":764,"x_min":-12,"x_max":762,"o":"m 313 -12 q 109 65 177 -12 q 41 286 41 143 q 54 427 41 355 q 91 567 66 499 q 153 695 115 635 q 240 801 190 755 q 353 872 290 846 q 492 899 416 899 q 694 821 627 899 q 762 600 762 743 q 750 459 762 532 q 713 319 738 387 q 651 191 688 251 q 564 85 614 130 q 451 14 514 40 q 313 -12 389 -12 m 639 591 q 630 675 639 637 q 601 738 621 712 q 551 779 581 764 q 478 793 521 793 q 378 768 423 793 q 299 702 334 743 q 239 609 264 661 q 197 501 214 556 q 173 392 181 446 q 165 294 165 338 q 175 211 165 248 q 203 148 184 174 q 253 107 222 121 q 326 93 283 93 q 426 118 381 93 q 506 183 471 142 q 566 277 541 224 q 607 385 591 330 q 631 494 623 440 q 639 591 639 548 m 564 981 l 444 981 l 257 1125 l 428 1125 l 564 981 m -12 886 z "},"Ó":{"ha":764,"x_min":0,"x_max":762,"o":"m 313 -12 q 109 65 177 -12 q 41 286 41 143 q 54 427 41 355 q 91 567 66 499 q 153 695 115 635 q 240 801 190 755 q 353 872 290 846 q 492 899 416 899 q 694 821 627 899 q 762 600 762 743 q 750 459 762 532 q 713 319 738 387 q 651 191 688 251 q 564 85 614 130 q 451 14 514 40 q 313 -12 389 -12 m 639 591 q 630 675 639 637 q 601 738 621 712 q 551 779 581 764 q 478 793 521 793 q 378 768 423 793 q 299 702 334 743 q 239 609 264 661 q 197 501 214 556 q 173 392 181 446 q 165 294 165 338 q 175 211 165 248 q 203 148 184 174 q 253 107 222 121 q 326 93 283 93 q 426 118 381 93 q 506 183 471 142 q 566 277 541 224 q 607 385 591 330 q 631 494 623 440 q 639 591 639 548 m 762 1125 l 562 981 l 441 981 l 591 1125 l 762 1125 m 0 886 z "},"Ô":{"ha":764,"x_min":-12,"x_max":762,"o":"m 313 -12 q 109 65 177 -12 q 41 286 41 143 q 54 427 41 355 q 91 567 66 499 q 153 695 115 635 q 240 801 190 755 q 353 872 290 846 q 492 899 416 899 q 694 821 627 899 q 762 600 762 743 q 750 459 762 532 q 713 319 738 387 q 651 191 688 251 q 564 85 614 130 q 451 14 514 40 q 313 -12 389 -12 m 639 591 q 630 675 639 637 q 601 738 621 712 q 551 779 581 764 q 478 793 521 793 q 378 768 423 793 q 299 702 334 743 q 239 609 264 661 q 197 501 214 556 q 173 392 181 446 q 165 294 165 338 q 175 211 165 248 q 203 148 184 174 q 253 107 222 121 q 326 93 283 93 q 426 118 381 93 q 506 183 471 142 q 566 277 541 224 q 607 385 591 330 q 631 494 623 440 q 639 591 639 548 m 710 981 l 591 981 l 513 1050 l 407 981 l 282 981 l 469 1125 l 583 1125 l 710 981 m -12 886 z "},"Õ":{"ha":764,"x_min":-12,"x_max":762,"o":"m 313 -12 q 109 65 177 -12 q 41 286 41 143 q 54 427 41 355 q 91 567 66 499 q 153 695 115 635 q 240 801 190 755 q 353 872 290 846 q 492 899 416 899 q 694 821 627 899 q 762 600 762 743 q 750 459 762 532 q 713 319 738 387 q 651 191 688 251 q 564 85 614 130 q 451 14 514 40 q 313 -12 389 -12 m 639 591 q 630 675 639 637 q 601 738 621 712 q 551 779 581 764 q 478 793 521 793 q 378 768 423 793 q 299 702 334 743 q 239 609 264 661 q 197 501 214 556 q 173 392 181 446 q 165 294 165 338 q 175 211 165 248 q 203 148 184 174 q 253 107 222 121 q 326 93 283 93 q 426 118 381 93 q 506 183 471 142 q 566 277 541 224 q 607 385 591 330 q 631 494 623 440 q 639 591 639 548 m 264 1035 q 334 1108 296 1084 q 418 1133 372 1133 q 485 1122 458 1133 q 532 1097 511 1110 q 570 1072 552 1083 q 612 1060 589 1060 q 661 1079 639 1060 q 702 1126 682 1097 l 758 1071 q 688 997 726 1022 q 603 972 650 972 q 556 978 576 972 q 520 991 536 983 q 491 1009 504 1000 q 465 1027 477 1019 q 439 1040 452 1035 q 412 1046 427 1046 q 362 1027 384 1046 q 319 979 340 1008 l 264 1035 m -12 886 z "},"Ö":{"ha":764,"x_min":-7,"x_max":762,"o":"m 313 -12 q 109 65 177 -12 q 41 286 41 143 q 54 427 41 355 q 91 567 66 499 q 153 695 115 635 q 240 801 190 755 q 353 872 290 846 q 492 899 416 899 q 694 821 627 899 q 762 600 762 743 q 750 459 762 532 q 713 319 738 387 q 651 191 688 251 q 564 85 614 130 q 451 14 514 40 q 313 -12 389 -12 m 639 591 q 630 675 639 637 q 601 738 621 712 q 551 779 581 764 q 478 793 521 793 q 378 768 423 793 q 299 702 334 743 q 239 609 264 661 q 197 501 214 556 q 173 392 181 446 q 165 294 165 338 q 175 211 165 248 q 203 148 184 174 q 253 107 222 121 q 326 93 283 93 q 426 118 381 93 q 506 183 471 142 q 566 277 541 224 q 607 385 591 330 q 631 494 623 440 q 639 591 639 548 m 371 1125 q 421 1104 401 1125 q 440 1054 440 1084 q 434 1025 440 1038 q 418 1002 428 1012 q 394 986 408 992 q 366 981 380 981 q 315 1001 334 981 q 296 1051 296 1022 q 302 1080 296 1067 q 318 1104 308 1094 q 342 1119 328 1114 q 371 1125 355 1125 m 668 1125 q 696 1119 683 1125 q 718 1104 709 1114 q 733 1082 728 1095 q 738 1054 738 1069 q 732 1025 738 1038 q 715 1002 726 1012 q 691 986 705 992 q 663 981 677 981 q 612 1001 631 981 q 593 1051 593 1022 q 599 1080 593 1067 q 615 1104 605 1094 q 639 1119 625 1114 q 668 1125 652 1125 m -7 886 z "},"Ō":{"ha":764,"x_min":-5,"x_max":762,"o":"m 313 -12 q 109 65 177 -12 q 41 286 41 143 q 54 427 41 355 q 91 567 66 499 q 153 695 115 635 q 240 801 190 755 q 353 872 290 846 q 492 899 416 899 q 694 821 627 899 q 762 600 762 743 q 750 459 762 532 q 713 319 738 387 q 651 191 688 251 q 564 85 614 130 q 451 14 514 40 q 313 -12 389 -12 m 639 591 q 630 675 639 637 q 601 738 621 712 q 551 779 581 764 q 478 793 521 793 q 378 768 423 793 q 299 702 334 743 q 239 609 264 661 q 197 501 214 556 q 173 392 181 446 q 165 294 165 338 q 175 211 165 248 q 203 148 184 174 q 253 107 222 121 q 326 93 283 93 q 426 118 381 93 q 506 183 471 142 q 566 277 541 224 q 607 385 591 330 q 631 494 623 440 q 639 591 639 548 m 700 1006 l 317 1006 l 335 1096 l 718 1096 l 700 1006 m -5 886 z "},"Ŏ":{"ha":764,"x_min":-4,"x_max":762,"o":"m 313 -12 q 109 65 177 -12 q 41 286 41 143 q 54 427 41 355 q 91 567 66 499 q 153 695 115 635 q 240 801 190 755 q 353 872 290 846 q 492 899 416 899 q 694 821 627 899 q 762 600 762 743 q 750 459 762 532 q 713 319 738 387 q 651 191 688 251 q 564 85 614 130 q 451 14 514 40 q 313 -12 389 -12 m 639 591 q 630 675 639 637 q 601 738 621 712 q 551 779 581 764 q 478 793 521 793 q 378 768 423 793 q 299 702 334 743 q 239 609 264 661 q 197 501 214 556 q 173 392 181 446 q 165 294 165 338 q 175 211 165 248 q 203 148 184 174 q 253 107 222 121 q 326 93 283 93 q 426 118 381 93 q 506 183 471 142 q 566 277 541 224 q 607 385 591 330 q 631 494 623 440 q 639 591 639 548 m 715 1129 q 688 1058 707 1088 q 642 1010 669 1029 q 581 982 614 991 q 510 972 547 972 q 442 982 474 972 q 388 1010 410 991 q 356 1058 366 1029 q 354 1129 346 1088 l 448 1129 q 458 1077 440 1095 q 518 1060 476 1060 q 588 1077 560 1060 q 623 1129 615 1095 l 715 1129 m -4 886 z "},"Ő":{"ha":764,"x_min":0,"x_max":900,"o":"m 313 -12 q 109 65 177 -12 q 41 286 41 143 q 54 427 41 355 q 91 567 66 499 q 153 695 115 635 q 240 801 190 755 q 353 872 290 846 q 492 899 416 899 q 694 821 627 899 q 762 600 762 743 q 750 459 762 532 q 713 319 738 387 q 651 191 688 251 q 564 85 614 130 q 451 14 514 40 q 313 -12 389 -12 m 639 591 q 630 675 639 637 q 601 738 621 712 q 551 779 581 764 q 478 793 521 793 q 378 768 423 793 q 299 702 334 743 q 239 609 264 661 q 197 501 214 556 q 173 392 181 446 q 165 294 165 338 q 175 211 165 248 q 203 148 184 174 q 253 107 222 121 q 326 93 283 93 q 426 118 381 93 q 506 183 471 142 q 566 277 541 224 q 607 385 591 330 q 631 494 623 440 q 639 591 639 548 m 595 1125 l 436 981 l 314 981 l 450 1125 l 595 1125 m 900 1125 l 717 981 l 593 981 l 743 1125 l 900 1125 m 0 886 z "},"Ø":{"ha":764,"x_min":41,"x_max":762,"o":"m 315 -12 q 270 -9 292 -12 q 229 -3 249 -7 l 158 -146 l 54 -146 l 144 35 q 41 286 41 111 q 53 427 41 355 q 90 567 65 499 q 151 695 114 635 q 238 801 188 755 q 350 872 288 846 q 489 899 413 899 q 533 897 512 899 q 572 889 553 895 l 643 1032 l 747 1032 l 657 851 q 736 751 709 814 q 762 600 762 688 q 750 459 762 532 q 714 319 739 387 q 653 191 690 251 q 566 85 616 130 q 454 14 517 40 q 315 -12 391 -12 m 639 591 q 630 675 639 638 q 602 739 621 713 l 281 97 q 329 93 301 93 q 429 118 384 93 q 508 183 473 142 q 567 277 542 224 q 608 385 591 330 q 631 494 624 440 q 639 591 639 548 m 165 294 q 173 211 165 248 q 200 149 181 174 l 521 789 q 475 793 500 793 q 375 768 420 793 q 297 702 331 743 q 238 609 262 661 q 197 501 213 556 q 173 392 180 446 q 165 294 165 338 z "},"Ǿ":{"ha":764,"x_min":-110,"x_max":762,"o":"m 315 -12 q 270 -9 292 -12 q 229 -3 249 -7 l 158 -146 l 54 -146 l 144 35 q 41 286 41 111 q 53 427 41 355 q 90 567 65 499 q 151 695 114 635 q 238 801 188 755 q 350 872 288 846 q 489 899 413 899 q 533 897 512 899 q 572 889 553 895 l 643 1032 l 747 1032 l 657 851 q 736 751 709 814 q 762 600 762 688 q 750 459 762 532 q 714 319 739 387 q 653 191 690 251 q 566 85 616 130 q 454 14 517 40 q 315 -12 391 -12 m 639 591 q 630 675 639 638 q 602 739 621 713 l 281 97 q 329 93 301 93 q 429 118 384 93 q 508 183 473 142 q 567 277 542 224 q 608 385 591 330 q 631 494 624 440 q 639 591 639 548 m 165 294 q 173 211 165 248 q 200 149 181 174 l 521 789 q 475 793 500 793 q 375 768 420 793 q 297 702 331 743 q 238 609 262 661 q 197 501 213 556 q 173 392 180 446 q 165 294 165 338 m 652 1125 l 452 981 l 332 981 l 481 1125 l 652 1125 m -110 886 z "},"Œ":{"ha":764,"x_min":22,"x_max":850,"o":"m 672 0 l 425 0 q 380 -1 400 0 q 343 -5 360 -3 q 311 -8 326 -7 q 282 -9 296 -9 q 86 66 151 -9 q 22 281 22 141 q 32 405 22 337 q 63 541 42 473 q 118 673 84 609 q 199 787 151 737 q 308 866 246 836 q 449 896 370 896 q 486 895 465 896 q 527 891 507 893 q 565 888 547 889 q 593 886 583 886 l 850 886 l 829 787 l 606 787 l 550 509 l 760 509 l 741 410 l 530 410 l 468 100 l 692 100 l 672 0 m 490 790 q 467 794 481 792 q 436 796 453 796 q 337 768 380 796 q 261 695 294 741 q 206 594 229 650 q 170 482 184 538 q 149 374 155 425 q 143 288 143 323 q 298 90 143 90 q 324 92 312 90 q 351 97 336 94 l 490 790 z "},"Þ":{"ha":764,"x_min":37,"x_max":720,"o":"m 335 886 l 309 754 l 427 754 q 542 741 488 754 q 635 700 595 728 q 697 630 674 673 q 720 530 720 588 q 710 458 720 497 q 681 379 701 419 q 628 302 661 339 q 551 236 596 264 q 445 190 505 207 q 310 172 385 172 l 192 172 l 158 0 l 37 0 l 214 886 l 335 886 m 593 514 q 550 617 593 582 q 415 653 507 653 l 289 653 l 212 273 l 321 273 q 416 286 375 273 q 488 317 458 298 q 538 362 518 337 q 570 415 558 388 q 588 467 583 441 q 593 514 593 493 z "},"Ŕ":{"ha":764,"x_min":-40,"x_max":722,"o":"m 640 0 l 510 0 l 435 283 q 414 337 426 316 q 386 371 402 359 q 350 389 370 384 q 302 395 329 395 l 245 395 l 167 0 l 46 0 l 224 886 l 453 886 q 567 873 519 886 q 648 837 616 861 q 695 778 680 812 q 710 699 710 743 q 693 602 710 646 q 645 521 676 557 q 570 460 614 486 q 472 421 526 435 q 526 373 507 408 q 559 285 545 338 l 640 0 m 583 679 q 440 785 583 785 l 323 785 l 265 492 l 355 492 q 453 507 410 492 q 524 547 495 522 q 568 606 553 572 q 583 679 583 640 m 722 1125 l 522 981 l 401 981 l 551 1125 l 722 1125 m -40 886 z "},"Ř":{"ha":764,"x_min":-46,"x_max":710,"o":"m 640 0 l 510 0 l 435 283 q 414 337 426 316 q 386 371 402 359 q 350 389 370 384 q 302 395 329 395 l 245 395 l 167 0 l 46 0 l 224 886 l 453 886 q 567 873 519 886 q 648 837 616 861 q 695 778 680 812 q 710 699 710 743 q 693 602 710 646 q 645 521 676 557 q 570 460 614 486 q 472 421 526 435 q 526 373 507 408 q 559 285 545 338 l 640 0 m 583 679 q 440 785 583 785 l 323 785 l 265 492 l 355 492 q 453 507 410 492 q 524 547 495 522 q 568 606 553 572 q 583 679 583 640 m 277 1125 l 397 1125 l 475 1055 l 581 1125 l 705 1125 l 519 981 l 406 981 l 277 1125 m -46 886 z "},"Ŗ":{"ha":764,"x_min":46,"x_max":710,"o":"m 640 0 l 510 0 l 435 283 q 414 337 426 316 q 386 371 402 359 q 350 389 370 384 q 302 395 329 395 l 245 395 l 167 0 l 46 0 l 224 886 l 453 886 q 567 873 519 886 q 648 837 616 861 q 695 778 680 812 q 710 699 710 743 q 693 602 710 646 q 645 521 676 557 q 570 460 614 486 q 472 421 526 435 q 526 373 507 408 q 559 285 545 338 l 640 0 m 583 679 q 440 785 583 785 l 323 785 l 265 492 l 355 492 q 453 507 410 492 q 524 547 495 522 q 568 606 553 572 q 583 679 583 640 m 367 -78 l 267 -278 l 167 -278 l 252 -78 l 367 -78 z "},"Ś":{"ha":764,"x_min":0,"x_max":762,"o":"m 261 -12 q 190 -9 226 -12 q 121 -3 155 -7 q 59 7 88 1 q 9 18 31 12 l 32 135 q 141 105 80 116 q 283 94 203 94 q 395 106 349 94 q 471 140 441 119 q 513 189 500 161 q 526 250 526 218 q 510 304 526 281 q 467 346 494 327 q 407 381 441 365 q 337 414 373 397 q 268 450 302 431 q 208 495 234 470 q 165 555 181 521 q 149 633 149 589 q 173 733 149 685 q 244 818 197 781 q 360 877 291 854 q 518 899 429 899 q 568 897 541 899 q 623 891 595 895 q 677 882 650 887 q 725 872 703 878 l 703 764 q 603 786 654 779 q 503 794 551 794 q 401 783 444 794 q 330 752 358 772 q 289 706 302 732 q 275 648 275 679 q 292 595 275 618 q 335 554 308 572 q 395 520 361 536 q 465 487 429 504 q 534 450 500 470 q 595 405 568 431 q 638 344 622 378 q 654 264 654 310 q 629 155 654 205 q 554 67 604 104 q 431 9 505 31 q 261 -12 357 -12 m 762 1125 l 562 981 l 441 981 l 591 1125 l 762 1125 m 0 886 z "},"Ŝ":{"ha":764,"x_min":0,"x_max":725,"o":"m 261 -12 q 190 -9 226 -12 q 121 -3 155 -7 q 59 7 88 1 q 9 18 31 12 l 32 135 q 141 105 80 116 q 283 94 203 94 q 395 106 349 94 q 471 140 441 119 q 513 189 500 161 q 526 250 526 218 q 510 304 526 281 q 467 346 494 327 q 407 381 441 365 q 337 414 373 397 q 268 450 302 431 q 208 495 234 470 q 165 555 181 521 q 149 633 149 589 q 173 733 149 685 q 244 818 197 781 q 360 877 291 854 q 518 899 429 899 q 568 897 541 899 q 623 891 595 895 q 677 882 650 887 q 725 872 703 878 l 703 764 q 603 786 654 779 q 503 794 551 794 q 401 783 444 794 q 330 752 358 772 q 289 706 302 732 q 275 648 275 679 q 292 595 275 618 q 335 554 308 572 q 395 520 361 536 q 465 487 429 504 q 534 450 500 470 q 595 405 568 431 q 638 344 622 378 q 654 264 654 310 q 629 155 654 205 q 554 67 604 104 q 431 9 505 31 q 261 -12 357 -12 m 722 981 l 603 981 l 525 1050 l 419 981 l 294 981 l 481 1125 l 595 1125 l 722 981 m 0 886 z "},"Š":{"ha":764,"x_min":0,"x_max":751,"o":"m 261 -12 q 190 -9 226 -12 q 121 -3 155 -7 q 59 7 88 1 q 9 18 31 12 l 32 135 q 141 105 80 116 q 283 94 203 94 q 395 106 349 94 q 471 140 441 119 q 513 189 500 161 q 526 250 526 218 q 510 304 526 281 q 467 346 494 327 q 407 381 441 365 q 337 414 373 397 q 268 450 302 431 q 208 495 234 470 q 165 555 181 521 q 149 633 149 589 q 173 733 149 685 q 244 818 197 781 q 360 877 291 854 q 518 899 429 899 q 568 897 541 899 q 623 891 595 895 q 677 882 650 887 q 725 872 703 878 l 703 764 q 603 786 654 779 q 503 794 551 794 q 401 783 444 794 q 330 752 358 772 q 289 706 302 732 q 275 648 275 679 q 292 595 275 618 q 335 554 308 572 q 395 520 361 536 q 465 487 429 504 q 534 450 500 470 q 595 405 568 431 q 638 344 622 378 q 654 264 654 310 q 629 155 654 205 q 554 67 604 104 q 431 9 505 31 q 261 -12 357 -12 m 323 1125 l 443 1125 l 521 1055 l 627 1125 l 751 1125 l 566 981 l 452 981 l 323 1125 m 0 886 z "},"Ş":{"ha":764,"x_min":9,"x_max":725,"o":"m 356 -6 l 261 -200 l 158 -200 l 238 -12 q 183 -9 213 -12 q 121 -3 154 -7 q 59 7 88 1 q 9 18 31 12 l 32 135 q 141 105 80 116 q 283 94 203 94 q 395 106 349 94 q 471 140 441 119 q 513 189 500 161 q 526 250 526 218 q 510 304 526 281 q 467 346 494 327 q 407 381 441 365 q 337 414 373 397 q 268 450 302 431 q 208 495 234 470 q 165 555 181 521 q 149 633 149 589 q 173 733 149 685 q 244 818 197 781 q 360 877 291 854 q 518 899 429 899 q 568 897 541 899 q 623 891 595 895 q 677 882 650 887 q 725 872 703 878 l 703 764 q 603 786 654 779 q 503 794 551 794 q 401 783 444 794 q 330 752 358 772 q 289 706 302 732 q 275 648 275 679 q 292 595 275 618 q 335 554 308 572 q 395 520 361 536 q 465 487 429 504 q 534 450 500 470 q 595 405 568 431 q 638 344 622 378 q 654 264 654 310 q 627 150 654 205 q 529 51 599 94 q 356 -6 458 8 z "},"Ș":{"ha":764,"x_min":9,"x_max":725,"o":"m 261 -12 q 190 -9 226 -12 q 121 -3 155 -7 q 59 7 88 1 q 9 18 31 12 l 32 135 q 141 105 80 116 q 283 94 203 94 q 395 106 349 94 q 471 140 441 119 q 513 189 500 161 q 526 250 526 218 q 510 304 526 281 q 467 346 494 327 q 407 381 441 365 q 337 414 373 397 q 268 450 302 431 q 208 495 234 470 q 165 555 181 521 q 149 633 149 589 q 173 733 149 685 q 244 818 197 781 q 360 877 291 854 q 518 899 429 899 q 568 897 541 899 q 623 891 595 895 q 677 882 650 887 q 725 872 703 878 l 703 764 q 603 786 654 779 q 503 794 551 794 q 401 783 444 794 q 330 752 358 772 q 289 706 302 732 q 275 648 275 679 q 292 595 275 618 q 335 554 308 572 q 395 520 361 536 q 465 487 429 504 q 534 450 500 470 q 595 405 568 431 q 638 344 622 378 q 654 264 654 310 q 629 155 654 205 q 554 67 604 104 q 431 9 505 31 q 261 -12 357 -12 m 355 -78 l 254 -278 l 155 -278 l 239 -78 l 355 -78 z "},"Ť":{"ha":764,"x_min":-14,"x_max":814,"o":"m 793 783 l 530 783 l 374 0 l 252 0 l 408 783 l 146 783 l 167 886 l 814 886 l 793 783 m 309 1125 l 429 1125 l 507 1055 l 612 1125 l 737 1125 l 551 981 l 437 981 l 309 1125 m -14 886 z "},"Ț":{"ha":764,"x_min":146,"x_max":814,"o":"m 793 783 l 530 783 l 374 0 l 252 0 l 408 783 l 146 783 l 167 886 l 814 886 l 793 783 m 359 -78 l 258 -278 l 159 -278 l 243 -78 l 359 -78 z "},"Ŧ":{"ha":764,"x_min":145,"x_max":813,"o":"m 452 395 l 374 0 l 252 0 l 330 395 l 149 395 l 170 496 l 350 496 l 408 783 l 145 783 l 166 886 l 813 886 l 793 783 l 530 783 l 473 496 l 654 496 l 633 395 l 452 395 z "},"Ù":{"ha":764,"x_min":0,"x_max":799,"o":"m 682 309 q 636 176 667 235 q 559 75 606 117 q 452 11 513 33 q 315 -12 391 -12 q 178 9 233 -12 q 93 71 123 31 q 56 166 63 111 q 62 290 49 222 l 182 886 l 302 886 l 184 300 q 176 208 174 248 q 193 142 177 169 q 242 102 210 116 q 326 89 275 89 q 481 144 422 89 q 559 301 540 200 l 677 886 l 799 886 l 682 309 m 576 981 l 456 981 l 269 1125 l 440 1125 l 576 981 m 0 886 z "},"Ú":{"ha":764,"x_min":0,"x_max":799,"o":"m 682 309 q 636 176 667 235 q 559 75 606 117 q 452 11 513 33 q 315 -12 391 -12 q 178 9 233 -12 q 93 71 123 31 q 56 166 63 111 q 62 290 49 222 l 182 886 l 302 886 l 184 300 q 176 208 174 248 q 193 142 177 169 q 242 102 210 116 q 326 89 275 89 q 481 144 422 89 q 559 301 540 200 l 677 886 l 799 886 l 682 309 m 762 1125 l 562 981 l 441 981 l 591 1125 l 762 1125 m 0 886 z "},"Û":{"ha":764,"x_min":-12,"x_max":799,"o":"m 682 309 q 636 176 667 235 q 559 75 606 117 q 452 11 513 33 q 315 -12 391 -12 q 178 9 233 -12 q 93 71 123 31 q 56 166 63 111 q 62 290 49 222 l 182 886 l 302 886 l 184 300 q 176 208 174 248 q 193 142 177 169 q 242 102 210 116 q 326 89 275 89 q 481 144 422 89 q 559 301 540 200 l 677 886 l 799 886 l 682 309 m 710 981 l 591 981 l 513 1050 l 407 981 l 282 981 l 469 1125 l 583 1125 l 710 981 m -12 886 z "},"Ũ":{"ha":764,"x_min":-12,"x_max":799,"o":"m 682 309 q 636 176 667 235 q 559 75 606 117 q 452 11 513 33 q 315 -12 391 -12 q 178 9 233 -12 q 93 71 123 31 q 56 166 63 111 q 62 290 49 222 l 182 886 l 302 886 l 184 300 q 176 208 174 248 q 193 142 177 169 q 242 102 210 116 q 326 89 275 89 q 481 144 422 89 q 559 301 540 200 l 677 886 l 799 886 l 682 309 m 264 1035 q 334 1108 296 1084 q 418 1133 372 1133 q 485 1122 458 1133 q 532 1097 511 1110 q 570 1072 552 1083 q 612 1060 589 1060 q 661 1079 639 1060 q 702 1126 682 1097 l 758 1071 q 688 997 726 1022 q 603 972 650 972 q 556 978 576 972 q 520 991 536 983 q 491 1009 504 1000 q 465 1027 477 1019 q 439 1040 452 1035 q 412 1046 427 1046 q 362 1027 384 1046 q 319 979 340 1008 l 264 1035 m -12 886 z "},"Ü":{"ha":764,"x_min":-12,"x_max":799,"o":"m 682 309 q 636 176 667 235 q 559 75 606 117 q 452 11 513 33 q 315 -12 391 -12 q 178 9 233 -12 q 93 71 123 31 q 56 166 63 111 q 62 290 49 222 l 182 886 l 302 886 l 184 300 q 176 208 174 248 q 193 142 177 169 q 242 102 210 116 q 326 89 275 89 q 481 144 422 89 q 559 301 540 200 l 677 886 l 799 886 l 682 309 m 366 1125 q 415 1104 396 1125 q 435 1054 435 1084 q 429 1025 435 1038 q 412 1002 422 1012 q 389 986 402 992 q 360 981 375 981 q 309 1001 328 981 q 290 1051 290 1022 q 296 1080 290 1067 q 313 1104 302 1094 q 336 1119 323 1114 q 366 1125 350 1125 m 663 1125 q 690 1119 677 1125 q 713 1104 703 1114 q 727 1082 722 1095 q 732 1054 732 1069 q 726 1025 732 1038 q 710 1002 720 1012 q 686 986 700 992 q 657 981 672 981 q 607 1001 626 981 q 588 1051 588 1022 q 594 1080 588 1067 q 610 1104 600 1094 q 633 1119 620 1114 q 663 1125 647 1125 m -12 886 z "},"Ū":{"ha":764,"x_min":-8,"x_max":799,"o":"m 682 309 q 636 176 667 235 q 559 75 606 117 q 452 11 513 33 q 315 -12 391 -12 q 178 9 233 -12 q 93 71 123 31 q 56 166 63 111 q 62 290 49 222 l 182 886 l 302 886 l 184 300 q 176 208 174 248 q 193 142 177 169 q 242 102 210 116 q 326 89 275 89 q 481 144 422 89 q 559 301 540 200 l 677 886 l 799 886 l 682 309 m 697 1006 l 314 1006 l 332 1096 l 715 1096 l 697 1006 m -8 886 z "},"Ŭ":{"ha":764,"x_min":-8,"x_max":799,"o":"m 682 309 q 636 176 667 235 q 559 75 606 117 q 452 11 513 33 q 315 -12 391 -12 q 178 9 233 -12 q 93 71 123 31 q 56 166 63 111 q 62 290 49 222 l 182 886 l 302 886 l 184 300 q 176 208 174 248 q 193 142 177 169 q 242 102 210 116 q 326 89 275 89 q 481 144 422 89 q 559 301 540 200 l 677 886 l 799 886 l 682 309 m 711 1129 q 684 1058 703 1088 q 638 1010 665 1029 q 576 982 610 991 q 506 972 543 972 q 438 982 470 972 q 384 1010 406 991 q 352 1058 361 1029 q 350 1129 342 1088 l 444 1129 q 454 1077 436 1095 q 514 1060 472 1060 q 584 1077 556 1060 q 618 1129 611 1095 l 711 1129 m -8 886 z "},"Ů":{"ha":764,"x_min":-12,"x_max":799,"o":"m 682 309 q 636 176 667 235 q 559 75 606 117 q 452 11 513 33 q 315 -12 391 -12 q 178 9 233 -12 q 93 71 123 31 q 56 166 63 111 q 62 290 49 222 l 182 886 l 302 886 l 184 300 q 176 208 174 248 q 193 142 177 169 q 242 102 210 116 q 326 89 275 89 q 481 144 422 89 q 559 301 540 200 l 677 886 l 799 886 l 682 309 m 517 1180 q 569 1170 545 1180 q 610 1144 593 1160 q 637 1106 627 1128 q 646 1059 646 1084 q 635 1003 646 1028 q 603 960 623 978 q 557 931 583 941 q 503 921 532 921 q 451 931 475 921 q 410 957 427 941 q 383 996 393 974 q 374 1043 374 1018 q 385 1099 374 1074 q 417 1142 397 1124 q 463 1170 437 1160 q 517 1180 488 1180 m 513 1111 q 467 1093 484 1111 q 449 1047 449 1076 q 465 1007 449 1023 q 507 990 480 990 q 553 1007 536 990 q 571 1054 571 1025 q 555 1094 571 1077 q 513 1111 540 1111 m -12 886 z "},"Ű":{"ha":764,"x_min":0,"x_max":900,"o":"m 682 309 q 636 176 667 235 q 559 75 606 117 q 452 11 513 33 q 315 -12 391 -12 q 178 9 233 -12 q 93 71 123 31 q 56 166 63 111 q 62 290 49 222 l 182 886 l 302 886 l 184 300 q 176 208 174 248 q 193 142 177 169 q 242 102 210 116 q 326 89 275 89 q 481 144 422 89 q 559 301 540 200 l 677 886 l 799 886 l 682 309 m 595 1125 l 436 981 l 314 981 l 450 1125 l 595 1125 m 900 1125 l 717 981 l 593 981 l 743 1125 l 900 1125 m 0 886 z "},"Ų":{"ha":764,"x_min":50,"x_max":799,"o":"m 410 -254 q 372 -259 393 -258 q 334 -261 351 -261 q 271 -253 298 -261 q 228 -232 245 -245 q 203 -201 212 -219 q 195 -164 195 -184 q 199 -132 195 -148 q 214 -97 203 -115 q 243 -58 224 -79 q 291 -12 261 -37 q 166 15 216 -8 q 89 77 116 38 q 55 171 61 117 q 62 290 50 224 l 182 886 l 302 886 l 184 300 q 176 208 174 248 q 193 142 177 169 q 242 102 210 116 q 326 89 275 89 q 481 144 422 89 q 559 301 540 200 l 677 886 l 799 886 l 682 309 q 647 197 670 248 q 590 107 624 146 q 513 40 557 68 q 416 0 470 13 q 362 -51 382 -29 q 329 -89 341 -72 q 313 -119 317 -105 q 309 -146 309 -132 q 320 -170 309 -159 q 363 -180 332 -180 q 386 -180 373 -180 q 410 -178 399 -179 l 410 -254 z "},"Ẁ":{"ha":764,"x_min":-12,"x_max":842,"o":"m 842 886 l 604 0 l 450 0 l 403 315 l 393 416 l 339 307 l 176 0 l 22 0 l 139 886 l 252 886 l 165 283 l 142 118 l 212 258 l 386 587 l 469 587 l 522 235 l 541 118 l 568 240 l 732 886 l 842 886 m 564 981 l 444 981 l 257 1125 l 428 1125 l 564 981 m -12 886 z "},"Ẃ":{"ha":764,"x_min":-12,"x_max":842,"o":"m 842 886 l 604 0 l 450 0 l 403 315 l 393 416 l 339 307 l 176 0 l 22 0 l 139 886 l 252 886 l 165 283 l 142 118 l 212 258 l 386 587 l 469 587 l 522 235 l 541 118 l 568 240 l 732 886 l 842 886 m 750 1125 l 550 981 l 429 981 l 579 1125 l 750 1125 m -12 886 z "},"Ŵ":{"ha":764,"x_min":-4,"x_max":842,"o":"m 842 886 l 604 0 l 450 0 l 403 315 l 393 416 l 339 307 l 176 0 l 22 0 l 139 886 l 252 886 l 165 283 l 142 118 l 212 258 l 386 587 l 469 587 l 522 235 l 541 118 l 568 240 l 732 886 l 842 886 m 718 981 l 599 981 l 521 1050 l 415 981 l 290 981 l 477 1125 l 591 1125 l 718 981 m -4 886 z "},"Ẅ":{"ha":764,"x_min":-12,"x_max":842,"o":"m 842 886 l 604 0 l 450 0 l 403 315 l 393 416 l 339 307 l 176 0 l 22 0 l 139 886 l 252 886 l 165 283 l 142 118 l 212 258 l 386 587 l 469 587 l 522 235 l 541 118 l 568 240 l 732 886 l 842 886 m 366 1125 q 415 1104 396 1125 q 435 1054 435 1084 q 429 1025 435 1038 q 412 1002 422 1012 q 389 986 402 992 q 360 981 375 981 q 309 1001 328 981 q 290 1051 290 1022 q 296 1080 290 1067 q 313 1104 302 1094 q 336 1119 323 1114 q 366 1125 350 1125 m 663 1125 q 690 1119 677 1125 q 713 1104 703 1114 q 727 1082 722 1095 q 732 1054 732 1069 q 726 1025 732 1038 q 710 1002 720 1012 q 686 986 700 992 q 657 981 672 981 q 607 1001 626 981 q 588 1051 588 1022 q 594 1080 588 1067 q 610 1104 600 1094 q 633 1119 620 1114 q 663 1125 647 1125 m -12 886 z "},"Ỳ":{"ha":764,"x_min":-26,"x_max":872,"o":"m 872 886 l 437 317 l 374 0 l 252 0 l 315 319 l 109 886 l 249 886 l 359 562 l 399 432 l 482 550 l 728 886 l 872 886 m 550 981 l 429 981 l 243 1125 l 414 1125 l 550 981 m -26 886 z "},"Ý":{"ha":764,"x_min":-3,"x_max":872,"o":"m 872 886 l 437 317 l 374 0 l 252 0 l 315 319 l 109 886 l 249 886 l 359 562 l 399 432 l 482 550 l 728 886 l 872 886 m 760 1125 l 559 981 l 439 981 l 589 1125 l 760 1125 m -3 886 z "},"Ŷ":{"ha":764,"x_min":-8,"x_max":872,"o":"m 872 886 l 437 317 l 374 0 l 252 0 l 315 319 l 109 886 l 249 886 l 359 562 l 399 432 l 482 550 l 728 886 l 872 886 m 714 981 l 595 981 l 517 1050 l 411 981 l 286 981 l 473 1125 l 587 1125 l 714 981 m -8 886 z "},"Ÿ":{"ha":764,"x_min":-12,"x_max":872,"o":"m 872 886 l 437 317 l 374 0 l 252 0 l 315 319 l 109 886 l 249 886 l 359 562 l 399 432 l 482 550 l 728 886 l 872 886 m 366 1125 q 415 1104 396 1125 q 435 1054 435 1084 q 429 1025 435 1038 q 412 1002 422 1012 q 389 986 402 992 q 360 981 375 981 q 309 1001 328 981 q 290 1051 290 1022 q 296 1080 290 1067 q 313 1104 302 1094 q 336 1119 323 1114 q 366 1125 350 1125 m 663 1125 q 690 1119 677 1125 q 713 1104 703 1114 q 727 1082 722 1095 q 732 1054 732 1069 q 726 1025 732 1038 q 710 1002 720 1012 q 686 986 700 992 q 657 981 672 981 q 607 1001 626 981 q 588 1051 588 1022 q 594 1080 588 1067 q 610 1104 600 1094 q 633 1119 620 1114 q 663 1125 647 1125 m -12 886 z "},"Ź":{"ha":764,"x_min":0,"x_max":787,"o":"m 768 791 l 183 113 l 640 113 l 618 0 l 5 0 l 24 90 l 612 777 l 174 777 l 196 886 l 787 886 l 768 791 m 762 1125 l 562 981 l 441 981 l 591 1125 l 762 1125 m 0 886 z "},"Ž":{"ha":764,"x_min":0,"x_max":787,"o":"m 768 791 l 183 113 l 640 113 l 618 0 l 5 0 l 24 90 l 612 777 l 174 777 l 196 886 l 787 886 l 768 791 m 323 1125 l 443 1125 l 521 1055 l 627 1125 l 751 1125 l 566 981 l 452 981 l 323 1125 m 0 886 z "},"Ż":{"ha":764,"x_min":-17,"x_max":787,"o":"m 768 791 l 183 113 l 640 113 l 618 0 l 5 0 l 24 90 l 612 777 l 174 777 l 196 886 l 787 886 l 768 791 m 420 1048 q 428 1084 420 1067 q 447 1113 435 1101 q 475 1132 459 1125 q 509 1139 491 1139 q 543 1132 528 1139 q 569 1114 558 1125 q 587 1088 581 1103 q 593 1057 593 1074 q 586 1021 593 1038 q 566 992 578 1004 q 537 973 553 980 q 503 966 521 966 q 469 973 484 966 q 443 991 454 980 q 427 1018 433 1003 q 420 1048 420 1032 m -17 886 z "},"a":{"ha":764,"x_min":62,"x_max":721,"o":"m 453 689 q 537 683 497 689 q 614 667 577 677 l 721 693 l 644 313 q 638 279 642 300 q 631 222 635 258 q 621 133 627 186 q 607 0 615 79 l 496 0 l 513 157 q 399 32 466 75 q 254 -12 332 -12 q 169 4 205 -12 q 109 51 133 20 q 74 123 85 81 q 62 216 62 165 q 88 400 62 314 q 163 550 113 486 q 285 652 212 614 q 453 689 358 689 m 182 228 q 204 127 182 163 q 277 90 227 90 q 335 104 306 90 q 392 141 364 117 q 445 197 420 165 q 490 266 469 229 q 526 343 511 303 q 549 424 541 384 l 576 564 q 511 585 545 577 q 449 593 477 593 q 352 574 393 593 q 281 524 311 555 q 232 455 251 494 q 202 375 213 416 q 186 296 191 334 q 182 228 182 257 z "},"b":{"ha":764,"x_min":49,"x_max":694,"o":"m 304 -8 q 168 7 230 -8 q 49 47 105 22 l 231 958 l 349 958 l 296 694 l 252 530 q 300 598 273 568 q 359 650 327 629 q 428 682 391 671 q 503 693 464 693 q 588 676 551 693 q 648 630 624 660 q 683 558 671 600 q 694 464 694 515 q 669 280 694 366 q 594 131 644 195 q 472 29 545 66 q 304 -8 399 -8 m 575 453 q 553 554 575 518 q 481 590 531 590 q 422 576 452 590 q 366 539 393 563 q 313 484 338 515 q 268 415 288 452 q 232 340 247 379 q 210 264 217 302 l 180 117 q 246 95 212 103 q 309 87 280 87 q 406 106 364 87 q 476 156 447 125 q 525 226 506 186 q 555 306 544 265 q 571 385 566 347 q 575 453 575 423 z "},"c":{"ha":764,"x_min":96,"x_max":700,"o":"m 583 28 q 477 -1 526 8 q 378 -9 429 -9 q 169 53 242 -9 q 96 241 96 116 q 128 428 96 345 q 217 569 161 511 q 349 659 273 627 q 509 690 424 690 q 607 683 557 690 q 700 659 656 675 l 679 551 q 594 579 642 569 q 503 590 547 590 q 381 562 434 590 q 293 486 329 533 q 238 379 257 439 q 220 256 220 319 q 264 132 220 173 q 396 90 309 90 q 490 100 441 90 q 583 127 539 109 l 583 28 z "},"d":{"ha":764,"x_min":62,"x_max":774,"o":"m 453 689 q 535 685 502 689 q 599 672 569 681 l 656 958 l 774 958 l 644 313 q 638 279 642 300 q 631 222 635 258 q 621 133 627 186 q 607 0 615 79 l 496 0 l 513 157 q 399 32 466 75 q 254 -12 332 -12 q 169 4 205 -12 q 109 51 133 20 q 74 123 85 81 q 62 216 62 165 q 88 400 62 314 q 163 550 113 486 q 285 652 212 614 q 453 689 358 689 m 182 228 q 204 127 182 163 q 277 90 227 90 q 335 104 306 90 q 392 141 364 117 q 445 197 420 165 q 490 266 469 229 q 526 343 511 303 q 549 424 541 384 l 576 564 q 511 585 545 577 q 449 593 477 593 q 352 574 393 593 q 281 524 311 555 q 232 455 251 494 q 202 375 213 416 q 186 296 191 334 q 182 228 182 257 z "},"e":{"ha":764,"x_min":69,"x_max":699,"o":"m 196 302 q 191 269 193 285 q 189 239 189 254 q 233 125 189 165 q 370 86 277 86 q 488 95 429 86 q 593 115 547 104 l 593 18 q 478 -4 542 5 q 350 -12 415 -12 q 138 52 206 -12 q 69 237 69 116 q 98 414 69 331 q 179 558 127 496 q 301 657 231 621 q 456 693 372 693 q 558 680 513 693 q 635 642 604 666 q 682 586 666 618 q 699 517 699 554 q 678 429 699 468 q 612 361 657 389 q 496 318 567 333 q 323 302 425 302 l 196 302 m 322 393 q 447 402 397 393 q 525 427 496 412 q 565 463 553 443 q 576 505 576 484 q 569 541 576 524 q 546 571 562 558 q 506 591 530 584 q 449 599 481 599 q 369 584 405 599 q 303 543 332 570 q 252 478 274 516 q 214 393 229 440 l 322 393 z "},"f":{"ha":764,"x_min":-71,"x_max":833,"o":"m 321 -12 q 281 -134 307 -83 q 215 -219 255 -185 q 121 -269 176 -252 q -5 -285 66 -285 q -38 -284 -19 -285 q -71 -282 -57 -283 l -52 -180 q 7 -184 -20 -184 q 136 -143 87 -184 q 201 -12 184 -102 l 301 484 l 82 484 l 102 582 l 321 582 l 343 694 q 449 898 370 829 q 669 966 528 966 q 748 962 705 966 q 833 950 791 958 l 812 850 q 735 863 774 859 q 657 868 696 868 q 528 825 576 868 q 463 694 480 781 l 440 582 l 739 582 l 720 484 l 421 484 l 321 -12 m 0 681 z "},"g":{"ha":764,"x_min":25,"x_max":721,"o":"m 461 -14 q 483 72 471 31 q 505 150 494 113 q 457 82 485 112 q 398 31 430 52 q 330 -1 366 10 q 254 -12 293 -12 q 169 4 205 -12 q 109 51 133 20 q 74 123 85 81 q 62 216 62 165 q 88 400 62 314 q 163 550 113 486 q 285 652 212 614 q 453 689 358 689 q 537 683 497 689 q 614 667 577 677 l 721 693 l 575 -36 q 542 -136 564 -91 q 480 -215 519 -182 q 385 -267 441 -248 q 255 -285 329 -285 q 117 -264 176 -285 q 25 -218 59 -243 l 85 -132 q 168 -174 123 -158 q 265 -191 212 -191 q 352 -176 318 -191 q 407 -137 386 -161 q 441 -81 429 -113 q 461 -14 453 -49 m 182 228 q 204 127 182 163 q 277 90 227 90 q 335 104 306 90 q 392 141 364 117 q 444 197 419 165 q 490 265 469 229 q 525 340 510 301 q 547 416 540 378 l 576 564 q 511 585 545 577 q 449 593 477 593 q 352 574 393 593 q 281 524 311 555 q 232 455 251 494 q 202 375 213 416 q 186 296 191 334 q 182 228 182 257 z "},"h":{"ha":764,"x_min":39,"x_max":699,"o":"m 586 0 l 468 0 l 555 435 q 553 554 572 517 q 479 591 534 591 q 393 562 436 591 q 313 484 350 532 q 248 376 275 436 q 208 257 220 317 l 157 0 l 39 0 l 231 958 l 349 958 l 293 681 l 256 536 q 301 601 275 572 q 359 650 328 629 q 427 682 391 671 q 501 693 463 693 q 654 628 609 693 q 673 436 699 563 l 586 0 z "},"i":{"ha":764,"x_min":114,"x_max":648,"o":"m 368 869 q 376 908 368 890 q 396 939 383 926 q 427 959 410 951 q 465 966 445 966 q 501 959 485 966 q 529 940 517 952 q 548 912 541 928 q 554 878 554 896 q 547 839 554 857 q 526 808 539 821 q 495 788 513 795 q 457 781 477 781 q 421 788 437 781 q 393 807 404 795 q 375 835 381 819 q 368 869 368 851 m 648 43 q 550 2 602 17 q 439 -12 498 -12 q 358 1 391 -12 q 308 44 326 15 q 289 120 291 74 q 300 232 287 166 l 346 460 q 354 525 354 498 q 347 566 353 551 q 327 588 340 582 q 296 595 313 595 q 205 577 250 595 q 114 533 160 559 l 114 637 q 213 678 161 663 q 323 693 264 693 q 404 680 372 693 q 454 636 437 666 q 473 561 471 607 q 463 449 475 515 l 416 221 q 409 156 409 182 q 416 115 409 130 q 436 93 423 99 q 467 86 449 86 q 557 104 513 86 q 648 147 602 122 l 648 43 z "},"j":{"ha":764,"x_min":-62,"x_max":671,"o":"m 170 633 q 293 677 230 661 q 431 693 355 693 q 525 679 488 693 q 580 635 562 665 q 601 560 599 606 q 590 452 603 515 l 500 1 q 454 -125 486 -72 q 379 -215 422 -179 q 284 -268 336 -250 q 175 -285 232 -285 q 100 -277 135 -285 q 36 -257 65 -270 q -18 -227 6 -244 q -62 -189 -43 -210 l 14 -113 q 87 -165 43 -145 q 182 -186 131 -186 q 310 -135 257 -186 q 386 29 363 -84 l 471 452 q 479 523 479 495 q 470 567 479 551 q 445 589 462 583 q 404 595 428 595 q 288 576 345 595 q 170 530 231 558 l 170 633 m 485 869 q 492 908 485 890 q 513 939 500 926 q 544 959 526 951 q 582 966 562 966 q 618 959 602 966 q 646 940 634 952 q 664 912 658 928 q 671 878 671 896 q 663 839 671 857 q 643 808 656 821 q 612 788 629 795 q 574 781 594 781 q 537 788 554 781 q 509 807 521 795 q 491 835 498 819 q 485 869 485 851 z "},"k":{"ha":764,"x_min":50,"x_max":693,"o":"m 642 0 l 493 0 l 262 351 q 411 372 351 357 q 508 408 471 387 q 559 456 544 429 q 575 513 575 483 q 570 543 575 529 q 554 568 565 557 q 528 585 544 578 q 490 591 512 591 q 404 562 447 591 q 324 484 361 532 q 259 376 287 436 q 220 257 232 317 l 168 0 l 50 0 l 241 958 l 359 958 l 304 681 l 267 536 q 312 601 286 572 q 370 650 338 629 q 438 682 402 671 q 513 693 474 693 q 590 681 556 693 q 646 645 623 668 q 681 590 669 622 q 693 519 693 558 q 670 430 693 469 q 609 363 646 391 q 526 317 572 335 q 433 292 479 300 l 642 0 z "},"l":{"ha":764,"x_min":167,"x_max":616,"o":"m 616 46 q 487 5 551 20 q 354 -9 422 -9 q 250 6 290 -9 q 189 57 209 22 q 168 151 168 93 q 183 292 167 208 l 318 958 l 439 958 l 306 292 q 291 193 294 231 q 295 132 288 154 q 320 100 302 109 q 368 92 338 92 q 480 106 418 92 q 616 151 541 120 l 616 46 z "},"m":{"ha":764,"x_min":-8,"x_max":751,"o":"m 525 0 l 621 476 q 631 536 628 513 q 632 572 633 559 q 627 590 631 585 q 615 595 623 595 q 584 579 602 595 q 546 538 566 564 q 507 478 526 512 q 470 409 487 445 q 439 337 452 372 q 421 271 427 301 l 367 0 l 258 0 l 354 476 q 364 536 361 513 q 366 572 367 559 q 360 590 365 585 q 349 595 356 595 q 317 579 335 595 q 279 538 299 564 q 240 478 260 512 q 203 409 220 445 q 173 337 186 372 q 154 271 160 301 l 100 0 l -8 0 l 65 368 q 71 402 68 381 q 78 459 74 423 q 89 548 83 494 q 103 681 95 602 l 204 681 l 187 524 q 227 589 206 558 q 269 643 247 619 q 316 680 291 666 q 370 693 341 693 q 427 680 404 693 q 460 643 450 666 q 469 589 471 620 q 454 524 468 558 q 493 589 473 558 q 535 643 513 619 q 583 680 557 666 q 636 693 608 693 q 727 642 704 693 q 729 482 751 591 l 633 0 l 525 0 z "},"n":{"ha":764,"x_min":39,"x_max":699,"o":"m 113 368 q 118 402 115 381 q 125 459 121 423 q 136 548 130 494 q 150 681 142 602 l 261 681 l 244 524 q 358 649 292 606 q 501 693 424 693 q 654 628 609 693 q 673 436 699 563 l 586 0 l 468 0 l 555 435 q 553 554 572 517 q 479 591 534 591 q 393 562 436 591 q 313 484 350 532 q 248 376 275 436 q 208 257 220 317 l 157 0 l 39 0 l 113 368 z "},"o":{"ha":764,"x_min":54,"x_max":707,"o":"m 313 -12 q 122 51 191 -12 q 54 239 54 113 q 66 350 54 295 q 101 456 78 406 q 158 550 124 507 q 236 625 192 593 q 333 675 280 657 q 449 693 387 693 q 558 677 510 693 q 638 630 606 661 q 689 551 671 598 q 707 441 707 504 q 695 331 707 386 q 660 225 683 275 q 603 131 637 174 q 525 56 569 87 q 428 6 481 24 q 313 -12 374 -12 m 586 429 q 547 552 586 511 q 435 593 509 593 q 357 578 393 593 q 292 538 321 564 q 241 479 263 513 q 204 408 219 446 q 182 330 190 370 q 175 252 175 290 q 214 129 175 170 q 326 87 252 87 q 405 102 369 87 q 469 142 440 117 q 520 201 498 168 q 556 273 542 235 q 578 351 571 311 q 586 429 586 391 z "},"p":{"ha":764,"x_min":-12,"x_max":699,"o":"m 309 -8 q 225 -4 259 -8 q 163 8 192 0 l 106 -278 l -12 -278 l 117 368 q 122 402 119 381 q 130 459 125 423 q 140 548 134 494 q 154 681 146 602 l 265 681 l 249 524 q 362 649 296 606 q 507 693 429 693 q 592 676 556 693 q 652 630 628 660 q 687 558 675 600 q 699 464 699 515 q 673 280 699 366 q 598 131 648 195 q 476 29 549 66 q 309 -8 403 -8 m 579 453 q 557 554 579 518 q 485 590 535 590 q 427 576 456 590 q 370 539 397 563 q 317 483 342 515 q 271 414 292 451 q 236 337 251 377 q 212 257 220 297 l 184 117 q 250 95 216 103 q 313 87 284 87 q 410 106 368 87 q 480 156 451 125 q 529 226 510 186 q 559 306 548 265 q 575 385 570 347 q 579 453 579 423 z "},"q":{"ha":764,"x_min":62,"x_max":721,"o":"m 721 693 l 526 -278 l 408 -278 l 461 -14 l 505 150 q 457 82 485 112 q 398 31 430 52 q 330 -1 366 10 q 254 -12 293 -12 q 169 4 205 -12 q 109 51 133 20 q 74 123 85 81 q 62 216 62 165 q 88 400 62 314 q 163 550 113 486 q 285 652 212 614 q 453 689 358 689 q 537 683 497 689 q 614 667 577 677 l 721 693 m 182 228 q 204 127 182 163 q 277 90 227 90 q 335 104 306 90 q 392 141 364 117 q 444 197 419 165 q 490 265 469 229 q 525 340 510 301 q 547 416 540 378 l 576 564 q 511 585 545 577 q 449 593 477 593 q 352 574 393 593 q 281 524 311 555 q 232 455 251 494 q 202 375 213 416 q 186 296 191 334 q 182 228 182 257 z "},"r":{"ha":764,"x_min":66,"x_max":741,"o":"m 140 368 q 146 402 143 381 q 153 459 149 423 q 163 548 157 494 q 178 681 170 602 l 289 681 l 272 524 q 323 589 296 558 q 385 643 351 620 q 457 680 418 666 q 543 693 496 693 q 698 623 655 693 q 711 421 741 553 l 591 421 q 602 500 602 468 q 592 553 602 533 q 565 582 583 573 q 522 591 547 591 q 427 562 473 591 q 343 485 381 532 q 277 377 304 437 q 237 257 250 317 l 186 0 l 66 0 l 140 368 z "},"s":{"ha":764,"x_min":68,"x_max":659,"o":"m 659 567 q 548 588 597 581 q 461 595 499 595 q 381 587 414 595 q 326 566 347 580 q 294 533 304 553 q 283 490 283 514 q 291 460 283 473 q 316 435 299 447 q 361 412 333 423 q 431 387 389 400 q 515 354 480 371 q 572 315 550 336 q 605 267 595 293 q 615 205 615 240 q 592 112 615 153 q 528 44 569 71 q 428 2 486 16 q 301 -12 370 -12 q 177 -7 236 -12 q 68 11 119 -1 l 68 126 q 189 97 129 106 q 309 87 250 87 q 449 115 405 87 q 493 199 493 142 q 486 226 493 214 q 463 250 479 239 q 418 273 447 261 q 346 297 390 284 q 272 325 305 309 q 214 361 238 340 q 176 411 189 382 q 163 478 163 440 q 181 563 163 524 q 238 631 199 602 q 334 676 276 660 q 472 693 393 693 q 514 692 491 693 q 561 687 536 690 q 610 680 585 684 q 659 671 635 676 l 659 567 z "},"t":{"ha":764,"x_min":90,"x_max":724,"o":"m 600 9 q 516 -5 557 -1 q 441 -9 474 -9 q 323 6 372 -9 q 245 54 274 21 q 210 140 217 87 q 218 268 203 193 l 281 582 l 90 582 l 110 681 l 300 681 l 338 868 l 463 899 l 418 681 l 724 681 l 704 582 l 399 582 l 335 264 q 328 184 326 217 q 344 130 330 151 q 385 100 358 109 q 454 90 412 90 q 517 95 479 90 q 600 111 555 100 l 600 9 z "},"u":{"ha":764,"x_min":62,"x_max":722,"o":"m 648 313 q 643 279 646 300 q 635 222 640 258 q 625 133 631 186 q 611 0 619 79 l 500 0 l 517 157 q 404 32 470 75 q 260 -12 338 -12 q 107 53 152 -12 q 87 244 62 118 l 175 681 l 293 681 l 205 245 q 208 126 189 163 q 282 89 227 89 q 340 102 311 89 q 396 140 369 116 q 449 196 424 164 q 494 266 473 229 q 530 343 515 303 q 553 424 545 384 l 604 681 l 722 681 l 648 313 z "},"v":{"ha":764,"x_min":111,"x_max":724,"o":"m 111 681 l 239 681 l 314 231 l 330 115 q 435 235 390 170 q 512 374 480 301 q 564 525 545 447 q 590 681 583 602 l 724 681 q 682 492 713 586 q 603 309 650 397 q 491 142 555 221 q 353 0 428 64 l 239 0 l 111 681 z "},"w":{"ha":764,"x_min":49,"x_max":781,"o":"m 781 681 q 756 495 774 591 q 706 308 737 399 q 631 137 674 217 q 533 0 588 58 l 433 0 l 389 285 l 383 354 l 346 281 l 193 0 l 49 0 l 94 681 l 208 681 l 168 218 l 158 115 l 205 205 l 368 511 l 453 511 l 501 210 l 514 119 q 575 237 549 172 q 620 374 602 302 q 649 525 638 447 q 664 681 660 603 l 781 681 z "},"x":{"ha":764,"x_min":-22,"x_max":778,"o":"m 653 0 l 501 0 l 370 260 l 136 0 l -22 0 l 310 342 l 126 681 l 272 681 l 399 419 l 627 681 l 778 681 l 454 339 l 653 0 z "},"y":{"ha":764,"x_min":-72,"x_max":717,"o":"m 488 136 q 378 -13 428 51 q 287 -124 329 -77 q 207 -201 244 -171 q 136 -250 170 -231 q 67 -275 101 -268 q -3 -282 33 -282 q -36 -281 -20 -282 q -72 -278 -52 -280 l -72 -171 q -34 -176 -54 -174 q 5 -178 -14 -178 q 67 -168 38 -178 q 124 -137 96 -159 q 183 -82 153 -116 q 249 0 214 -48 l 111 681 l 239 681 l 328 231 l 345 114 q 430 244 394 185 q 493 354 467 304 q 535 447 519 404 q 563 529 552 490 q 578 605 573 568 q 587 681 584 642 l 717 681 q 695 554 709 614 q 655 430 681 493 q 589 295 629 366 q 488 136 549 224 z "},"z":{"ha":764,"x_min":41,"x_max":704,"o":"m 590 0 l 41 0 l 58 85 l 539 582 l 168 582 l 187 681 l 704 681 l 686 589 l 214 100 l 610 100 l 590 0 z "},"à":{"ha":764,"x_min":0,"x_max":721,"o":"m 453 689 q 537 683 497 689 q 614 667 577 677 l 721 693 l 644 313 q 638 279 642 300 q 631 222 635 258 q 621 133 627 186 q 607 0 615 79 l 496 0 l 513 157 q 399 32 466 75 q 254 -12 332 -12 q 169 4 205 -12 q 109 51 133 20 q 74 123 85 81 q 62 216 62 165 q 88 400 62 314 q 163 550 113 486 q 285 652 212 614 q 453 689 358 689 m 182 228 q 204 127 182 163 q 277 90 227 90 q 335 104 306 90 q 392 141 364 117 q 445 197 420 165 q 490 266 469 229 q 526 343 511 303 q 549 424 541 384 l 576 564 q 511 585 545 577 q 449 593 477 593 q 352 574 393 593 q 281 524 311 555 q 232 455 251 494 q 202 375 213 416 q 186 296 191 334 q 182 228 182 257 m 541 794 l 422 794 l 214 958 l 385 958 l 541 794 m 0 681 z "},"á":{"ha":764,"x_min":0,"x_max":749,"o":"m 453 689 q 537 683 497 689 q 614 667 577 677 l 721 693 l 644 313 q 638 279 642 300 q 631 222 635 258 q 621 133 627 186 q 607 0 615 79 l 496 0 l 513 157 q 399 32 466 75 q 254 -12 332 -12 q 169 4 205 -12 q 109 51 133 20 q 74 123 85 81 q 62 216 62 165 q 88 400 62 314 q 163 550 113 486 q 285 652 212 614 q 453 689 358 689 m 182 228 q 204 127 182 163 q 277 90 227 90 q 335 104 306 90 q 392 141 364 117 q 445 197 420 165 q 490 266 469 229 q 526 343 511 303 q 549 424 541 384 l 576 564 q 511 585 545 577 q 449 593 477 593 q 352 574 393 593 q 281 524 311 555 q 232 455 251 494 q 202 375 213 416 q 186 296 191 334 q 182 228 182 257 m 749 958 l 524 794 l 406 794 l 578 958 l 749 958 m 0 681 z "},"â":{"ha":764,"x_min":0,"x_max":721,"o":"m 453 689 q 537 683 497 689 q 614 667 577 677 l 721 693 l 644 313 q 638 279 642 300 q 631 222 635 258 q 621 133 627 186 q 607 0 615 79 l 496 0 l 513 157 q 399 32 466 75 q 254 -12 332 -12 q 169 4 205 -12 q 109 51 133 20 q 74 123 85 81 q 62 216 62 165 q 88 400 62 314 q 163 550 113 486 q 285 652 212 614 q 453 689 358 689 m 182 228 q 204 127 182 163 q 277 90 227 90 q 335 104 306 90 q 392 141 364 117 q 445 197 420 165 q 490 266 469 229 q 526 343 511 303 q 549 424 541 384 l 576 564 q 511 585 545 577 q 449 593 477 593 q 352 574 393 593 q 281 524 311 555 q 232 455 251 494 q 202 375 213 416 q 186 296 191 334 q 182 228 182 257 m 553 958 l 685 794 l 570 794 l 490 876 l 378 794 l 257 794 l 456 958 l 553 958 m 0 681 z "},"ã":{"ha":764,"x_min":0,"x_max":741,"o":"m 453 689 q 537 683 497 689 q 614 667 577 677 l 721 693 l 644 313 q 638 279 642 300 q 631 222 635 258 q 621 133 627 186 q 607 0 615 79 l 496 0 l 513 157 q 399 32 466 75 q 254 -12 332 -12 q 169 4 205 -12 q 109 51 133 20 q 74 123 85 81 q 62 216 62 165 q 88 400 62 314 q 163 550 113 486 q 285 652 212 614 q 453 689 358 689 m 182 228 q 204 127 182 163 q 277 90 227 90 q 335 104 306 90 q 392 141 364 117 q 445 197 420 165 q 490 266 469 229 q 526 343 511 303 q 549 424 541 384 l 576 564 q 511 585 545 577 q 449 593 477 593 q 352 574 393 593 q 281 524 311 555 q 232 455 251 494 q 202 375 213 416 q 186 296 191 334 q 182 228 182 257 m 248 860 q 401 958 308 958 q 467 947 441 958 q 514 922 494 935 q 552 897 534 908 q 593 885 570 885 q 642 904 621 885 q 684 951 664 922 l 741 893 q 585 794 677 794 q 519 806 545 794 q 473 831 493 817 q 434 857 452 845 q 393 868 416 868 q 344 849 366 868 q 302 802 322 831 l 248 860 m 0 681 z "},"ä":{"ha":764,"x_min":0,"x_max":721,"o":"m 453 689 q 537 683 497 689 q 614 667 577 677 l 721 693 l 644 313 q 638 279 642 300 q 631 222 635 258 q 621 133 627 186 q 607 0 615 79 l 496 0 l 513 157 q 399 32 466 75 q 254 -12 332 -12 q 169 4 205 -12 q 109 51 133 20 q 74 123 85 81 q 62 216 62 165 q 88 400 62 314 q 163 550 113 486 q 285 652 212 614 q 453 689 358 689 m 182 228 q 204 127 182 163 q 277 90 227 90 q 335 104 306 90 q 392 141 364 117 q 445 197 420 165 q 490 266 469 229 q 526 343 511 303 q 549 424 541 384 l 576 564 q 511 585 545 577 q 449 593 477 593 q 352 574 393 593 q 281 524 311 555 q 232 455 251 494 q 202 375 213 416 q 186 296 191 334 q 182 228 182 257 m 345 953 q 397 931 377 953 q 418 880 418 910 q 411 848 418 863 q 394 823 405 833 q 368 806 382 812 q 338 800 354 800 q 308 806 321 800 q 285 822 295 812 q 270 845 275 831 q 265 872 265 858 q 272 905 265 890 q 289 930 278 920 q 314 947 299 941 q 345 953 328 953 m 636 953 q 666 947 652 953 q 689 931 680 941 q 705 908 699 922 q 710 880 710 895 q 704 848 710 863 q 686 823 697 833 q 660 806 675 812 q 629 800 646 800 q 600 806 613 800 q 577 822 587 812 q 562 845 567 831 q 557 872 557 858 q 563 905 557 890 q 580 930 570 920 q 605 947 591 941 q 636 953 620 953 m 0 681 z "},"ā":{"ha":764,"x_min":0,"x_max":721,"o":"m 453 689 q 537 683 497 689 q 614 667 577 677 l 721 693 l 644 313 q 638 279 642 300 q 631 222 635 258 q 621 133 627 186 q 607 0 615 79 l 496 0 l 513 157 q 399 32 466 75 q 254 -12 332 -12 q 169 4 205 -12 q 109 51 133 20 q 74 123 85 81 q 62 216 62 165 q 88 400 62 314 q 163 550 113 486 q 285 652 212 614 q 453 689 358 689 m 182 228 q 204 127 182 163 q 277 90 227 90 q 335 104 306 90 q 392 141 364 117 q 445 197 420 165 q 490 266 469 229 q 526 343 511 303 q 549 424 541 384 l 576 564 q 511 585 545 577 q 449 593 477 593 q 352 574 393 593 q 281 524 311 555 q 232 455 251 494 q 202 375 213 416 q 186 296 191 334 q 182 228 182 257 m 656 831 l 300 831 l 318 921 l 673 921 l 656 831 m 0 681 z "},"ă":{"ha":764,"x_min":0,"x_max":721,"o":"m 453 689 q 537 683 497 689 q 614 667 577 677 l 721 693 l 644 313 q 638 279 642 300 q 631 222 635 258 q 621 133 627 186 q 607 0 615 79 l 496 0 l 513 157 q 399 32 466 75 q 254 -12 332 -12 q 169 4 205 -12 q 109 51 133 20 q 74 123 85 81 q 62 216 62 165 q 88 400 62 314 q 163 550 113 486 q 285 652 212 614 q 453 689 358 689 m 182 228 q 204 127 182 163 q 277 90 227 90 q 335 104 306 90 q 392 141 364 117 q 445 197 420 165 q 490 266 469 229 q 526 343 511 303 q 549 424 541 384 l 576 564 q 511 585 545 577 q 449 593 477 593 q 352 574 393 593 q 281 524 311 555 q 232 455 251 494 q 202 375 213 416 q 186 296 191 334 q 182 228 182 257 m 669 958 q 643 886 661 917 q 600 835 625 855 q 543 804 574 814 q 476 794 511 794 q 413 804 442 794 q 363 835 383 814 q 334 886 342 855 q 334 958 326 917 l 425 958 q 431 903 418 924 q 482 882 444 882 q 545 903 519 882 q 578 958 570 924 l 669 958 m 0 681 z "},"å":{"ha":764,"x_min":0,"x_max":721,"o":"m 453 689 q 537 683 497 689 q 614 667 577 677 l 721 693 l 644 313 q 638 279 642 300 q 631 222 635 258 q 621 133 627 186 q 607 0 615 79 l 496 0 l 513 157 q 399 32 466 75 q 254 -12 332 -12 q 169 4 205 -12 q 109 51 133 20 q 74 123 85 81 q 62 216 62 165 q 88 400 62 314 q 163 550 113 486 q 285 652 212 614 q 453 689 358 689 m 182 228 q 204 127 182 163 q 277 90 227 90 q 335 104 306 90 q 392 141 364 117 q 445 197 420 165 q 490 266 469 229 q 526 343 511 303 q 549 424 541 384 l 576 564 q 511 585 545 577 q 449 593 477 593 q 352 574 393 593 q 281 524 311 555 q 232 455 251 494 q 202 375 213 416 q 186 296 191 334 q 182 228 182 257 m 494 1018 q 551 1007 525 1018 q 594 979 576 997 q 623 937 612 961 q 633 886 633 913 q 620 826 633 854 q 587 779 608 799 q 539 749 567 760 q 482 738 512 738 q 426 748 452 738 q 381 777 400 759 q 352 818 363 794 q 342 869 342 842 q 354 929 342 902 q 388 977 367 957 q 436 1007 409 996 q 494 1018 464 1018 m 490 946 q 463 941 476 946 q 440 925 450 935 q 425 902 431 916 q 419 873 419 889 q 438 829 419 848 q 486 810 456 810 q 535 830 515 810 q 555 882 555 850 q 551 906 555 895 q 537 926 546 918 q 517 941 529 935 q 490 946 505 946 m 0 681 z "},"ǻ":{"ha":764,"x_min":0,"x_max":769,"o":"m 453 689 q 537 683 497 689 q 614 667 577 677 l 721 693 l 644 313 q 638 279 642 300 q 631 222 635 258 q 621 133 627 186 q 607 0 615 79 l 496 0 l 513 157 q 399 32 466 75 q 254 -12 332 -12 q 169 4 205 -12 q 109 51 133 20 q 74 123 85 81 q 62 216 62 165 q 88 400 62 314 q 163 550 113 486 q 285 652 212 614 q 453 689 358 689 m 182 228 q 204 127 182 163 q 277 90 227 90 q 335 104 306 90 q 392 141 364 117 q 445 197 420 165 q 490 266 469 229 q 526 343 511 303 q 549 424 541 384 l 576 564 q 511 585 545 577 q 449 593 477 593 q 352 574 393 593 q 281 524 311 555 q 232 455 251 494 q 202 375 213 416 q 186 296 191 334 q 182 228 182 257 m 494 1018 q 551 1007 525 1018 q 594 979 576 997 q 623 937 612 961 q 633 886 633 913 q 620 826 633 854 q 587 779 608 799 q 539 749 567 760 q 482 738 512 738 q 426 748 452 738 q 381 777 400 759 q 352 818 363 794 q 342 869 342 842 q 354 929 342 902 q 388 977 367 957 q 436 1007 409 996 q 494 1018 464 1018 m 490 946 q 463 941 476 946 q 440 925 450 935 q 425 902 431 916 q 419 873 419 889 q 438 829 419 848 q 486 810 456 810 q 535 830 515 810 q 555 882 555 850 q 551 906 555 895 q 537 926 546 918 q 517 941 529 935 q 490 946 505 946 m 0 681 m 769 1203 l 569 1059 l 448 1059 l 598 1203 l 769 1203 m 7 964 z "},"ą":{"ha":764,"x_min":62,"x_max":721,"o":"m 600 -254 q 562 -259 583 -258 q 524 -261 541 -261 q 461 -253 487 -261 q 418 -232 435 -245 q 393 -201 401 -219 q 385 -164 385 -184 q 390 -130 385 -147 q 406 -94 394 -113 q 439 -51 418 -74 q 496 0 460 -28 l 513 157 q 399 32 466 75 q 254 -12 332 -12 q 169 4 205 -12 q 109 51 133 20 q 74 123 85 81 q 62 216 62 165 q 88 400 62 314 q 163 550 113 486 q 285 652 212 614 q 453 689 358 689 q 537 683 497 689 q 614 667 577 677 l 721 693 l 644 313 q 638 279 642 300 q 631 222 635 258 q 621 133 627 186 q 607 0 615 79 q 552 -51 573 -29 q 519 -89 531 -72 q 503 -119 507 -105 q 499 -146 499 -132 q 510 -170 499 -159 q 553 -180 522 -180 q 575 -180 562 -180 q 600 -178 589 -179 l 600 -254 m 182 228 q 204 127 182 163 q 277 90 227 90 q 335 104 306 90 q 392 141 364 117 q 445 197 420 165 q 490 266 469 229 q 526 343 511 303 q 549 424 541 384 l 576 564 q 511 585 545 577 q 449 593 477 593 q 352 574 393 593 q 281 524 311 555 q 232 455 251 494 q 202 375 213 416 q 186 296 191 334 q 182 228 182 257 z "},"æ":{"ha":764,"x_min":-17,"x_max":766,"o":"m 286 693 q 388 674 347 693 q 439 611 429 654 q 510 671 467 649 q 599 693 553 693 q 677 678 646 693 q 729 639 709 663 q 757 584 749 614 q 765 521 766 553 q 748 438 765 477 q 697 372 731 400 q 613 327 663 343 q 496 310 562 310 l 427 310 q 414 204 414 250 q 438 114 414 144 q 517 83 462 83 q 590 91 555 83 q 656 111 625 99 l 656 17 q 576 -4 621 3 q 488 -12 530 -12 q 378 18 422 -12 q 319 106 334 48 q 241 18 289 49 q 140 -12 193 -12 q 24 26 66 -12 q -17 134 -17 64 q -14 179 -17 153 q 0 236 -10 206 q 28 294 9 265 q 77 346 47 323 q 151 383 107 369 q 256 397 195 397 l 339 397 l 350 454 q 355 484 353 470 q 357 511 357 498 q 336 576 357 553 q 267 598 315 598 q 191 585 228 598 q 107 549 153 572 l 107 650 q 146 666 125 658 q 192 680 168 673 q 240 689 216 686 q 286 693 264 693 m 241 310 q 168 291 196 310 q 123 247 139 273 q 101 194 107 222 q 96 150 96 167 q 99 125 96 138 q 110 104 102 113 q 130 89 117 94 q 163 83 143 83 q 207 97 184 83 q 251 137 231 112 q 289 196 272 162 q 314 269 306 230 l 322 310 l 241 310 m 586 598 q 539 583 561 598 q 498 541 517 568 q 466 477 480 514 q 443 397 452 440 l 510 397 q 566 406 540 397 q 612 429 593 414 q 643 466 632 444 q 654 517 654 488 q 650 549 654 534 q 637 575 646 564 q 616 592 629 586 q 586 598 603 598 z "},"ǽ":{"ha":764,"x_min":-17,"x_max":766,"o":"m 286 693 q 388 674 347 693 q 439 611 429 654 q 510 671 467 649 q 599 693 553 693 q 677 678 646 693 q 729 639 709 663 q 757 584 749 614 q 765 521 766 553 q 748 438 765 477 q 697 372 731 400 q 613 327 663 343 q 496 310 562 310 l 427 310 q 414 204 414 250 q 438 114 414 144 q 517 83 462 83 q 590 91 555 83 q 656 111 625 99 l 656 17 q 576 -4 621 3 q 488 -12 530 -12 q 378 18 422 -12 q 319 106 334 48 q 241 18 289 49 q 140 -12 193 -12 q 24 26 66 -12 q -17 134 -17 64 q -14 179 -17 153 q 0 236 -10 206 q 28 294 9 265 q 77 346 47 323 q 151 383 107 369 q 256 397 195 397 l 339 397 l 350 454 q 355 484 353 470 q 357 511 357 498 q 336 576 357 553 q 267 598 315 598 q 191 585 228 598 q 107 549 153 572 l 107 650 q 146 666 125 658 q 192 680 168 673 q 240 689 216 686 q 286 693 264 693 m 241 310 q 168 291 196 310 q 123 247 139 273 q 101 194 107 222 q 96 150 96 167 q 99 125 96 138 q 110 104 102 113 q 130 89 117 94 q 163 83 143 83 q 207 97 184 83 q 251 137 231 112 q 289 196 272 162 q 314 269 306 230 l 322 310 l 241 310 m 586 598 q 539 583 561 598 q 498 541 517 568 q 466 477 480 514 q 443 397 452 440 l 510 397 q 566 406 540 397 q 612 429 593 414 q 643 466 632 444 q 654 517 654 488 q 650 549 654 534 q 637 575 646 564 q 616 592 629 586 q 586 598 603 598 m 749 958 l 524 794 l 406 794 l 578 958 l 749 958 m 0 681 z "},"ć":{"ha":764,"x_min":0,"x_max":749,"o":"m 583 28 q 477 -1 526 8 q 378 -9 429 -9 q 169 53 242 -9 q 96 241 96 116 q 128 428 96 345 q 217 569 161 511 q 349 659 273 627 q 509 690 424 690 q 607 683 557 690 q 700 659 656 675 l 679 551 q 594 579 642 569 q 503 590 547 590 q 381 562 434 590 q 293 486 329 533 q 238 379 257 439 q 220 256 220 319 q 264 132 220 173 q 396 90 309 90 q 490 100 441 90 q 583 127 539 109 l 583 28 m 749 958 l 524 794 l 406 794 l 578 958 l 749 958 m 0 681 z "},"ĉ":{"ha":764,"x_min":0,"x_max":700,"o":"m 583 28 q 477 -1 526 8 q 378 -9 429 -9 q 169 53 242 -9 q 96 241 96 116 q 128 428 96 345 q 217 569 161 511 q 349 659 273 627 q 509 690 424 690 q 607 683 557 690 q 700 659 656 675 l 679 551 q 594 579 642 569 q 503 590 547 590 q 381 562 434 590 q 293 486 329 533 q 238 379 257 439 q 220 256 220 319 q 264 132 220 173 q 396 90 309 90 q 490 100 441 90 q 583 127 539 109 l 583 28 m 553 958 l 685 794 l 570 794 l 490 876 l 378 794 l 257 794 l 456 958 l 553 958 m 0 681 z "},"č":{"ha":764,"x_min":0,"x_max":718,"o":"m 583 28 q 477 -1 526 8 q 378 -9 429 -9 q 169 53 242 -9 q 96 241 96 116 q 128 428 96 345 q 217 569 161 511 q 349 659 273 627 q 509 690 424 690 q 607 683 557 690 q 700 659 656 675 l 679 551 q 594 579 642 569 q 503 590 547 590 q 381 562 434 590 q 293 486 329 533 q 238 379 257 439 q 220 256 220 319 q 264 132 220 173 q 396 90 309 90 q 490 100 441 90 q 583 127 539 109 l 583 28 m 422 794 l 290 958 l 406 958 l 485 876 l 597 958 l 718 958 l 519 794 l 422 794 m 0 681 z "},"ċ":{"ha":764,"x_min":0,"x_max":700,"o":"m 583 28 q 477 -1 526 8 q 378 -9 429 -9 q 169 53 242 -9 q 96 241 96 116 q 128 428 96 345 q 217 569 161 511 q 349 659 273 627 q 509 690 424 690 q 607 683 557 690 q 700 659 656 675 l 679 551 q 594 579 642 569 q 503 590 547 590 q 381 562 434 590 q 293 486 329 533 q 238 379 257 439 q 220 256 220 319 q 264 132 220 173 q 396 90 309 90 q 490 100 441 90 q 583 127 539 109 l 583 28 m 396 868 q 404 906 396 889 q 424 937 411 924 q 454 957 437 949 q 490 964 471 964 q 525 957 509 964 q 553 938 541 949 q 570 911 564 926 q 576 879 576 896 q 569 840 576 858 q 549 810 562 823 q 519 790 536 798 q 484 783 503 783 q 448 790 464 783 q 420 808 432 797 q 402 835 409 820 q 396 868 396 850 m 0 681 z "},"ç":{"ha":764,"x_min":96,"x_max":700,"o":"m 393 -9 l 300 -200 l 197 -200 l 281 0 q 143 81 190 20 q 96 241 96 141 q 128 428 96 345 q 217 569 161 511 q 349 659 273 627 q 509 690 424 690 q 607 683 557 690 q 700 659 656 675 l 679 551 q 594 579 642 569 q 503 590 547 590 q 381 562 434 590 q 293 486 329 533 q 238 379 257 439 q 220 256 220 319 q 264 132 220 173 q 396 90 309 90 q 490 100 441 90 q 583 127 539 109 l 583 28 q 483 0 528 9 q 393 -9 437 -8 z "},"ď":{"ha":764,"x_min":-1,"x_max":951,"o":"m 414 689 q 497 685 463 689 q 560 672 530 681 l 617 958 l 735 958 l 606 313 q 600 279 603 300 q 593 222 597 258 q 583 133 589 186 q 568 0 576 79 l 457 0 l 474 157 q 360 32 427 75 q 216 -12 294 -12 q 131 4 167 -12 q 71 51 94 20 q 35 123 47 81 q 24 216 24 165 q 49 400 24 314 q 124 550 75 486 q 247 652 174 614 q 414 689 319 689 m 143 228 q 165 127 143 163 q 238 90 188 90 q 296 104 267 90 q 353 141 326 117 q 406 197 381 165 q 451 266 431 229 q 487 343 472 303 q 510 424 502 384 l 538 564 q 472 585 506 577 q 410 593 439 593 q 313 574 355 593 q 242 524 272 555 q 193 455 212 494 q 163 375 174 416 q 148 296 152 334 q 143 228 143 257 m 951 994 l 856 794 l 757 794 l 836 994 l 951 994 m -1 681 z "},"ð":{"ha":764,"x_min":56,"x_max":722,"o":"m 534 578 q 484 586 507 584 q 441 589 461 589 q 348 570 388 589 q 278 523 307 552 q 229 456 248 493 q 198 381 210 418 q 181 310 186 344 q 176 253 176 276 q 187 181 176 212 q 216 130 197 151 q 262 98 235 109 q 322 87 290 87 q 401 102 366 87 q 463 142 436 117 q 510 200 490 167 q 542 269 529 233 q 560 343 554 306 q 566 415 566 380 q 558 494 566 455 q 534 578 550 534 m 489 685 q 468 728 479 705 q 443 775 456 751 l 250 734 l 250 833 l 395 861 l 339 958 l 475 958 l 515 888 l 722 929 l 722 831 l 564 799 q 614 695 592 745 q 652 598 637 646 q 676 506 668 551 q 685 414 685 460 q 675 315 685 366 q 646 217 666 264 q 595 128 626 170 q 522 55 564 86 q 427 6 480 24 q 307 -12 373 -12 q 200 5 247 -12 q 121 55 153 22 q 73 135 90 87 q 56 241 56 182 q 67 348 56 294 q 101 452 79 402 q 157 544 124 501 q 233 619 190 587 q 328 669 276 651 q 441 688 380 688 q 450 687 444 688 q 463 687 456 687 q 478 686 471 686 q 489 685 485 686 z "},"đ":{"ha":764,"x_min":56,"x_max":868,"o":"m 428 869 l 624 869 l 642 958 l 760 958 l 742 869 l 868 869 l 848 771 l 722 771 l 631 313 q 625 279 628 300 q 617 222 622 258 q 607 133 613 186 q 593 0 601 79 l 482 0 l 498 157 q 388 32 452 75 q 248 -12 325 -12 q 162 4 199 -12 q 102 51 126 20 q 67 123 79 81 q 56 216 56 165 q 81 400 56 314 q 156 550 106 486 q 278 652 205 614 q 446 689 351 689 q 489 688 470 689 q 525 685 509 687 q 556 680 541 683 q 585 672 570 676 l 604 771 l 408 771 l 428 869 m 175 228 q 197 126 175 163 q 269 90 219 90 q 325 104 297 90 q 380 141 353 117 q 431 197 407 165 q 476 266 456 229 q 511 343 496 303 q 534 424 526 384 l 562 564 q 500 585 531 577 q 441 593 470 593 q 345 574 386 593 q 274 524 303 555 q 225 455 244 494 q 195 375 206 416 q 179 296 184 334 q 175 228 175 257 z "},"è":{"ha":764,"x_min":0,"x_max":699,"o":"m 196 302 q 191 269 193 285 q 189 239 189 254 q 233 125 189 165 q 370 86 277 86 q 488 95 429 86 q 593 115 547 104 l 593 18 q 478 -4 542 5 q 350 -12 415 -12 q 138 52 206 -12 q 69 237 69 116 q 98 414 69 331 q 179 558 127 496 q 301 657 231 621 q 456 693 372 693 q 558 680 513 693 q 635 642 604 666 q 682 586 666 618 q 699 517 699 554 q 678 429 699 468 q 612 361 657 389 q 496 318 567 333 q 323 302 425 302 l 196 302 m 322 393 q 447 402 397 393 q 525 427 496 412 q 565 463 553 443 q 576 505 576 484 q 569 541 576 524 q 546 571 562 558 q 506 591 530 584 q 449 599 481 599 q 369 584 405 599 q 303 543 332 570 q 252 478 274 516 q 214 393 229 440 l 322 393 m 541 794 l 422 794 l 214 958 l 385 958 l 541 794 m 0 681 z "},"é":{"ha":764,"x_min":0,"x_max":749,"o":"m 196 302 q 191 269 193 285 q 189 239 189 254 q 233 125 189 165 q 370 86 277 86 q 488 95 429 86 q 593 115 547 104 l 593 18 q 478 -4 542 5 q 350 -12 415 -12 q 138 52 206 -12 q 69 237 69 116 q 98 414 69 331 q 179 558 127 496 q 301 657 231 621 q 456 693 372 693 q 558 680 513 693 q 635 642 604 666 q 682 586 666 618 q 699 517 699 554 q 678 429 699 468 q 612 361 657 389 q 496 318 567 333 q 323 302 425 302 l 196 302 m 322 393 q 447 402 397 393 q 525 427 496 412 q 565 463 553 443 q 576 505 576 484 q 569 541 576 524 q 546 571 562 558 q 506 591 530 584 q 449 599 481 599 q 369 584 405 599 q 303 543 332 570 q 252 478 274 516 q 214 393 229 440 l 322 393 m 749 958 l 524 794 l 406 794 l 578 958 l 749 958 m 0 681 z "},"ê":{"ha":764,"x_min":0,"x_max":699,"o":"m 196 302 q 191 269 193 285 q 189 239 189 254 q 233 125 189 165 q 370 86 277 86 q 488 95 429 86 q 593 115 547 104 l 593 18 q 478 -4 542 5 q 350 -12 415 -12 q 138 52 206 -12 q 69 237 69 116 q 98 414 69 331 q 179 558 127 496 q 301 657 231 621 q 456 693 372 693 q 558 680 513 693 q 635 642 604 666 q 682 586 666 618 q 699 517 699 554 q 678 429 699 468 q 612 361 657 389 q 496 318 567 333 q 323 302 425 302 l 196 302 m 322 393 q 447 402 397 393 q 525 427 496 412 q 565 463 553 443 q 576 505 576 484 q 569 541 576 524 q 546 571 562 558 q 506 591 530 584 q 449 599 481 599 q 369 584 405 599 q 303 543 332 570 q 252 478 274 516 q 214 393 229 440 l 322 393 m 553 958 l 685 794 l 570 794 l 490 876 l 378 794 l 257 794 l 456 958 l 553 958 m 0 681 z "},"ě":{"ha":764,"x_min":0,"x_max":718,"o":"m 196 302 q 191 269 193 285 q 189 239 189 254 q 233 125 189 165 q 370 86 277 86 q 488 95 429 86 q 593 115 547 104 l 593 18 q 478 -4 542 5 q 350 -12 415 -12 q 138 52 206 -12 q 69 237 69 116 q 98 414 69 331 q 179 558 127 496 q 301 657 231 621 q 456 693 372 693 q 558 680 513 693 q 635 642 604 666 q 682 586 666 618 q 699 517 699 554 q 678 429 699 468 q 612 361 657 389 q 496 318 567 333 q 323 302 425 302 l 196 302 m 322 393 q 447 402 397 393 q 525 427 496 412 q 565 463 553 443 q 576 505 576 484 q 569 541 576 524 q 546 571 562 558 q 506 591 530 584 q 449 599 481 599 q 369 584 405 599 q 303 543 332 570 q 252 478 274 516 q 214 393 229 440 l 322 393 m 422 794 l 290 958 l 406 958 l 485 876 l 597 958 l 718 958 l 519 794 l 422 794 m 0 681 z "},"ë":{"ha":764,"x_min":0,"x_max":710,"o":"m 196 302 q 191 269 193 285 q 189 239 189 254 q 233 125 189 165 q 370 86 277 86 q 488 95 429 86 q 593 115 547 104 l 593 18 q 478 -4 542 5 q 350 -12 415 -12 q 138 52 206 -12 q 69 237 69 116 q 98 414 69 331 q 179 558 127 496 q 301 657 231 621 q 456 693 372 693 q 558 680 513 693 q 635 642 604 666 q 682 586 666 618 q 699 517 699 554 q 678 429 699 468 q 612 361 657 389 q 496 318 567 333 q 323 302 425 302 l 196 302 m 322 393 q 447 402 397 393 q 525 427 496 412 q 565 463 553 443 q 576 505 576 484 q 569 541 576 524 q 546 571 562 558 q 506 591 530 584 q 449 599 481 599 q 369 584 405 599 q 303 543 332 570 q 252 478 274 516 q 214 393 229 440 l 322 393 m 345 953 q 397 931 377 953 q 418 880 418 910 q 411 848 418 863 q 394 823 405 833 q 368 806 382 812 q 338 800 354 800 q 308 806 321 800 q 285 822 295 812 q 270 845 275 831 q 265 872 265 858 q 272 905 265 890 q 289 930 278 920 q 314 947 299 941 q 345 953 328 953 m 636 953 q 666 947 652 953 q 689 931 680 941 q 705 908 699 922 q 710 880 710 895 q 704 848 710 863 q 686 823 697 833 q 660 806 675 812 q 629 800 646 800 q 600 806 613 800 q 577 822 587 812 q 562 845 567 831 q 557 872 557 858 q 563 905 557 890 q 580 930 570 920 q 605 947 591 941 q 636 953 620 953 m 0 681 z "},"ē":{"ha":764,"x_min":0,"x_max":699,"o":"m 196 302 q 191 269 193 285 q 189 239 189 254 q 233 125 189 165 q 370 86 277 86 q 488 95 429 86 q 593 115 547 104 l 593 18 q 478 -4 542 5 q 350 -12 415 -12 q 138 52 206 -12 q 69 237 69 116 q 98 414 69 331 q 179 558 127 496 q 301 657 231 621 q 456 693 372 693 q 558 680 513 693 q 635 642 604 666 q 682 586 666 618 q 699 517 699 554 q 678 429 699 468 q 612 361 657 389 q 496 318 567 333 q 323 302 425 302 l 196 302 m 322 393 q 447 402 397 393 q 525 427 496 412 q 565 463 553 443 q 576 505 576 484 q 569 541 576 524 q 546 571 562 558 q 506 591 530 584 q 449 599 481 599 q 369 584 405 599 q 303 543 332 570 q 252 478 274 516 q 214 393 229 440 l 322 393 m 656 831 l 300 831 l 318 921 l 673 921 l 656 831 m 0 681 z "},"ĕ":{"ha":764,"x_min":0,"x_max":699,"o":"m 196 302 q 191 269 193 285 q 189 239 189 254 q 233 125 189 165 q 370 86 277 86 q 488 95 429 86 q 593 115 547 104 l 593 18 q 478 -4 542 5 q 350 -12 415 -12 q 138 52 206 -12 q 69 237 69 116 q 98 414 69 331 q 179 558 127 496 q 301 657 231 621 q 456 693 372 693 q 558 680 513 693 q 635 642 604 666 q 682 586 666 618 q 699 517 699 554 q 678 429 699 468 q 612 361 657 389 q 496 318 567 333 q 323 302 425 302 l 196 302 m 322 393 q 447 402 397 393 q 525 427 496 412 q 565 463 553 443 q 576 505 576 484 q 569 541 576 524 q 546 571 562 558 q 506 591 530 584 q 449 599 481 599 q 369 584 405 599 q 303 543 332 570 q 252 478 274 516 q 214 393 229 440 l 322 393 m 669 958 q 643 886 661 917 q 600 835 625 855 q 543 804 574 814 q 476 794 511 794 q 413 804 442 794 q 363 835 383 814 q 334 886 342 855 q 334 958 326 917 l 425 958 q 431 903 418 924 q 482 882 444 882 q 545 903 519 882 q 578 958 570 924 l 669 958 m 0 681 z "},"ė":{"ha":764,"x_min":-12,"x_max":699,"o":"m 196 302 q 191 269 193 285 q 189 239 189 254 q 233 125 189 165 q 370 86 277 86 q 488 95 429 86 q 593 115 547 104 l 593 18 q 478 -4 542 5 q 350 -12 415 -12 q 138 52 206 -12 q 69 237 69 116 q 98 414 69 331 q 179 558 127 496 q 301 657 231 621 q 456 693 372 693 q 558 680 513 693 q 635 642 604 666 q 682 586 666 618 q 699 517 699 554 q 678 429 699 468 q 612 361 657 389 q 496 318 567 333 q 323 302 425 302 l 196 302 m 322 393 q 447 402 397 393 q 525 427 496 412 q 565 463 553 443 q 576 505 576 484 q 569 541 576 524 q 546 571 562 558 q 506 591 530 584 q 449 599 481 599 q 369 584 405 599 q 303 543 332 570 q 252 478 274 516 q 214 393 229 440 l 322 393 m 384 868 q 391 906 384 889 q 412 937 399 924 q 441 957 425 949 q 478 964 458 964 q 513 957 497 964 q 541 938 529 949 q 558 911 552 926 q 564 879 564 896 q 557 840 564 858 q 537 810 549 823 q 507 790 524 798 q 471 783 490 783 q 436 790 452 783 q 408 808 420 797 q 390 835 397 820 q 384 868 384 850 m -12 681 z "},"ę":{"ha":764,"x_min":69,"x_max":699,"o":"m 498 -254 q 460 -259 481 -258 q 422 -261 439 -261 q 359 -253 386 -261 q 316 -232 333 -245 q 292 -201 300 -219 q 283 -164 283 -184 q 287 -132 283 -148 q 302 -98 291 -116 q 331 -58 313 -79 q 379 -12 349 -37 q 365 -12 372 -12 q 350 -12 357 -12 q 138 52 206 -12 q 69 237 69 116 q 98 414 69 331 q 179 558 127 496 q 301 657 231 621 q 456 693 372 693 q 558 680 513 693 q 635 642 604 666 q 682 586 666 618 q 699 517 699 554 q 678 429 699 468 q 612 361 657 389 q 496 318 567 333 q 323 302 425 302 l 196 302 q 191 269 193 285 q 189 239 189 254 q 233 125 189 165 q 370 86 277 86 q 488 95 429 86 q 593 115 547 104 l 593 18 q 551 8 573 13 q 505 0 529 3 q 450 -51 471 -29 q 417 -89 429 -72 q 401 -119 406 -105 q 397 -146 397 -132 q 409 -170 397 -159 q 452 -180 420 -180 q 474 -180 461 -180 q 498 -178 487 -179 l 498 -254 m 322 393 q 447 402 397 393 q 525 427 496 412 q 565 463 553 443 q 576 505 576 484 q 569 541 576 524 q 546 571 562 558 q 506 591 530 584 q 449 599 481 599 q 369 584 405 599 q 303 543 332 570 q 252 478 274 516 q 214 393 229 440 l 322 393 z "},"ﬁ":{"ha":764,"x_min":-14,"x_max":750,"o":"m 201 0 q 164 -139 188 -70 q 106 -278 140 -208 l -14 -278 q 46 -138 22 -208 q 83 0 70 -69 l 186 514 l 65 514 l 85 612 l 205 612 l 224 701 q 337 901 251 836 q 575 966 423 966 q 615 965 593 966 q 660 961 637 964 q 707 954 684 958 q 750 945 730 949 l 729 843 q 646 861 690 854 q 561 868 602 868 q 414 823 470 868 q 340 694 357 779 l 323 612 l 705 612 l 583 0 l 465 0 l 568 514 l 304 514 l 201 0 m 0 681 z "},"ﬂ":{"ha":764,"x_min":-14,"x_max":772,"o":"m 201 0 q 164 -139 188 -70 q 106 -278 140 -208 l -14 -278 q 46 -138 22 -208 q 83 0 70 -69 l 186 514 l 65 514 l 85 612 l 205 612 l 224 701 q 337 901 251 836 q 572 966 423 966 q 669 962 616 966 q 772 946 721 958 l 583 0 l 465 0 l 637 865 q 598 870 618 869 q 557 871 578 871 q 411 825 465 871 q 340 694 357 779 l 323 612 l 468 612 l 449 514 l 304 514 l 201 0 m 0 681 z "},"ĝ":{"ha":764,"x_min":0,"x_max":721,"o":"m 461 -14 q 483 72 471 31 q 505 150 494 113 q 457 82 485 112 q 398 31 430 52 q 330 -1 366 10 q 254 -12 293 -12 q 169 4 205 -12 q 109 51 133 20 q 74 123 85 81 q 62 216 62 165 q 88 400 62 314 q 163 550 113 486 q 285 652 212 614 q 453 689 358 689 q 537 683 497 689 q 614 667 577 677 l 721 693 l 575 -36 q 542 -136 564 -91 q 480 -215 519 -182 q 385 -267 441 -248 q 255 -285 329 -285 q 117 -264 176 -285 q 25 -218 59 -243 l 85 -132 q 168 -174 123 -158 q 265 -191 212 -191 q 352 -176 318 -191 q 407 -137 386 -161 q 441 -81 429 -113 q 461 -14 453 -49 m 182 228 q 204 127 182 163 q 277 90 227 90 q 335 104 306 90 q 392 141 364 117 q 444 197 419 165 q 490 265 469 229 q 525 340 510 301 q 547 416 540 378 l 576 564 q 511 585 545 577 q 449 593 477 593 q 352 574 393 593 q 281 524 311 555 q 232 455 251 494 q 202 375 213 416 q 186 296 191 334 q 182 228 182 257 m 553 958 l 685 794 l 570 794 l 490 876 l 378 794 l 257 794 l 456 958 l 553 958 m 0 681 z "},"ğ":{"ha":764,"x_min":0,"x_max":721,"o":"m 461 -14 q 483 72 471 31 q 505 150 494 113 q 457 82 485 112 q 398 31 430 52 q 330 -1 366 10 q 254 -12 293 -12 q 169 4 205 -12 q 109 51 133 20 q 74 123 85 81 q 62 216 62 165 q 88 400 62 314 q 163 550 113 486 q 285 652 212 614 q 453 689 358 689 q 537 683 497 689 q 614 667 577 677 l 721 693 l 575 -36 q 542 -136 564 -91 q 480 -215 519 -182 q 385 -267 441 -248 q 255 -285 329 -285 q 117 -264 176 -285 q 25 -218 59 -243 l 85 -132 q 168 -174 123 -158 q 265 -191 212 -191 q 352 -176 318 -191 q 407 -137 386 -161 q 441 -81 429 -113 q 461 -14 453 -49 m 182 228 q 204 127 182 163 q 277 90 227 90 q 335 104 306 90 q 392 141 364 117 q 444 197 419 165 q 490 265 469 229 q 525 340 510 301 q 547 416 540 378 l 576 564 q 511 585 545 577 q 449 593 477 593 q 352 574 393 593 q 281 524 311 555 q 232 455 251 494 q 202 375 213 416 q 186 296 191 334 q 182 228 182 257 m 669 958 q 643 886 661 917 q 600 835 625 855 q 543 804 574 814 q 476 794 511 794 q 413 804 442 794 q 363 835 383 814 q 334 886 342 855 q 334 958 326 917 l 425 958 q 431 903 418 924 q 482 882 444 882 q 545 903 519 882 q 578 958 570 924 l 669 958 m 0 681 z "},"ġ":{"ha":764,"x_min":0,"x_max":721,"o":"m 461 -14 q 483 72 471 31 q 505 150 494 113 q 457 82 485 112 q 398 31 430 52 q 330 -1 366 10 q 254 -12 293 -12 q 169 4 205 -12 q 109 51 133 20 q 74 123 85 81 q 62 216 62 165 q 88 400 62 314 q 163 550 113 486 q 285 652 212 614 q 453 689 358 689 q 537 683 497 689 q 614 667 577 677 l 721 693 l 575 -36 q 542 -136 564 -91 q 480 -215 519 -182 q 385 -267 441 -248 q 255 -285 329 -285 q 117 -264 176 -285 q 25 -218 59 -243 l 85 -132 q 168 -174 123 -158 q 265 -191 212 -191 q 352 -176 318 -191 q 407 -137 386 -161 q 441 -81 429 -113 q 461 -14 453 -49 m 182 228 q 204 127 182 163 q 277 90 227 90 q 335 104 306 90 q 392 141 364 117 q 444 197 419 165 q 490 265 469 229 q 525 340 510 301 q 547 416 540 378 l 576 564 q 511 585 545 577 q 449 593 477 593 q 352 574 393 593 q 281 524 311 555 q 232 455 251 494 q 202 375 213 416 q 186 296 191 334 q 182 228 182 257 m 396 868 q 404 906 396 889 q 424 937 411 924 q 454 957 437 949 q 490 964 471 964 q 525 957 509 964 q 553 938 541 949 q 570 911 564 926 q 576 879 576 896 q 569 840 576 858 q 549 810 562 823 q 519 790 536 798 q 484 783 503 783 q 448 790 464 783 q 420 808 432 797 q 402 835 409 820 q 396 868 396 850 m 0 681 z "},"ģ":{"ha":764,"x_min":0,"x_max":721,"o":"m 461 -14 q 483 72 471 31 q 505 150 494 113 q 457 82 485 112 q 398 31 430 52 q 330 -1 366 10 q 254 -12 293 -12 q 169 4 205 -12 q 109 51 133 20 q 74 123 85 81 q 62 216 62 165 q 88 400 62 314 q 163 550 113 486 q 285 652 212 614 q 453 689 358 689 q 537 683 497 689 q 614 667 577 677 l 721 693 l 575 -36 q 542 -136 564 -91 q 480 -215 519 -182 q 385 -267 441 -248 q 255 -285 329 -285 q 117 -264 176 -285 q 25 -218 59 -243 l 85 -132 q 168 -174 123 -158 q 265 -191 212 -191 q 352 -176 318 -191 q 407 -137 386 -161 q 441 -81 429 -113 q 461 -14 453 -49 m 182 228 q 204 127 182 163 q 277 90 227 90 q 335 104 306 90 q 392 141 364 117 q 444 197 419 165 q 490 265 469 229 q 525 340 510 301 q 547 416 540 378 l 576 564 q 511 585 545 577 q 449 593 477 593 q 352 574 393 593 q 281 524 311 555 q 232 455 251 494 q 202 375 213 416 q 186 296 191 334 q 182 228 182 257 m 404 794 l 518 994 l 616 994 l 519 794 l 404 794 m 0 681 z "},"ĥ":{"ha":764,"x_min":0,"x_max":722,"o":"m 586 0 l 468 0 l 555 435 q 553 554 572 517 q 479 591 534 591 q 393 562 436 591 q 313 484 350 532 q 248 376 275 436 q 208 257 220 317 l 157 0 l 39 0 l 231 958 l 349 958 l 293 681 l 256 536 q 301 601 275 572 q 359 650 328 629 q 427 682 391 671 q 501 693 463 693 q 654 628 609 693 q 673 436 699 563 l 586 0 m 722 1008 l 603 1008 l 525 1078 l 419 1008 l 294 1008 l 481 1153 l 595 1153 l 722 1008 m 0 914 z "},"ħ":{"ha":764,"x_min":0,"x_max":692,"o":"m 586 0 l 468 0 l 549 401 q 546 519 565 481 q 473 558 526 558 q 386 529 429 558 q 306 451 343 499 q 241 343 269 403 q 201 224 214 283 l 157 0 l 39 0 l 193 772 l 85 772 l 104 868 l 212 868 l 231 958 l 349 958 l 330 868 l 545 868 l 525 772 l 311 772 l 286 647 l 249 503 q 294 567 268 538 q 352 617 321 596 q 420 649 384 637 q 494 660 456 660 q 647 593 602 660 q 667 400 692 527 l 586 0 m 0 681 z "},"ì":{"ha":764,"x_min":-40,"x_max":648,"o":"m 648 43 q 550 2 602 17 q 439 -12 498 -12 q 358 1 391 -12 q 308 44 326 15 q 289 120 291 74 q 300 232 287 166 l 346 460 q 354 525 354 498 q 347 566 353 551 q 327 588 340 582 q 296 595 313 595 q 205 577 250 595 q 114 533 160 559 l 114 637 q 213 678 161 663 q 323 693 264 693 q 404 680 372 693 q 454 636 437 666 q 473 561 471 607 q 463 449 475 515 l 416 221 q 409 156 409 182 q 416 115 409 130 q 436 93 423 99 q 467 86 449 86 q 557 104 513 86 q 648 147 602 122 l 648 43 m 500 794 l 382 794 l 174 958 l 345 958 l 500 794 m -40 681 z "},"í":{"ha":764,"x_min":-26,"x_max":722,"o":"m 648 43 q 550 2 602 17 q 439 -12 498 -12 q 358 1 391 -12 q 308 44 326 15 q 289 120 291 74 q 300 232 287 166 l 346 460 q 354 525 354 498 q 347 566 353 551 q 327 588 340 582 q 296 595 313 595 q 205 577 250 595 q 114 533 160 559 l 114 637 q 213 678 161 663 q 323 693 264 693 q 404 680 372 693 q 454 636 437 666 q 473 561 471 607 q 463 449 475 515 l 416 221 q 409 156 409 182 q 416 115 409 130 q 436 93 423 99 q 467 86 449 86 q 557 104 513 86 q 648 147 602 122 l 648 43 m 722 958 l 497 794 l 379 794 l 551 958 l 722 958 m -26 681 z "},"î":{"ha":764,"x_min":-12,"x_max":673,"o":"m 648 43 q 550 2 602 17 q 439 -12 498 -12 q 358 1 391 -12 q 308 44 326 15 q 289 120 291 74 q 300 232 287 166 l 346 460 q 354 525 354 498 q 347 566 353 551 q 327 588 340 582 q 296 595 313 595 q 205 577 250 595 q 114 533 160 559 l 114 637 q 213 678 161 663 q 323 693 264 693 q 404 680 372 693 q 454 636 437 666 q 473 561 471 607 q 463 449 475 515 l 416 221 q 409 156 409 182 q 416 115 409 130 q 436 93 423 99 q 467 86 449 86 q 557 104 513 86 q 648 147 602 122 l 648 43 m 541 958 l 673 794 l 557 794 l 478 876 l 366 794 l 245 794 l 444 958 l 541 958 m -12 681 z "},"ĩ":{"ha":764,"x_min":-12,"x_max":728,"o":"m 648 43 q 550 2 602 17 q 439 -12 498 -12 q 358 1 391 -12 q 308 44 326 15 q 289 120 291 74 q 300 232 287 166 l 346 460 q 354 525 354 498 q 347 566 353 551 q 327 588 340 582 q 296 595 313 595 q 205 577 250 595 q 114 533 160 559 l 114 637 q 213 678 161 663 q 323 693 264 693 q 404 680 372 693 q 454 636 437 666 q 473 561 471 607 q 463 449 475 515 l 416 221 q 409 156 409 182 q 416 115 409 130 q 436 93 423 99 q 467 86 449 86 q 557 104 513 86 q 648 147 602 122 l 648 43 m 235 860 q 389 958 296 958 q 455 947 429 958 q 502 922 481 935 q 540 897 522 908 q 581 885 557 885 q 630 904 608 885 q 671 951 652 922 l 728 893 q 572 794 665 794 q 507 806 533 794 q 460 831 481 817 q 422 857 440 845 q 381 868 404 868 q 332 849 353 868 q 290 802 310 831 l 235 860 m -12 681 z "},"ï":{"ha":764,"x_min":-12,"x_max":698,"o":"m 648 43 q 550 2 602 17 q 439 -12 498 -12 q 358 1 391 -12 q 308 44 326 15 q 289 120 291 74 q 300 232 287 166 l 346 460 q 354 525 354 498 q 347 566 353 551 q 327 588 340 582 q 296 595 313 595 q 205 577 250 595 q 114 533 160 559 l 114 637 q 213 678 161 663 q 323 693 264 693 q 404 680 372 693 q 454 636 437 666 q 473 561 471 607 q 463 449 475 515 l 416 221 q 409 156 409 182 q 416 115 409 130 q 436 93 423 99 q 467 86 449 86 q 557 104 513 86 q 648 147 602 122 l 648 43 m 332 953 q 385 931 365 953 q 406 880 406 910 q 399 848 406 863 q 381 823 393 833 q 356 806 370 812 q 326 800 342 800 q 296 806 309 800 q 273 822 283 812 q 258 845 263 831 q 253 872 253 858 q 259 905 253 890 q 276 930 266 920 q 301 947 287 941 q 332 953 316 953 m 624 953 q 654 947 640 953 q 677 931 667 941 q 692 908 687 922 q 698 880 698 895 q 691 848 698 863 q 674 823 685 833 q 648 806 663 812 q 617 800 633 800 q 588 806 601 800 q 565 822 574 812 q 550 845 555 831 q 545 872 545 858 q 551 905 545 890 q 568 930 557 920 q 593 947 578 941 q 624 953 608 953 m -12 681 z "},"ī":{"ha":764,"x_min":-12,"x_max":661,"o":"m 648 43 q 550 2 602 17 q 439 -12 498 -12 q 358 1 391 -12 q 308 44 326 15 q 289 120 291 74 q 300 232 287 166 l 346 460 q 354 525 354 498 q 347 566 353 551 q 327 588 340 582 q 296 595 313 595 q 205 577 250 595 q 114 533 160 559 l 114 637 q 213 678 161 663 q 323 693 264 693 q 404 680 372 693 q 454 636 437 666 q 473 561 471 607 q 463 449 475 515 l 416 221 q 409 156 409 182 q 416 115 409 130 q 436 93 423 99 q 467 86 449 86 q 557 104 513 86 q 648 147 602 122 l 648 43 m 644 831 l 288 831 l 306 921 l 661 921 l 644 831 m -12 681 z "},"ĭ":{"ha":764,"x_min":-12,"x_max":657,"o":"m 648 43 q 550 2 602 17 q 439 -12 498 -12 q 358 1 391 -12 q 308 44 326 15 q 289 120 291 74 q 300 232 287 166 l 346 460 q 354 525 354 498 q 347 566 353 551 q 327 588 340 582 q 296 595 313 595 q 205 577 250 595 q 114 533 160 559 l 114 637 q 213 678 161 663 q 323 693 264 693 q 404 680 372 693 q 454 636 437 666 q 473 561 471 607 q 463 449 475 515 l 416 221 q 409 156 409 182 q 416 115 409 130 q 436 93 423 99 q 467 86 449 86 q 557 104 513 86 q 648 147 602 122 l 648 43 m 657 958 q 631 886 649 917 q 588 835 613 855 q 531 804 562 814 q 464 794 499 794 q 400 804 430 794 q 351 835 371 814 q 322 886 330 855 q 321 958 313 917 l 413 958 q 419 903 406 924 q 470 882 432 882 q 533 903 507 882 q 566 958 558 924 l 657 958 m -12 681 z "},"į":{"ha":764,"x_min":114,"x_max":648,"o":"m 532 -254 q 495 -259 516 -258 q 456 -261 473 -261 q 393 -253 420 -261 q 350 -232 367 -245 q 326 -201 334 -219 q 317 -164 317 -184 q 321 -132 317 -148 q 336 -97 326 -115 q 365 -58 347 -79 q 414 -11 384 -37 q 346 8 373 -7 q 304 53 318 23 q 289 126 290 82 q 300 232 288 171 l 346 460 q 354 525 354 498 q 347 566 353 551 q 327 588 340 582 q 296 595 313 595 q 205 577 250 595 q 114 533 160 559 l 114 637 q 213 678 161 663 q 323 693 264 693 q 404 680 372 693 q 454 636 437 666 q 473 561 471 607 q 463 449 475 515 l 416 221 q 409 156 409 182 q 416 115 409 130 q 436 93 423 99 q 467 86 449 86 q 557 104 513 86 q 648 147 602 122 l 648 43 q 595 18 623 28 q 539 0 568 7 q 484 -51 505 -29 q 452 -89 463 -72 q 436 -119 440 -105 q 431 -146 431 -132 q 443 -170 431 -159 q 486 -180 454 -180 q 508 -180 495 -180 q 532 -178 521 -179 l 532 -254 m 368 869 q 376 908 368 890 q 396 939 383 926 q 427 959 410 951 q 465 966 445 966 q 501 959 485 966 q 529 940 517 952 q 548 912 541 928 q 554 878 554 896 q 547 839 554 857 q 526 808 539 821 q 495 788 513 795 q 457 781 477 781 q 421 788 437 781 q 393 807 404 795 q 375 835 381 819 q 368 869 368 851 z "},"ı":{"ha":764,"x_min":114,"x_max":648,"o":"m 648 43 q 550 2 602 17 q 439 -12 498 -12 q 358 1 391 -12 q 308 44 326 15 q 289 120 291 74 q 300 232 287 166 l 346 460 q 354 525 354 498 q 347 566 353 551 q 327 588 340 582 q 296 595 313 595 q 205 577 250 595 q 114 533 160 559 l 114 637 q 213 678 161 663 q 323 693 264 693 q 404 680 372 693 q 454 636 437 666 q 473 561 471 607 q 463 449 475 515 l 416 221 q 409 156 409 182 q 416 115 409 130 q 436 93 423 99 q 467 86 449 86 q 557 104 513 86 q 648 147 602 122 l 648 43 z "},"ĳ":{"ha":764,"x_min":39,"x_max":791,"o":"m 151 -143 q 208 -172 176 -161 q 272 -183 239 -183 q 398 -134 345 -183 q 471 16 451 -85 l 604 681 l 722 681 l 586 5 q 543 -122 572 -68 q 473 -213 514 -177 q 381 -267 433 -250 q 268 -285 329 -285 q 171 -272 212 -285 q 94 -236 130 -259 l 151 -143 m 293 681 l 157 0 l 39 0 l 175 681 l 293 681 m 177 869 q 184 908 177 890 q 205 939 192 926 q 235 959 218 951 q 273 966 253 966 q 310 959 293 966 q 338 940 326 952 q 356 912 350 928 q 363 878 363 896 q 355 839 363 857 q 334 808 347 821 q 303 788 321 795 q 265 781 286 781 q 229 788 245 781 q 201 807 212 795 q 183 835 190 819 q 177 869 177 851 m 606 869 q 613 908 606 890 q 634 939 621 926 q 665 959 647 951 q 703 966 682 966 q 739 959 722 966 q 767 940 755 952 q 785 912 779 928 q 791 878 791 896 q 784 839 791 857 q 763 808 777 821 q 732 788 750 795 q 694 781 715 781 q 658 788 675 781 q 630 807 642 795 q 612 835 618 819 q 606 869 606 851 z "},"ȷ":{"ha":764,"x_min":-62,"x_max":603,"o":"m 170 633 q 293 677 230 661 q 431 693 355 693 q 525 679 488 693 q 580 635 562 665 q 601 560 599 606 q 590 452 603 515 l 500 1 q 454 -125 486 -72 q 379 -215 422 -179 q 284 -268 336 -250 q 175 -285 232 -285 q 100 -277 135 -285 q 36 -257 65 -270 q -18 -227 6 -244 q -62 -189 -43 -210 l 14 -113 q 87 -165 43 -145 q 182 -186 131 -186 q 310 -135 257 -186 q 386 29 363 -84 l 471 452 q 479 523 479 495 q 470 567 479 551 q 445 589 462 583 q 404 595 428 595 q 288 576 345 595 q 170 530 231 558 l 170 633 z "},"ĵ":{"ha":764,"x_min":-62,"x_max":685,"o":"m 553 958 l 685 794 l 570 794 l 490 876 l 378 794 l 257 794 l 456 958 l 553 958 m 0 681 m 170 633 q 293 677 230 661 q 431 693 355 693 q 525 679 488 693 q 580 635 562 665 q 601 560 599 606 q 590 452 603 515 l 500 1 q 454 -125 486 -72 q 379 -215 422 -179 q 284 -268 336 -250 q 175 -285 232 -285 q 100 -277 135 -285 q 36 -257 65 -270 q -18 -227 6 -244 q -62 -189 -43 -210 l 14 -113 q 87 -165 43 -145 q 182 -186 131 -186 q 310 -135 257 -186 q 386 29 363 -84 l 471 452 q 479 523 479 495 q 470 567 479 551 q 445 589 462 583 q 404 595 428 595 q 288 576 345 595 q 170 530 231 558 l 170 633 z "},"ķ":{"ha":764,"x_min":50,"x_max":693,"o":"m 642 0 l 493 0 l 262 351 q 411 372 351 357 q 508 408 471 387 q 559 456 544 429 q 575 513 575 483 q 570 543 575 529 q 554 568 565 557 q 528 585 544 578 q 490 591 512 591 q 404 562 447 591 q 324 484 361 532 q 259 376 287 436 q 220 257 232 317 l 168 0 l 50 0 l 241 958 l 359 958 l 304 681 l 267 536 q 312 601 286 572 q 370 650 338 629 q 438 682 402 671 q 513 693 474 693 q 590 681 556 693 q 646 645 623 668 q 681 590 669 622 q 693 519 693 558 q 670 430 693 469 q 609 363 646 391 q 526 317 572 335 q 433 292 479 300 l 642 0 m 367 -78 l 267 -278 l 167 -278 l 252 -78 l 367 -78 z "},"ĸ":{"ha":764,"x_min":54,"x_max":777,"o":"m 646 0 l 495 0 l 247 374 l 172 0 l 54 0 l 190 681 l 308 681 l 248 378 l 607 681 l 777 681 l 387 362 l 646 0 z "},"ĺ":{"ha":764,"x_min":60,"x_max":822,"o":"m 616 46 q 487 5 551 20 q 354 -9 422 -9 q 250 6 290 -9 q 189 57 209 22 q 168 151 168 93 q 183 292 167 208 l 318 958 l 439 958 l 306 292 q 291 193 294 231 q 295 132 288 154 q 320 100 302 109 q 368 92 338 92 q 480 106 418 92 q 616 151 541 120 l 616 46 m 822 1197 l 622 1053 l 501 1053 l 651 1197 l 822 1197 m 60 958 z "},"ľ":{"ha":764,"x_min":-193,"x_max":760,"o":"m 616 46 q 487 5 551 20 q 354 -9 422 -9 q 250 6 290 -9 q 189 57 209 22 q 168 151 168 93 q 183 292 167 208 l 318 958 l 439 958 l 306 292 q 291 193 294 231 q 295 132 288 154 q 320 100 302 109 q 368 92 338 92 q 480 106 418 92 q 616 151 541 120 l 616 46 m 760 994 l 664 794 l 565 794 l 644 994 l 760 994 m -193 681 z "},"ļ":{"ha":764,"x_min":167,"x_max":616,"o":"m 616 46 q 487 5 551 20 q 354 -9 422 -9 q 250 6 290 -9 q 189 57 209 22 q 168 151 168 93 q 183 292 167 208 l 318 958 l 439 958 l 306 292 q 291 193 294 231 q 295 132 288 154 q 320 100 302 109 q 368 92 338 92 q 480 106 418 92 q 616 151 541 120 l 616 46 m 367 -78 l 267 -278 l 167 -278 l 252 -78 l 367 -78 z "},"ł":{"ha":764,"x_min":53,"x_max":616,"o":"m 53 456 l 233 538 l 318 958 l 439 958 l 367 600 l 612 713 l 612 612 l 345 490 l 306 292 q 291 193 294 231 q 295 132 288 154 q 320 100 302 109 q 368 92 338 92 q 480 106 418 92 q 616 151 541 120 l 616 46 q 487 5 551 20 q 354 -9 422 -9 q 250 6 290 -9 q 189 57 209 22 q 168 151 168 93 q 183 292 167 208 l 211 428 l 53 355 l 53 456 z "},"ŀ":{"ha":764,"x_min":113,"x_max":762,"o":"m 562 46 q 432 5 497 20 q 300 -9 368 -9 q 195 6 236 -9 q 134 57 155 22 q 113 151 114 93 q 129 292 113 208 l 264 958 l 385 958 l 252 292 q 236 193 239 231 q 241 132 233 154 q 266 100 248 109 q 314 92 284 92 q 426 106 364 92 q 562 151 487 120 l 562 46 m 654 484 q 698 475 678 484 q 732 451 718 466 q 754 415 747 435 q 762 374 762 395 q 753 328 762 349 q 727 291 743 307 q 690 266 711 275 q 646 257 669 257 q 602 266 622 257 q 568 290 583 275 q 545 325 553 305 q 537 366 537 344 q 547 412 537 391 q 572 449 556 433 q 610 474 589 465 q 654 484 631 484 z "},"ń":{"ha":764,"x_min":0,"x_max":749,"o":"m 113 368 q 118 402 115 381 q 125 459 121 423 q 136 548 130 494 q 150 681 142 602 l 261 681 l 244 524 q 358 649 292 606 q 501 693 424 693 q 654 628 609 693 q 673 436 699 563 l 586 0 l 468 0 l 555 435 q 553 554 572 517 q 479 591 534 591 q 393 562 436 591 q 313 484 350 532 q 248 376 275 436 q 208 257 220 317 l 157 0 l 39 0 l 113 368 m 749 958 l 524 794 l 406 794 l 578 958 l 749 958 m 0 681 z "},"ň":{"ha":764,"x_min":0,"x_max":718,"o":"m 113 368 q 118 402 115 381 q 125 459 121 423 q 136 548 130 494 q 150 681 142 602 l 261 681 l 244 524 q 358 649 292 606 q 501 693 424 693 q 654 628 609 693 q 673 436 699 563 l 586 0 l 468 0 l 555 435 q 553 554 572 517 q 479 591 534 591 q 393 562 436 591 q 313 484 350 532 q 248 376 275 436 q 208 257 220 317 l 157 0 l 39 0 l 113 368 m 422 794 l 290 958 l 406 958 l 485 876 l 597 958 l 718 958 l 519 794 l 422 794 m 0 681 z "},"ñ":{"ha":764,"x_min":0,"x_max":741,"o":"m 113 368 q 118 402 115 381 q 125 459 121 423 q 136 548 130 494 q 150 681 142 602 l 261 681 l 244 524 q 358 649 292 606 q 501 693 424 693 q 654 628 609 693 q 673 436 699 563 l 586 0 l 468 0 l 555 435 q 553 554 572 517 q 479 591 534 591 q 393 562 436 591 q 313 484 350 532 q 248 376 275 436 q 208 257 220 317 l 157 0 l 39 0 l 113 368 m 248 860 q 401 958 308 958 q 467 947 441 958 q 514 922 494 935 q 552 897 534 908 q 593 885 570 885 q 642 904 621 885 q 684 951 664 922 l 741 893 q 585 794 677 794 q 519 806 545 794 q 473 831 493 817 q 434 857 452 845 q 393 868 416 868 q 344 849 366 868 q 302 802 322 831 l 248 860 m 0 681 z "},"ņ":{"ha":764,"x_min":39,"x_max":699,"o":"m 113 368 q 118 402 115 381 q 125 459 121 423 q 136 548 130 494 q 150 681 142 602 l 261 681 l 244 524 q 358 649 292 606 q 501 693 424 693 q 654 628 609 693 q 673 436 699 563 l 586 0 l 468 0 l 555 435 q 553 554 572 517 q 479 591 534 591 q 393 562 436 591 q 313 484 350 532 q 248 376 275 436 q 208 257 220 317 l 157 0 l 39 0 l 113 368 m 367 -78 l 267 -278 l 167 -278 l 252 -78 l 367 -78 z "},"ŉ":{"ha":764,"x_min":0,"x_max":713,"o":"m 126 368 q 132 402 129 381 q 139 459 135 423 q 149 548 143 494 q 163 681 155 602 l 275 681 l 258 524 q 371 649 305 606 q 515 693 437 693 q 668 628 623 693 q 687 436 713 563 l 600 0 l 481 0 l 569 435 q 567 554 586 517 q 493 591 547 591 q 407 562 450 591 q 326 484 363 532 q 261 376 289 436 q 222 257 234 317 l 170 0 l 52 0 l 126 368 m 75 798 q 124 805 102 798 q 161 826 146 813 q 186 856 177 839 q 195 892 195 873 q 190 917 195 907 q 179 936 185 927 q 169 955 174 945 q 164 981 164 965 q 169 1006 164 993 q 182 1031 173 1020 q 207 1050 192 1042 q 241 1057 221 1057 q 298 1035 275 1057 q 321 968 321 1013 q 299 866 321 912 q 241 788 277 821 q 158 738 205 755 q 60 720 111 720 l 75 798 m 0 681 z "},"ŋ":{"ha":764,"x_min":39,"x_max":699,"o":"m 586 5 q 470 -213 556 -140 q 254 -285 385 -285 l 277 -183 q 401 -132 350 -183 q 471 16 452 -80 l 555 435 q 553 554 572 517 q 479 591 534 591 q 393 562 436 591 q 313 484 350 532 q 248 376 275 436 q 208 257 220 317 l 157 0 l 39 0 l 113 368 q 118 402 115 381 q 125 459 121 423 q 136 548 130 494 q 150 681 142 602 l 261 681 l 244 524 q 358 649 292 606 q 501 693 424 693 q 654 628 609 693 q 673 436 699 563 l 586 5 z "},"ò":{"ha":764,"x_min":-12,"x_max":707,"o":"m 313 -12 q 122 51 191 -12 q 54 239 54 113 q 66 350 54 295 q 101 456 78 406 q 158 550 124 507 q 236 625 192 593 q 333 675 280 657 q 449 693 387 693 q 558 677 510 693 q 638 630 606 661 q 689 551 671 598 q 707 441 707 504 q 695 331 707 386 q 660 225 683 275 q 603 131 637 174 q 525 56 569 87 q 428 6 481 24 q 313 -12 374 -12 m 586 429 q 547 552 586 511 q 435 593 509 593 q 357 578 393 593 q 292 538 321 564 q 241 479 263 513 q 204 408 219 446 q 182 330 190 370 q 175 252 175 290 q 214 129 175 170 q 326 87 252 87 q 405 102 369 87 q 469 142 440 117 q 520 201 498 168 q 556 273 542 235 q 578 351 571 311 q 586 429 586 391 m 528 794 l 410 794 l 201 958 l 372 958 l 528 794 m -12 681 z "},"ó":{"ha":764,"x_min":0,"x_max":749,"o":"m 313 -12 q 122 51 191 -12 q 54 239 54 113 q 66 350 54 295 q 101 456 78 406 q 158 550 124 507 q 236 625 192 593 q 333 675 280 657 q 449 693 387 693 q 558 677 510 693 q 638 630 606 661 q 689 551 671 598 q 707 441 707 504 q 695 331 707 386 q 660 225 683 275 q 603 131 637 174 q 525 56 569 87 q 428 6 481 24 q 313 -12 374 -12 m 586 429 q 547 552 586 511 q 435 593 509 593 q 357 578 393 593 q 292 538 321 564 q 241 479 263 513 q 204 408 219 446 q 182 330 190 370 q 175 252 175 290 q 214 129 175 170 q 326 87 252 87 q 405 102 369 87 q 469 142 440 117 q 520 201 498 168 q 556 273 542 235 q 578 351 571 311 q 586 429 586 391 m 749 958 l 524 794 l 406 794 l 578 958 l 749 958 m 0 681 z "},"ô":{"ha":764,"x_min":0,"x_max":707,"o":"m 313 -12 q 122 51 191 -12 q 54 239 54 113 q 66 350 54 295 q 101 456 78 406 q 158 550 124 507 q 236 625 192 593 q 333 675 280 657 q 449 693 387 693 q 558 677 510 693 q 638 630 606 661 q 689 551 671 598 q 707 441 707 504 q 695 331 707 386 q 660 225 683 275 q 603 131 637 174 q 525 56 569 87 q 428 6 481 24 q 313 -12 374 -12 m 586 429 q 547 552 586 511 q 435 593 509 593 q 357 578 393 593 q 292 538 321 564 q 241 479 263 513 q 204 408 219 446 q 182 330 190 370 q 175 252 175 290 q 214 129 175 170 q 326 87 252 87 q 405 102 369 87 q 469 142 440 117 q 520 201 498 168 q 556 273 542 235 q 578 351 571 311 q 586 429 586 391 m 553 958 l 685 794 l 570 794 l 490 876 l 378 794 l 257 794 l 456 958 l 553 958 m 0 681 z "},"õ":{"ha":764,"x_min":0,"x_max":741,"o":"m 313 -12 q 122 51 191 -12 q 54 239 54 113 q 66 350 54 295 q 101 456 78 406 q 158 550 124 507 q 236 625 192 593 q 333 675 280 657 q 449 693 387 693 q 558 677 510 693 q 638 630 606 661 q 689 551 671 598 q 707 441 707 504 q 695 331 707 386 q 660 225 683 275 q 603 131 637 174 q 525 56 569 87 q 428 6 481 24 q 313 -12 374 -12 m 586 429 q 547 552 586 511 q 435 593 509 593 q 357 578 393 593 q 292 538 321 564 q 241 479 263 513 q 204 408 219 446 q 182 330 190 370 q 175 252 175 290 q 214 129 175 170 q 326 87 252 87 q 405 102 369 87 q 469 142 440 117 q 520 201 498 168 q 556 273 542 235 q 578 351 571 311 q 586 429 586 391 m 248 860 q 401 958 308 958 q 467 947 441 958 q 514 922 494 935 q 552 897 534 908 q 593 885 570 885 q 642 904 621 885 q 684 951 664 922 l 741 893 q 585 794 677 794 q 519 806 545 794 q 473 831 493 817 q 434 857 452 845 q 393 868 416 868 q 344 849 366 868 q 302 802 322 831 l 248 860 m 0 681 z "},"ö":{"ha":764,"x_min":0,"x_max":710,"o":"m 313 -12 q 122 51 191 -12 q 54 239 54 113 q 66 350 54 295 q 101 456 78 406 q 158 550 124 507 q 236 625 192 593 q 333 675 280 657 q 449 693 387 693 q 558 677 510 693 q 638 630 606 661 q 689 551 671 598 q 707 441 707 504 q 695 331 707 386 q 660 225 683 275 q 603 131 637 174 q 525 56 569 87 q 428 6 481 24 q 313 -12 374 -12 m 586 429 q 547 552 586 511 q 435 593 509 593 q 357 578 393 593 q 292 538 321 564 q 241 479 263 513 q 204 408 219 446 q 182 330 190 370 q 175 252 175 290 q 214 129 175 170 q 326 87 252 87 q 405 102 369 87 q 469 142 440 117 q 520 201 498 168 q 556 273 542 235 q 578 351 571 311 q 586 429 586 391 m 345 953 q 397 931 377 953 q 418 880 418 910 q 411 848 418 863 q 394 823 405 833 q 368 806 382 812 q 338 800 354 800 q 308 806 321 800 q 285 822 295 812 q 270 845 275 831 q 265 872 265 858 q 272 905 265 890 q 289 930 278 920 q 314 947 299 941 q 345 953 328 953 m 636 953 q 666 947 652 953 q 689 931 680 941 q 705 908 699 922 q 710 880 710 895 q 704 848 710 863 q 686 823 697 833 q 660 806 675 812 q 629 800 646 800 q 600 806 613 800 q 577 822 587 812 q 562 845 567 831 q 557 872 557 858 q 563 905 557 890 q 580 930 570 920 q 605 947 591 941 q 636 953 620 953 m 0 681 z "},"ō":{"ha":764,"x_min":0,"x_max":707,"o":"m 313 -12 q 122 51 191 -12 q 54 239 54 113 q 66 350 54 295 q 101 456 78 406 q 158 550 124 507 q 236 625 192 593 q 333 675 280 657 q 449 693 387 693 q 558 677 510 693 q 638 630 606 661 q 689 551 671 598 q 707 441 707 504 q 695 331 707 386 q 660 225 683 275 q 603 131 637 174 q 525 56 569 87 q 428 6 481 24 q 313 -12 374 -12 m 586 429 q 547 552 586 511 q 435 593 509 593 q 357 578 393 593 q 292 538 321 564 q 241 479 263 513 q 204 408 219 446 q 182 330 190 370 q 175 252 175 290 q 214 129 175 170 q 326 87 252 87 q 405 102 369 87 q 469 142 440 117 q 520 201 498 168 q 556 273 542 235 q 578 351 571 311 q 586 429 586 391 m 656 831 l 300 831 l 318 921 l 673 921 l 656 831 m 0 681 z "},"ŏ":{"ha":764,"x_min":0,"x_max":707,"o":"m 313 -12 q 122 51 191 -12 q 54 239 54 113 q 66 350 54 295 q 101 456 78 406 q 158 550 124 507 q 236 625 192 593 q 333 675 280 657 q 449 693 387 693 q 558 677 510 693 q 638 630 606 661 q 689 551 671 598 q 707 441 707 504 q 695 331 707 386 q 660 225 683 275 q 603 131 637 174 q 525 56 569 87 q 428 6 481 24 q 313 -12 374 -12 m 586 429 q 547 552 586 511 q 435 593 509 593 q 357 578 393 593 q 292 538 321 564 q 241 479 263 513 q 204 408 219 446 q 182 330 190 370 q 175 252 175 290 q 214 129 175 170 q 326 87 252 87 q 405 102 369 87 q 469 142 440 117 q 520 201 498 168 q 556 273 542 235 q 578 351 571 311 q 586 429 586 391 m 669 958 q 643 886 661 917 q 600 835 625 855 q 543 804 574 814 q 476 794 511 794 q 413 804 442 794 q 363 835 383 814 q 334 886 342 855 q 334 958 326 917 l 425 958 q 431 903 418 924 q 482 882 444 882 q 545 903 519 882 q 578 958 570 924 l 669 958 m 0 681 z "},"ő":{"ha":764,"x_min":0,"x_max":847,"o":"m 313 -12 q 122 51 191 -12 q 54 239 54 113 q 66 350 54 295 q 101 456 78 406 q 158 550 124 507 q 236 625 192 593 q 333 675 280 657 q 449 693 387 693 q 558 677 510 693 q 638 630 606 661 q 689 551 671 598 q 707 441 707 504 q 695 331 707 386 q 660 225 683 275 q 603 131 637 174 q 525 56 569 87 q 428 6 481 24 q 313 -12 374 -12 m 586 429 q 547 552 586 511 q 435 593 509 593 q 357 578 393 593 q 292 538 321 564 q 241 479 263 513 q 204 408 219 446 q 182 330 190 370 q 175 252 175 290 q 214 129 175 170 q 326 87 252 87 q 405 102 369 87 q 469 142 440 117 q 520 201 498 168 q 556 273 542 235 q 578 351 571 311 q 586 429 586 391 m 541 958 l 368 794 l 250 794 l 397 958 l 541 958 m 847 958 l 652 794 l 533 794 l 690 958 l 847 958 m 0 681 z "},"ø":{"ha":764,"x_min":49,"x_max":713,"o":"m 317 -12 q 281 -11 298 -12 q 248 -7 264 -9 l 174 -146 l 66 -146 l 157 24 q 77 108 106 54 q 49 239 49 161 q 61 350 49 295 q 96 456 73 406 q 153 550 119 507 q 231 625 187 593 q 329 675 275 657 q 444 693 382 693 q 479 691 462 693 q 513 688 497 690 l 587 827 l 694 827 l 603 656 q 684 573 655 626 q 713 441 713 519 q 701 331 713 386 q 665 225 688 275 q 608 131 642 174 q 530 56 574 87 q 433 6 486 24 q 317 -12 379 -12 m 591 429 q 549 555 591 515 l 298 89 q 314 87 306 87 q 330 87 322 87 q 408 102 372 87 q 473 142 444 117 q 525 201 503 168 q 562 273 547 235 q 584 351 576 311 q 591 429 591 391 m 170 252 q 179 177 170 209 q 211 125 189 144 l 461 592 q 446 593 454 593 q 431 593 439 593 q 353 579 389 593 q 288 538 317 564 q 236 479 258 513 q 199 408 214 446 q 177 330 184 370 q 170 252 170 290 z "},"ǿ":{"ha":764,"x_min":-110,"x_max":713,"o":"m 317 -12 q 281 -11 298 -12 q 248 -7 264 -9 l 174 -146 l 66 -146 l 157 24 q 77 108 106 54 q 49 239 49 161 q 61 350 49 295 q 96 456 73 406 q 153 550 119 507 q 231 625 187 593 q 329 675 275 657 q 444 693 382 693 q 479 691 462 693 q 513 688 497 690 l 587 827 l 694 827 l 603 656 q 684 573 655 626 q 713 441 713 519 q 701 331 713 386 q 665 225 688 275 q 608 131 642 174 q 530 56 574 87 q 433 6 486 24 q 317 -12 379 -12 m 591 429 q 549 555 591 515 l 298 89 q 314 87 306 87 q 330 87 322 87 q 408 102 372 87 q 473 142 444 117 q 525 201 503 168 q 562 273 547 235 q 584 351 576 311 q 591 429 591 391 m 170 252 q 179 177 170 209 q 211 125 189 144 l 461 592 q 446 593 454 593 q 431 593 439 593 q 353 579 389 593 q 288 538 317 564 q 236 479 258 513 q 199 408 214 446 q 177 330 184 370 q 170 252 170 290 m 639 958 l 414 794 l 296 794 l 468 958 l 639 958 m -110 681 z "},"œ":{"ha":764,"x_min":7,"x_max":768,"o":"m 342 92 q 313 49 331 68 q 272 16 294 30 q 224 -5 250 3 q 174 -12 199 -12 q 47 36 87 -12 q 7 182 7 83 q 10 242 7 207 q 20 319 13 278 q 39 403 27 359 q 67 488 50 446 q 106 567 83 530 q 157 632 128 604 q 221 677 185 661 q 300 693 256 693 q 356 686 332 693 q 397 665 380 678 q 423 634 414 652 q 433 596 432 616 q 458 630 441 612 q 497 661 475 647 q 546 684 519 675 q 603 693 573 693 q 675 680 644 693 q 727 644 707 667 q 758 589 748 621 q 768 521 768 557 q 765 487 768 507 q 753 443 762 467 q 725 396 743 420 q 677 354 707 373 q 603 323 647 335 q 497 311 559 311 l 441 311 q 433 258 436 283 q 431 212 431 233 q 454 117 431 149 q 525 85 478 85 q 596 92 564 85 q 659 111 629 100 l 659 17 q 580 -4 625 3 q 493 -12 535 -12 q 395 13 431 -12 q 342 92 359 39 m 182 85 q 234 109 210 85 q 276 170 257 132 q 309 253 295 207 q 332 345 322 299 q 346 430 341 390 q 350 493 350 469 q 334 572 350 548 q 290 596 319 596 q 235 573 260 596 q 191 512 210 549 q 158 429 172 475 q 135 337 144 382 q 121 250 125 291 q 117 183 117 209 q 133 108 117 131 q 182 85 149 85 m 514 399 q 572 407 546 399 q 617 430 599 414 q 647 467 636 445 q 657 517 657 488 q 638 576 657 555 q 593 596 619 596 q 513 544 546 596 q 460 399 479 492 l 514 399 z "},"þ":{"ha":764,"x_min":-17,"x_max":694,"o":"m 231 958 l 349 958 l 296 694 l 252 530 q 300 598 273 568 q 359 650 327 629 q 428 682 391 671 q 503 693 464 693 q 588 676 551 693 q 648 630 624 660 q 683 558 671 600 q 694 464 694 515 q 669 280 694 366 q 594 131 644 195 q 472 29 545 66 q 304 -8 399 -8 q 221 -4 255 -8 q 158 8 188 0 l 102 -278 l -17 -278 l 231 958 m 575 453 q 553 554 575 518 q 481 590 531 590 q 422 576 452 590 q 366 539 393 563 q 313 484 338 515 q 268 415 288 452 q 232 340 247 379 q 210 264 217 302 l 180 117 q 246 95 212 103 q 309 87 280 87 q 406 106 364 87 q 476 156 447 125 q 525 226 506 186 q 555 306 544 265 q 571 385 566 347 q 575 453 575 423 z "},"ŕ":{"ha":764,"x_min":0,"x_max":749,"o":"m 140 368 q 146 402 143 381 q 153 459 149 423 q 163 548 157 494 q 178 681 170 602 l 289 681 l 272 524 q 323 589 296 558 q 385 643 351 620 q 457 680 418 666 q 543 693 496 693 q 698 623 655 693 q 711 421 741 553 l 591 421 q 602 500 602 468 q 592 553 602 533 q 565 582 583 573 q 522 591 547 591 q 427 562 473 591 q 343 485 381 532 q 277 377 304 437 q 237 257 250 317 l 186 0 l 66 0 l 140 368 m 749 958 l 524 794 l 406 794 l 578 958 l 749 958 m 0 681 z "},"ř":{"ha":764,"x_min":0,"x_max":741,"o":"m 140 368 q 146 402 143 381 q 153 459 149 423 q 163 548 157 494 q 178 681 170 602 l 289 681 l 272 524 q 323 589 296 558 q 385 643 351 620 q 457 680 418 666 q 543 693 496 693 q 698 623 655 693 q 711 421 741 553 l 591 421 q 602 500 602 468 q 592 553 602 533 q 565 582 583 573 q 522 591 547 591 q 427 562 473 591 q 343 485 381 532 q 277 377 304 437 q 237 257 250 317 l 186 0 l 66 0 l 140 368 m 422 794 l 290 958 l 406 958 l 485 876 l 597 958 l 718 958 l 519 794 l 422 794 m 0 681 z "},"ŗ":{"ha":764,"x_min":66,"x_max":741,"o":"m 140 368 q 146 402 143 381 q 153 459 149 423 q 163 548 157 494 q 178 681 170 602 l 289 681 l 272 524 q 323 589 296 558 q 385 643 351 620 q 457 680 418 666 q 543 693 496 693 q 698 623 655 693 q 711 421 741 553 l 591 421 q 602 500 602 468 q 592 553 602 533 q 565 582 583 573 q 522 591 547 591 q 427 562 473 591 q 343 485 381 532 q 277 377 304 437 q 237 257 250 317 l 186 0 l 66 0 l 140 368 m 367 -78 l 267 -278 l 167 -278 l 252 -78 l 367 -78 z "},"ś":{"ha":764,"x_min":0,"x_max":749,"o":"m 659 567 q 548 588 597 581 q 461 595 499 595 q 381 587 414 595 q 326 566 347 580 q 294 533 304 553 q 283 490 283 514 q 291 460 283 473 q 316 435 299 447 q 361 412 333 423 q 431 387 389 400 q 515 354 480 371 q 572 315 550 336 q 605 267 595 293 q 615 205 615 240 q 592 112 615 153 q 528 44 569 71 q 428 2 486 16 q 301 -12 370 -12 q 177 -7 236 -12 q 68 11 119 -1 l 68 126 q 189 97 129 106 q 309 87 250 87 q 449 115 405 87 q 493 199 493 142 q 486 226 493 214 q 463 250 479 239 q 418 273 447 261 q 346 297 390 284 q 272 325 305 309 q 214 361 238 340 q 176 411 189 382 q 163 478 163 440 q 181 563 163 524 q 238 631 199 602 q 334 676 276 660 q 472 693 393 693 q 514 692 491 693 q 561 687 536 690 q 610 680 585 684 q 659 671 635 676 l 659 567 m 749 958 l 524 794 l 406 794 l 578 958 l 749 958 m 0 681 z "},"ŝ":{"ha":764,"x_min":0,"x_max":685,"o":"m 659 567 q 548 588 597 581 q 461 595 499 595 q 381 587 414 595 q 326 566 347 580 q 294 533 304 553 q 283 490 283 514 q 291 460 283 473 q 316 435 299 447 q 361 412 333 423 q 431 387 389 400 q 515 354 480 371 q 572 315 550 336 q 605 267 595 293 q 615 205 615 240 q 592 112 615 153 q 528 44 569 71 q 428 2 486 16 q 301 -12 370 -12 q 177 -7 236 -12 q 68 11 119 -1 l 68 126 q 189 97 129 106 q 309 87 250 87 q 449 115 405 87 q 493 199 493 142 q 486 226 493 214 q 463 250 479 239 q 418 273 447 261 q 346 297 390 284 q 272 325 305 309 q 214 361 238 340 q 176 411 189 382 q 163 478 163 440 q 181 563 163 524 q 238 631 199 602 q 334 676 276 660 q 472 693 393 693 q 514 692 491 693 q 561 687 536 690 q 610 680 585 684 q 659 671 635 676 l 659 567 m 553 958 l 685 794 l 570 794 l 490 876 l 378 794 l 257 794 l 456 958 l 553 958 m 0 681 z "},"š":{"ha":764,"x_min":0,"x_max":718,"o":"m 659 567 q 548 588 597 581 q 461 595 499 595 q 381 587 414 595 q 326 566 347 580 q 294 533 304 553 q 283 490 283 514 q 291 460 283 473 q 316 435 299 447 q 361 412 333 423 q 431 387 389 400 q 515 354 480 371 q 572 315 550 336 q 605 267 595 293 q 615 205 615 240 q 592 112 615 153 q 528 44 569 71 q 428 2 486 16 q 301 -12 370 -12 q 177 -7 236 -12 q 68 11 119 -1 l 68 126 q 189 97 129 106 q 309 87 250 87 q 449 115 405 87 q 493 199 493 142 q 486 226 493 214 q 463 250 479 239 q 418 273 447 261 q 346 297 390 284 q 272 325 305 309 q 214 361 238 340 q 176 411 189 382 q 163 478 163 440 q 181 563 163 524 q 238 631 199 602 q 334 676 276 660 q 472 693 393 693 q 514 692 491 693 q 561 687 536 690 q 610 680 585 684 q 659 671 635 676 l 659 567 m 422 794 l 290 958 l 406 958 l 485 876 l 597 958 l 718 958 l 519 794 l 422 794 m 0 681 z "},"ş":{"ha":764,"x_min":68,"x_max":659,"o":"m 255 -12 q 166 -5 222 -12 q 68 11 111 1 l 68 126 q 189 97 129 106 q 309 87 250 87 q 449 115 405 87 q 494 199 494 142 q 487 226 494 214 q 464 250 480 239 q 418 273 447 261 q 346 297 390 284 q 272 325 305 309 q 214 361 238 340 q 176 411 189 382 q 163 478 163 440 q 181 563 163 524 q 238 631 199 602 q 334 676 276 660 q 472 693 393 693 q 514 692 491 693 q 561 687 536 690 q 610 680 585 684 q 659 671 635 676 l 659 567 q 548 588 597 581 q 461 595 499 595 q 381 587 414 595 q 326 566 347 580 q 294 533 304 553 q 283 490 283 514 q 291 460 283 473 q 316 435 299 447 q 361 412 333 423 q 431 387 389 400 q 515 354 480 371 q 572 315 550 336 q 605 267 595 293 q 615 205 615 240 q 590 109 615 153 q 512 34 565 64 q 372 -8 458 3 l 278 -200 l 175 -200 l 255 -12 z "},"ș":{"ha":764,"x_min":68,"x_max":659,"o":"m 659 567 q 548 588 597 581 q 461 595 499 595 q 381 587 414 595 q 326 566 347 580 q 294 533 304 553 q 283 490 283 514 q 291 460 283 473 q 316 435 299 447 q 361 412 333 423 q 431 387 389 400 q 515 354 480 371 q 572 315 550 336 q 605 267 595 293 q 615 205 615 240 q 592 112 615 153 q 528 44 569 71 q 428 2 486 16 q 301 -12 370 -12 q 177 -7 236 -12 q 68 11 119 -1 l 68 126 q 189 97 129 106 q 309 87 250 87 q 449 115 405 87 q 493 199 493 142 q 486 226 493 214 q 463 250 479 239 q 418 273 447 261 q 346 297 390 284 q 272 325 305 309 q 214 361 238 340 q 176 411 189 382 q 163 478 163 440 q 181 563 163 524 q 238 631 199 602 q 334 676 276 660 q 472 693 393 693 q 514 692 491 693 q 561 687 536 690 q 610 680 585 684 q 659 671 635 676 l 659 567 m 367 -78 l 267 -278 l 167 -278 l 252 -78 l 367 -78 z "},"ß":{"ha":764,"x_min":-66,"x_max":718,"o":"m 149 0 q 111 -139 136 -70 q 52 -278 87 -208 l -66 -278 q -7 -138 -31 -208 q 31 0 17 -69 l 168 688 q 276 895 195 823 q 492 966 357 966 q 660 923 602 966 q 718 802 718 880 q 701 720 718 753 q 658 661 684 686 q 602 617 632 636 q 545 581 571 599 q 502 543 519 563 q 485 497 485 524 q 498 451 485 473 q 531 408 511 429 q 573 365 550 387 q 615 318 596 343 q 648 265 635 294 q 661 201 661 237 q 646 135 661 171 q 598 66 631 98 q 512 13 565 35 q 383 -8 459 -8 q 318 -6 349 -8 q 262 0 288 -4 l 283 104 q 332 94 304 98 q 385 90 359 90 q 454 99 425 90 q 502 121 484 107 q 529 154 520 136 q 538 191 538 172 q 525 238 538 216 q 492 281 512 260 q 450 323 473 302 q 408 368 428 345 q 376 420 389 392 q 363 482 363 448 q 380 558 363 528 q 424 611 397 589 q 480 652 450 634 q 537 689 511 669 q 580 733 563 709 q 597 794 597 758 q 568 850 597 830 q 485 871 538 871 q 355 825 404 871 q 286 684 305 780 l 149 0 z "},"ſ":{"ha":764,"x_min":29,"x_max":803,"o":"m 248 0 q 209 -139 234 -70 q 150 -278 184 -208 l 29 -278 q 89 -138 65 -208 q 126 0 113 -69 l 265 699 q 310 819 280 768 q 382 903 340 870 q 477 952 424 936 q 593 968 530 968 q 661 961 629 968 q 719 942 692 954 q 766 915 745 930 q 803 882 787 899 l 734 799 q 672 848 711 829 q 586 867 634 867 q 516 856 549 867 q 456 821 483 844 q 411 760 430 797 q 380 672 391 723 l 248 0 z "},"ť":{"ha":764,"x_min":-123,"x_max":829,"o":"m 600 9 q 516 -5 557 -1 q 441 -9 474 -9 q 323 6 372 -9 q 245 54 274 21 q 210 140 217 87 q 218 268 203 193 l 281 582 l 90 582 l 110 681 l 300 681 l 338 868 l 463 899 l 418 681 l 724 681 l 704 582 l 399 582 l 335 264 q 328 184 326 217 q 344 130 330 151 q 385 100 358 109 q 454 90 412 90 q 517 95 479 90 q 600 111 555 100 l 600 9 m 829 994 l 734 794 l 635 794 l 714 994 l 829 994 m -123 681 z "},"ț":{"ha":764,"x_min":90,"x_max":724,"o":"m 600 9 q 516 -5 557 -1 q 441 -9 474 -9 q 323 6 372 -9 q 245 54 274 21 q 210 140 217 87 q 218 268 203 193 l 281 582 l 90 582 l 110 681 l 300 681 l 338 868 l 463 899 l 418 681 l 724 681 l 704 582 l 399 582 l 335 264 q 328 184 326 217 q 344 130 330 151 q 385 100 358 109 q 454 90 412 90 q 517 95 479 90 q 600 111 555 100 l 600 9 m 422 -78 l 322 -278 l 222 -278 l 307 -78 l 422 -78 z "},"ŧ":{"ha":764,"x_min":61,"x_max":724,"o":"m 600 9 q 516 -5 557 -1 q 441 -9 474 -9 q 323 6 372 -9 q 245 54 274 21 q 210 140 217 87 q 218 268 203 193 l 225 304 l 61 304 l 82 403 l 244 403 l 281 582 l 90 582 l 110 681 l 300 681 l 338 868 l 463 899 l 418 681 l 724 681 l 704 582 l 399 582 l 363 403 l 627 403 l 606 304 l 343 304 l 335 264 q 328 184 326 217 q 344 130 330 151 q 385 100 358 109 q 454 90 412 90 q 517 95 479 90 q 600 111 555 100 l 600 9 z "},"ù":{"ha":764,"x_min":-26,"x_max":722,"o":"m 648 313 q 643 279 646 300 q 635 222 640 258 q 625 133 631 186 q 611 0 619 79 l 500 0 l 517 157 q 404 32 470 75 q 260 -12 338 -12 q 107 53 152 -12 q 87 244 62 118 l 175 681 l 293 681 l 205 245 q 208 126 189 163 q 282 89 227 89 q 340 102 311 89 q 396 140 369 116 q 449 196 424 164 q 494 266 473 229 q 530 343 515 303 q 553 424 545 384 l 604 681 l 722 681 l 648 313 m 514 794 l 396 794 l 187 958 l 358 958 l 514 794 m -26 681 z "},"ú":{"ha":764,"x_min":-12,"x_max":736,"o":"m 648 313 q 643 279 646 300 q 635 222 640 258 q 625 133 631 186 q 611 0 619 79 l 500 0 l 517 157 q 404 32 470 75 q 260 -12 338 -12 q 107 53 152 -12 q 87 244 62 118 l 175 681 l 293 681 l 205 245 q 208 126 189 163 q 282 89 227 89 q 340 102 311 89 q 396 140 369 116 q 449 196 424 164 q 494 266 473 229 q 530 343 515 303 q 553 424 545 384 l 604 681 l 722 681 l 648 313 m 736 958 l 511 794 l 393 794 l 566 958 l 736 958 m -12 681 z "},"û":{"ha":764,"x_min":-12,"x_max":722,"o":"m 648 313 q 643 279 646 300 q 635 222 640 258 q 625 133 631 186 q 611 0 619 79 l 500 0 l 517 157 q 404 32 470 75 q 260 -12 338 -12 q 107 53 152 -12 q 87 244 62 118 l 175 681 l 293 681 l 205 245 q 208 126 189 163 q 282 89 227 89 q 340 102 311 89 q 396 140 369 116 q 449 196 424 164 q 494 266 473 229 q 530 343 515 303 q 553 424 545 384 l 604 681 l 722 681 l 648 313 m 541 958 l 673 794 l 557 794 l 478 876 l 366 794 l 245 794 l 444 958 l 541 958 m -12 681 z "},"ũ":{"ha":764,"x_min":-12,"x_max":728,"o":"m 648 313 q 643 279 646 300 q 635 222 640 258 q 625 133 631 186 q 611 0 619 79 l 500 0 l 517 157 q 404 32 470 75 q 260 -12 338 -12 q 107 53 152 -12 q 87 244 62 118 l 175 681 l 293 681 l 205 245 q 208 126 189 163 q 282 89 227 89 q 340 102 311 89 q 396 140 369 116 q 449 196 424 164 q 494 266 473 229 q 530 343 515 303 q 553 424 545 384 l 604 681 l 722 681 l 648 313 m 235 860 q 389 958 296 958 q 455 947 429 958 q 502 922 481 935 q 540 897 522 908 q 581 885 557 885 q 630 904 608 885 q 671 951 652 922 l 728 893 q 572 794 665 794 q 507 806 533 794 q 460 831 481 817 q 422 857 440 845 q 381 868 404 868 q 332 849 353 868 q 290 802 310 831 l 235 860 m -12 681 z "},"ü":{"ha":764,"x_min":-12,"x_max":722,"o":"m 648 313 q 643 279 646 300 q 635 222 640 258 q 625 133 631 186 q 611 0 619 79 l 500 0 l 517 157 q 404 32 470 75 q 260 -12 338 -12 q 107 53 152 -12 q 87 244 62 118 l 175 681 l 293 681 l 205 245 q 208 126 189 163 q 282 89 227 89 q 340 102 311 89 q 396 140 369 116 q 449 196 424 164 q 494 266 473 229 q 530 343 515 303 q 553 424 545 384 l 604 681 l 722 681 l 648 313 m 332 953 q 385 931 365 953 q 406 880 406 910 q 399 848 406 863 q 381 823 393 833 q 356 806 370 812 q 326 800 342 800 q 296 806 309 800 q 273 822 283 812 q 258 845 263 831 q 253 872 253 858 q 259 905 253 890 q 276 930 266 920 q 301 947 287 941 q 332 953 316 953 m 624 953 q 654 947 640 953 q 677 931 667 941 q 692 908 687 922 q 698 880 698 895 q 691 848 698 863 q 674 823 685 833 q 648 806 663 812 q 617 800 633 800 q 588 806 601 800 q 565 822 574 812 q 550 845 555 831 q 545 872 545 858 q 551 905 545 890 q 568 930 557 920 q 593 947 578 941 q 624 953 608 953 m -12 681 z "},"ū":{"ha":764,"x_min":-12,"x_max":722,"o":"m 648 313 q 643 279 646 300 q 635 222 640 258 q 625 133 631 186 q 611 0 619 79 l 500 0 l 517 157 q 404 32 470 75 q 260 -12 338 -12 q 107 53 152 -12 q 87 244 62 118 l 175 681 l 293 681 l 205 245 q 208 126 189 163 q 282 89 227 89 q 340 102 311 89 q 396 140 369 116 q 449 196 424 164 q 494 266 473 229 q 530 343 515 303 q 553 424 545 384 l 604 681 l 722 681 l 648 313 m 644 831 l 288 831 l 306 921 l 661 921 l 644 831 m -12 681 z "},"ŭ":{"ha":764,"x_min":-12,"x_max":722,"o":"m 648 313 q 643 279 646 300 q 635 222 640 258 q 625 133 631 186 q 611 0 619 79 l 500 0 l 517 157 q 404 32 470 75 q 260 -12 338 -12 q 107 53 152 -12 q 87 244 62 118 l 175 681 l 293 681 l 205 245 q 208 126 189 163 q 282 89 227 89 q 340 102 311 89 q 396 140 369 116 q 449 196 424 164 q 494 266 473 229 q 530 343 515 303 q 553 424 545 384 l 604 681 l 722 681 l 648 313 m 657 958 q 631 886 649 917 q 588 835 613 855 q 531 804 562 814 q 464 794 499 794 q 400 804 430 794 q 351 835 371 814 q 322 886 330 855 q 321 958 313 917 l 413 958 q 419 903 406 924 q 470 882 432 882 q 533 903 507 882 q 566 958 558 924 l 657 958 m -12 681 z "},"ů":{"ha":764,"x_min":-12,"x_max":722,"o":"m 648 313 q 643 279 646 300 q 635 222 640 258 q 625 133 631 186 q 611 0 619 79 l 500 0 l 517 157 q 404 32 470 75 q 260 -12 338 -12 q 107 53 152 -12 q 87 244 62 118 l 175 681 l 293 681 l 205 245 q 208 126 189 163 q 282 89 227 89 q 340 102 311 89 q 396 140 369 116 q 449 196 424 164 q 494 266 473 229 q 530 343 515 303 q 553 424 545 384 l 604 681 l 722 681 l 648 313 m 482 1018 q 538 1007 513 1018 q 582 979 564 997 q 610 937 600 961 q 621 886 621 913 q 608 826 621 854 q 575 779 595 799 q 527 749 555 760 q 470 738 500 738 q 414 748 439 738 q 369 777 388 759 q 340 818 351 794 q 330 869 330 842 q 342 929 330 902 q 376 977 355 957 q 424 1007 397 996 q 482 1018 452 1018 m 478 946 q 451 941 464 946 q 428 925 437 935 q 413 902 418 916 q 407 873 407 889 q 426 829 407 848 q 474 810 444 810 q 523 830 503 810 q 543 882 543 850 q 538 906 543 895 q 525 926 534 918 q 505 941 517 935 q 478 946 492 946 m -12 681 z "},"ű":{"ha":764,"x_min":0,"x_max":847,"o":"m 648 313 q 643 279 646 300 q 635 222 640 258 q 625 133 631 186 q 611 0 619 79 l 500 0 l 517 157 q 404 32 470 75 q 260 -12 338 -12 q 107 53 152 -12 q 87 244 62 118 l 175 681 l 293 681 l 205 245 q 208 126 189 163 q 282 89 227 89 q 340 102 311 89 q 396 140 369 116 q 449 196 424 164 q 494 266 473 229 q 530 343 515 303 q 553 424 545 384 l 604 681 l 722 681 l 648 313 m 541 958 l 368 794 l 250 794 l 397 958 l 541 958 m 847 958 l 652 794 l 533 794 l 690 958 l 847 958 m 0 681 z "},"ų":{"ha":764,"x_min":62,"x_max":722,"o":"m 604 -254 q 566 -259 587 -258 q 528 -261 545 -261 q 465 -253 491 -261 q 422 -232 439 -245 q 397 -201 406 -219 q 389 -164 389 -184 q 394 -130 389 -147 q 410 -94 398 -113 q 443 -51 422 -74 q 500 0 465 -28 l 517 157 q 404 32 470 75 q 260 -12 338 -12 q 107 53 152 -12 q 87 244 62 118 l 175 681 l 293 681 l 205 245 q 208 126 189 163 q 282 89 227 89 q 340 102 311 89 q 396 140 369 116 q 449 196 424 164 q 494 266 473 229 q 530 343 515 303 q 553 424 545 384 l 604 681 l 722 681 l 648 313 q 643 279 646 300 q 635 222 640 258 q 625 133 631 186 q 611 0 619 79 q 556 -51 577 -29 q 523 -89 535 -72 q 507 -119 511 -105 q 503 -146 503 -132 q 514 -170 503 -159 q 557 -180 526 -180 q 579 -180 566 -180 q 604 -178 593 -179 l 604 -254 z "},"ẁ":{"ha":764,"x_min":-26,"x_max":781,"o":"m 781 681 q 756 495 774 591 q 706 308 737 399 q 631 137 674 217 q 533 0 588 58 l 433 0 l 389 285 l 383 354 l 346 281 l 193 0 l 49 0 l 94 681 l 208 681 l 168 218 l 158 115 l 205 205 l 368 511 l 453 511 l 501 210 l 514 119 q 575 237 549 172 q 620 374 602 302 q 649 525 638 447 q 664 681 660 603 l 781 681 m 514 794 l 396 794 l 187 958 l 358 958 l 514 794 m -26 681 z "},"ẃ":{"ha":764,"x_min":-26,"x_max":781,"o":"m 781 681 q 756 495 774 591 q 706 308 737 399 q 631 137 674 217 q 533 0 588 58 l 433 0 l 389 285 l 383 354 l 346 281 l 193 0 l 49 0 l 94 681 l 208 681 l 168 218 l 158 115 l 205 205 l 368 511 l 453 511 l 501 210 l 514 119 q 575 237 549 172 q 620 374 602 302 q 649 525 638 447 q 664 681 660 603 l 781 681 m 722 958 l 497 794 l 379 794 l 551 958 l 722 958 m -26 681 z "},"ŵ":{"ha":764,"x_min":-12,"x_max":781,"o":"m 781 681 q 756 495 774 591 q 706 308 737 399 q 631 137 674 217 q 533 0 588 58 l 433 0 l 389 285 l 383 354 l 346 281 l 193 0 l 49 0 l 94 681 l 208 681 l 168 218 l 158 115 l 205 205 l 368 511 l 453 511 l 501 210 l 514 119 q 575 237 549 172 q 620 374 602 302 q 649 525 638 447 q 664 681 660 603 l 781 681 m 541 958 l 673 794 l 557 794 l 478 876 l 366 794 l 245 794 l 444 958 l 541 958 m -12 681 z "},"ẅ":{"ha":764,"x_min":-12,"x_max":781,"o":"m 781 681 q 756 495 774 591 q 706 308 737 399 q 631 137 674 217 q 533 0 588 58 l 433 0 l 389 285 l 383 354 l 346 281 l 193 0 l 49 0 l 94 681 l 208 681 l 168 218 l 158 115 l 205 205 l 368 511 l 453 511 l 501 210 l 514 119 q 575 237 549 172 q 620 374 602 302 q 649 525 638 447 q 664 681 660 603 l 781 681 m 332 953 q 385 931 365 953 q 406 880 406 910 q 399 848 406 863 q 381 823 393 833 q 356 806 370 812 q 326 800 342 800 q 296 806 309 800 q 273 822 283 812 q 258 845 263 831 q 253 872 253 858 q 259 905 253 890 q 276 930 266 920 q 301 947 287 941 q 332 953 316 953 m 624 953 q 654 947 640 953 q 677 931 667 941 q 692 908 687 922 q 698 880 698 895 q 691 848 698 863 q 674 823 685 833 q 648 806 663 812 q 617 800 633 800 q 588 806 601 800 q 565 822 574 812 q 550 845 555 831 q 545 872 545 858 q 551 905 545 890 q 568 930 557 920 q 593 947 578 941 q 624 953 608 953 m -12 681 z "},"ỳ":{"ha":764,"x_min":-72,"x_max":717,"o":"m 488 136 q 378 -13 428 51 q 287 -124 329 -77 q 207 -201 244 -171 q 136 -250 170 -231 q 67 -275 101 -268 q -3 -282 33 -282 q -36 -281 -20 -282 q -72 -278 -52 -280 l -72 -171 q -34 -176 -54 -174 q 5 -178 -14 -178 q 67 -168 38 -178 q 124 -137 96 -159 q 183 -82 153 -116 q 249 0 214 -48 l 111 681 l 239 681 l 328 231 l 345 114 q 430 244 394 185 q 493 354 467 304 q 535 447 519 404 q 563 529 552 490 q 578 605 573 568 q 587 681 584 642 l 717 681 q 695 554 709 614 q 655 430 681 493 q 589 295 629 366 q 488 136 549 224 m 514 794 l 396 794 l 187 958 l 358 958 l 514 794 m -26 681 z "},"ý":{"ha":764,"x_min":-72,"x_max":722,"o":"m 488 136 q 378 -13 428 51 q 287 -124 329 -77 q 207 -201 244 -171 q 136 -250 170 -231 q 67 -275 101 -268 q -3 -282 33 -282 q -36 -281 -20 -282 q -72 -278 -52 -280 l -72 -171 q -34 -176 -54 -174 q 5 -178 -14 -178 q 67 -168 38 -178 q 124 -137 96 -159 q 183 -82 153 -116 q 249 0 214 -48 l 111 681 l 239 681 l 328 231 l 345 114 q 430 244 394 185 q 493 354 467 304 q 535 447 519 404 q 563 529 552 490 q 578 605 573 568 q 587 681 584 642 l 717 681 q 695 554 709 614 q 655 430 681 493 q 589 295 629 366 q 488 136 549 224 m 722 958 l 497 794 l 379 794 l 551 958 l 722 958 m -26 681 z "},"ŷ":{"ha":764,"x_min":-72,"x_max":717,"o":"m 488 136 q 378 -13 428 51 q 287 -124 329 -77 q 207 -201 244 -171 q 136 -250 170 -231 q 67 -275 101 -268 q -3 -282 33 -282 q -36 -281 -20 -282 q -72 -278 -52 -280 l -72 -171 q -34 -176 -54 -174 q 5 -178 -14 -178 q 67 -168 38 -178 q 124 -137 96 -159 q 183 -82 153 -116 q 249 0 214 -48 l 111 681 l 239 681 l 328 231 l 345 114 q 430 244 394 185 q 493 354 467 304 q 535 447 519 404 q 563 529 552 490 q 578 605 573 568 q 587 681 584 642 l 717 681 q 695 554 709 614 q 655 430 681 493 q 589 295 629 366 q 488 136 549 224 m 526 958 l 659 794 l 543 794 l 464 876 l 351 794 l 231 794 l 429 958 l 526 958 m -26 681 z "},"ÿ":{"ha":764,"x_min":-72,"x_max":717,"o":"m 488 136 q 378 -13 428 51 q 287 -124 329 -77 q 207 -201 244 -171 q 136 -250 170 -231 q 67 -275 101 -268 q -3 -282 33 -282 q -36 -281 -20 -282 q -72 -278 -52 -280 l -72 -171 q -34 -176 -54 -174 q 5 -178 -14 -178 q 67 -168 38 -178 q 124 -137 96 -159 q 183 -82 153 -116 q 249 0 214 -48 l 111 681 l 239 681 l 328 231 l 345 114 q 430 244 394 185 q 493 354 467 304 q 535 447 519 404 q 563 529 552 490 q 578 605 573 568 q 587 681 584 642 l 717 681 q 695 554 709 614 q 655 430 681 493 q 589 295 629 366 q 488 136 549 224 m 318 953 q 371 931 351 953 q 391 880 391 910 q 385 848 391 863 q 367 823 378 833 q 342 806 356 812 q 311 800 328 800 q 282 806 295 800 q 259 822 269 812 q 244 845 249 831 q 239 872 239 858 q 245 905 239 890 q 262 930 252 920 q 287 947 273 941 q 318 953 302 953 m 610 953 q 640 947 626 953 q 663 931 653 941 q 678 908 673 922 q 684 880 684 895 q 677 848 684 863 q 660 823 671 833 q 634 806 648 812 q 603 800 619 800 q 573 806 587 800 q 550 822 560 812 q 535 845 541 831 q 530 872 530 858 q 537 905 530 890 q 554 930 543 920 q 579 947 564 941 q 610 953 593 953 m -26 681 z "},"ź":{"ha":764,"x_min":-12,"x_max":736,"o":"m 590 0 l 41 0 l 58 85 l 539 582 l 168 582 l 187 681 l 704 681 l 686 589 l 214 100 l 610 100 l 590 0 m 736 958 l 511 794 l 393 794 l 566 958 l 736 958 m -12 681 z "},"ž":{"ha":764,"x_min":-12,"x_max":706,"o":"m 590 0 l 41 0 l 58 85 l 539 582 l 168 582 l 187 681 l 704 681 l 686 589 l 214 100 l 610 100 l 590 0 m 410 794 l 278 958 l 393 958 l 473 876 l 585 958 l 706 958 l 507 794 l 410 794 m -12 681 z "},"ż":{"ha":764,"x_min":-12,"x_max":704,"o":"m 590 0 l 41 0 l 58 85 l 539 582 l 168 582 l 187 681 l 704 681 l 686 589 l 214 100 l 610 100 l 590 0 m 384 868 q 391 906 384 889 q 412 937 399 924 q 441 957 425 949 q 478 964 458 964 q 513 957 497 964 q 541 938 529 949 q 558 911 552 926 q 564 879 564 896 q 557 840 564 858 q 537 810 549 823 q 507 790 524 798 q 471 783 490 783 q 436 790 452 783 q 408 808 420 797 q 390 835 397 820 q 384 868 384 850 m -12 681 z "},"&":{"ha":764,"x_min":12,"x_max":717,"o":"m 717 463 q 667 297 699 372 q 591 164 635 222 l 690 0 l 543 0 l 498 74 q 385 11 446 32 q 261 -9 325 -9 q 156 5 202 -9 q 78 47 110 20 q 29 115 46 75 q 12 207 12 155 q 31 308 12 263 q 81 389 50 353 q 154 453 113 425 q 241 505 195 481 l 231 524 q 197 600 209 560 q 184 684 184 640 q 203 783 184 736 q 257 864 222 829 q 341 919 292 899 q 453 939 391 939 q 544 924 505 939 q 607 885 582 909 q 644 826 631 860 q 656 755 656 793 q 635 664 656 704 q 580 592 615 624 q 499 532 545 559 q 400 479 452 505 l 530 262 q 570 353 553 303 q 597 463 587 404 l 717 463 m 136 227 q 173 125 136 159 q 277 92 209 92 q 365 109 321 92 q 447 161 408 127 l 290 424 q 228 386 256 406 q 180 342 200 366 q 148 290 159 319 q 136 227 136 262 m 533 747 q 509 813 533 788 q 439 839 486 839 q 382 827 407 839 q 341 794 358 814 q 316 749 324 774 q 307 696 307 723 q 309 665 307 680 q 316 634 311 650 q 330 602 321 619 q 351 562 338 584 l 353 559 q 423 597 390 578 q 480 638 456 616 q 519 687 505 660 q 533 747 533 713 z "},"`":{"ha":764,"x_min":0,"x_max":541,"o":"m 541 794 l 422 794 l 214 958 l 385 958 l 541 794 m 0 681 z "},"´":{"ha":764,"x_min":0,"x_max":749,"o":"m 749 958 l 524 794 l 406 794 l 578 958 l 749 958 m 0 681 z "},"ˆ":{"ha":764,"x_min":0,"x_max":685,"o":"m 553 958 l 685 794 l 570 794 l 490 876 l 378 794 l 257 794 l 456 958 l 553 958 m 0 681 z "},"ˇ":{"ha":764,"x_min":0,"x_max":718,"o":"m 422 794 l 290 958 l 406 958 l 485 876 l 597 958 l 718 958 l 519 794 l 422 794 m 0 681 z "},"̕":{"ha":764,"x_min":0,"x_max":953,"o":"m 953 994 l 857 794 l 758 794 l 838 994 l 953 994 m 0 681 z "},"˜":{"ha":764,"x_min":0,"x_max":741,"o":"m 248 860 q 401 958 308 958 q 467 947 441 958 q 514 922 494 935 q 552 897 534 908 q 593 885 570 885 q 642 904 621 885 q 684 951 664 922 l 741 893 q 585 794 677 794 q 519 806 545 794 q 473 831 493 817 q 434 857 452 845 q 393 868 416 868 q 344 849 366 868 q 302 802 322 831 l 248 860 m 0 681 z "},"¨":{"ha":764,"x_min":0,"x_max":710,"o":"m 345 953 q 397 931 377 953 q 418 880 418 910 q 411 848 418 863 q 394 823 405 833 q 368 806 382 812 q 338 800 354 800 q 308 806 321 800 q 285 822 295 812 q 270 845 275 831 q 265 872 265 858 q 272 905 265 890 q 289 930 278 920 q 314 947 299 941 q 345 953 328 953 m 636 953 q 666 947 652 953 q 689 931 680 941 q 705 908 699 922 q 710 880 710 895 q 704 848 710 863 q 686 823 697 833 q 660 806 675 812 q 629 800 646 800 q 600 806 613 800 q 577 822 587 812 q 562 845 567 831 q 557 872 557 858 q 563 905 557 890 q 580 930 570 920 q 605 947 591 941 q 636 953 620 953 m 0 681 z "},"¯":{"ha":764,"x_min":0,"x_max":673,"o":"m 656 831 l 300 831 l 318 921 l 673 921 l 656 831 m 0 681 z "},"˘":{"ha":764,"x_min":0,"x_max":669,"o":"m 669 958 q 643 886 661 917 q 600 835 625 855 q 543 804 574 814 q 476 794 511 794 q 413 804 442 794 q 363 835 383 814 q 334 886 342 855 q 334 958 326 917 l 425 958 q 431 903 418 924 q 482 882 444 882 q 545 903 519 882 q 578 958 570 924 l 669 958 m 0 681 z "},"˚":{"ha":764,"x_min":0,"x_max":633,"o":"m 494 1018 q 551 1007 525 1018 q 594 979 576 997 q 623 937 612 961 q 633 886 633 913 q 620 826 633 854 q 587 779 608 799 q 539 749 567 760 q 482 738 512 738 q 426 748 452 738 q 381 777 400 759 q 352 818 363 794 q 342 869 342 842 q 354 929 342 902 q 388 977 367 957 q 436 1007 409 996 q 494 1018 464 1018 m 490 946 q 463 941 476 946 q 440 925 450 935 q 425 902 431 916 q 419 873 419 889 q 438 829 419 848 q 486 810 456 810 q 535 830 515 810 q 555 882 555 850 q 551 906 555 895 q 537 926 546 918 q 517 941 529 935 q 490 946 505 946 m 0 681 z "},"˝":{"ha":764,"x_min":0,"x_max":847,"o":"m 541 958 l 368 794 l 250 794 l 397 958 l 541 958 m 847 958 l 652 794 l 533 794 l 690 958 l 847 958 m 0 681 z "},"˙":{"ha":764,"x_min":0,"x_max":576,"o":"m 396 868 q 404 906 396 889 q 424 937 411 924 q 454 957 437 949 q 490 964 471 964 q 525 957 509 964 q 553 938 541 949 q 570 911 564 926 q 576 879 576 896 q 569 840 576 858 q 549 810 562 823 q 519 790 536 798 q 484 783 503 783 q 448 790 464 783 q 420 808 432 797 q 402 835 409 820 q 396 868 396 850 m 0 681 z "},"¸":{"ha":764,"x_min":186,"x_max":387,"o":"m 387 0 l 289 -200 l 186 -200 l 271 0 l 387 0 z "},"˛":{"ha":764,"x_min":364,"x_max":586,"o":"m 579 -254 q 541 -259 562 -258 q 503 -261 519 -261 q 440 -253 466 -261 q 397 -232 414 -245 q 372 -201 380 -219 q 364 -164 364 -184 q 369 -130 364 -147 q 385 -94 373 -113 q 418 -51 397 -74 q 473 0 439 -28 l 586 0 q 531 -51 552 -29 q 498 -89 510 -72 q 482 -119 486 -105 q 478 -146 478 -132 q 489 -170 478 -159 q 532 -180 500 -180 q 554 -180 541 -180 q 579 -178 568 -179 l 579 -254 z "},"̦":{"ha":764,"x_min":167,"x_max":367,"o":"m 367 -78 l 267 -278 l 167 -278 l 252 -78 l 367 -78 z "},"̒":{"ha":764,"x_min":0,"x_max":616,"o":"m 404 794 l 518 994 l 616 994 l 519 794 l 404 794 m 0 681 z "},",":{"ha":764,"x_min":54,"x_max":435,"o":"m 54 -139 q 127 -132 89 -140 q 196 -106 165 -124 q 248 -62 227 -89 q 268 1 268 -35 q 262 32 268 19 q 250 56 256 44 q 238 81 243 67 q 232 114 232 94 q 241 159 232 139 q 264 192 250 178 q 296 212 279 205 q 332 218 314 218 q 406 189 377 218 q 435 100 435 159 q 425 28 435 66 q 395 -46 415 -9 q 343 -116 374 -83 q 270 -176 313 -150 q 174 -217 228 -201 q 54 -232 120 -232 l 54 -139 z "},";":{"ha":764,"x_min":62,"x_max":534,"o":"m 62 -139 q 135 -132 97 -140 q 204 -106 173 -124 q 256 -62 236 -89 q 277 1 277 -35 q 271 32 277 19 q 258 56 265 44 q 246 81 252 67 q 240 114 240 94 q 249 159 240 139 q 273 192 258 178 q 305 212 287 205 q 340 218 323 218 q 414 189 385 218 q 443 100 443 159 q 433 28 443 66 q 403 -46 423 -9 q 352 -116 382 -83 q 278 -176 321 -150 q 182 -217 236 -201 q 62 -232 128 -232 l 62 -139 m 433 693 q 474 685 455 693 q 506 663 492 677 q 527 630 519 648 q 534 591 534 612 q 526 552 534 571 q 503 518 517 533 q 469 494 488 503 q 427 485 449 485 q 386 493 404 485 q 354 515 367 501 q 333 547 340 528 q 326 585 326 565 q 335 627 326 608 q 359 662 344 647 q 393 685 374 676 q 433 693 412 693 z "},":":{"ha":764,"x_min":227,"x_max":534,"o":"m 334 196 q 374 188 355 196 q 406 165 393 180 q 427 133 420 151 q 435 94 435 115 q 426 55 435 74 q 403 21 418 35 q 368 -3 388 6 q 326 -12 349 -12 q 286 -4 304 -12 q 254 18 267 4 q 234 50 241 31 q 227 87 227 68 q 235 130 227 111 q 259 164 244 150 q 293 188 274 179 q 334 196 313 196 m 433 693 q 474 685 455 693 q 506 663 492 677 q 527 630 519 648 q 534 591 534 612 q 526 552 534 571 q 503 518 517 533 q 469 494 488 503 q 427 485 449 485 q 386 493 404 485 q 354 515 367 501 q 333 547 340 528 q 326 585 326 565 q 335 627 326 608 q 359 662 344 647 q 393 685 374 676 q 433 693 412 693 z "},".":{"ha":764,"x_min":214,"x_max":439,"o":"m 330 214 q 375 205 355 214 q 409 181 395 196 q 431 146 423 166 q 439 104 439 126 q 429 59 439 80 q 404 21 420 37 q 367 -3 388 5 q 322 -12 345 -12 q 279 -3 298 -12 q 244 20 259 5 q 222 55 230 35 q 214 96 214 74 q 223 142 214 121 q 249 180 233 164 q 286 204 265 195 q 330 214 307 214 z "},"…":{"ha":764,"x_min":-16,"x_max":667,"o":"m 144 74 q 138 40 144 56 q 120 13 132 24 q 94 -6 109 1 q 61 -12 79 -12 q 29 -6 43 -12 q 5 11 15 0 q -10 36 -5 22 q -16 65 -16 50 q -9 99 -16 83 q 8 126 -3 115 q 34 145 19 138 q 66 151 49 151 q 99 145 84 151 q 123 128 113 139 q 139 103 134 117 q 144 74 144 90 m 406 74 q 399 40 406 56 q 381 13 393 24 q 355 -6 370 1 q 322 -12 340 -12 q 290 -6 304 -12 q 266 11 276 0 q 251 36 256 22 q 245 65 245 50 q 252 99 245 83 q 269 126 258 115 q 295 145 280 138 q 328 151 310 151 q 360 145 345 151 q 385 128 374 139 q 400 103 395 117 q 406 74 406 90 m 667 74 q 661 40 667 56 q 643 13 654 24 q 616 -6 631 1 q 583 -12 601 -12 q 552 -6 566 -12 q 528 11 538 0 q 513 36 518 22 q 507 65 507 50 q 513 99 507 83 q 530 126 519 115 q 556 145 541 138 q 589 151 571 151 q 621 145 606 151 q 646 128 635 139 q 662 103 656 117 q 667 74 667 90 z "},"-":{"ha":764,"x_min":172,"x_max":600,"o":"m 578 314 l 172 314 l 195 425 l 600 425 l 578 314 z "},"!":{"ha":764,"x_min":236,"x_max":574,"o":"m 574 958 l 415 260 l 311 260 l 431 958 l 574 958 m 329 167 q 363 160 348 167 q 391 141 379 153 q 409 113 402 129 q 415 79 415 97 q 408 43 415 60 q 388 14 400 26 q 358 -5 375 2 q 323 -12 342 -12 q 288 -5 304 -12 q 260 14 272 2 q 242 41 249 25 q 236 74 236 56 q 243 111 236 94 q 264 140 251 127 q 294 160 277 153 q 329 167 311 167 z "},"¡":{"ha":764,"x_min":186,"x_max":524,"o":"m 186 -278 l 345 421 l 449 421 l 329 -278 l 186 -278 m 431 514 q 396 521 412 514 q 369 540 380 528 q 351 568 357 552 q 345 602 345 584 q 352 637 345 621 q 372 667 359 654 q 401 686 385 679 q 436 693 418 693 q 471 686 455 693 q 499 667 488 679 q 517 640 511 656 q 524 607 524 624 q 516 570 524 587 q 496 541 509 553 q 466 521 483 528 q 431 514 450 514 z "},"?":{"ha":764,"x_min":187,"x_max":692,"o":"m 366 260 l 262 260 l 306 519 l 375 519 q 471 536 434 519 q 527 577 507 553 q 554 631 547 602 q 561 684 561 659 q 544 759 561 727 q 495 811 526 790 q 421 842 465 832 q 328 852 378 852 l 306 852 l 326 958 l 343 958 q 497 936 431 958 q 606 877 563 914 q 670 792 649 840 q 692 693 692 745 q 673 589 692 637 q 618 506 654 541 q 527 449 581 470 q 401 427 473 429 l 366 260 m 281 167 q 315 160 299 167 q 342 141 331 153 q 360 113 354 129 q 367 79 367 97 q 359 43 367 60 q 339 14 352 26 q 310 -5 326 2 q 275 -12 294 -12 q 240 -5 256 -12 q 212 14 224 2 q 194 41 200 25 q 187 74 187 56 q 195 111 187 94 q 215 140 202 127 q 245 160 228 153 q 281 167 262 167 z "},"¿":{"ha":764,"x_min":66,"x_max":571,"o":"m 395 421 l 497 421 l 454 161 l 383 161 q 288 145 324 161 q 231 103 251 128 q 204 50 211 79 q 197 -3 197 21 q 215 -78 197 -46 q 263 -131 232 -110 q 337 -162 294 -152 q 431 -172 380 -172 l 453 -172 l 432 -278 l 415 -278 q 261 -256 326 -278 q 152 -197 195 -234 q 88 -112 109 -160 q 66 -12 66 -64 q 85 92 66 44 q 140 175 104 140 q 231 232 177 211 q 357 254 286 252 l 395 421 m 478 514 q 444 521 459 514 q 416 540 428 528 q 398 568 405 552 q 392 602 392 584 q 399 637 392 621 q 419 667 407 654 q 449 686 432 679 q 484 693 465 693 q 518 686 503 693 q 546 667 534 679 q 565 640 558 656 q 571 607 571 624 q 564 570 571 587 q 543 541 556 553 q 513 521 530 528 q 478 514 496 514 z "},"‽":{"ha":764,"x_min":155,"x_max":696,"o":"m 461 831 l 391 512 q 457 523 428 513 q 507 549 486 532 q 543 589 528 566 q 566 646 557 612 q 560 738 576 698 q 517 800 545 777 q 461 831 490 822 m 486 940 q 565 908 528 928 q 630 859 602 888 q 673 795 658 829 q 693 727 689 762 q 690 654 696 691 q 592 481 667 539 q 369 415 517 423 l 334 260 l 230 260 l 334 851 q 251 852 298 852 l 234 852 l 255 958 l 273 958 q 353 958 319 958 l 375 1087 l 518 1087 l 486 940 m 248 167 q 282 160 267 167 q 309 141 298 153 q 327 113 321 129 q 334 79 334 97 q 326 43 334 60 q 306 14 319 26 q 277 -5 294 2 q 242 -12 260 -12 q 207 -5 222 -12 q 179 14 191 2 q 161 41 168 25 q 155 74 155 56 q 162 111 155 94 q 182 140 170 127 q 212 160 195 153 q 248 167 229 167 z "},"‘":{"ha":764,"x_min":336,"x_max":717,"o":"m 717 873 q 644 867 682 875 q 575 842 606 859 q 523 797 543 824 q 503 733 503 770 q 508 703 503 715 q 521 679 514 691 q 533 654 528 667 q 539 621 539 640 q 530 575 539 595 q 507 543 521 556 q 474 524 492 530 q 439 517 456 517 q 365 546 394 517 q 336 635 336 576 q 346 706 336 669 q 376 781 356 744 q 428 851 397 818 q 501 910 458 885 q 597 951 543 936 q 717 966 651 966 l 717 873 z "},"’":{"ha":764,"x_min":203,"x_max":583,"o":"m 203 610 q 275 616 237 608 q 345 642 313 625 q 396 687 376 660 q 416 750 416 713 q 411 780 416 768 q 398 804 405 793 q 386 829 392 816 q 380 863 380 843 q 390 907 380 888 q 413 940 399 927 q 445 960 427 953 q 481 966 463 966 q 554 937 526 966 q 583 848 583 907 q 573 777 583 814 q 543 703 564 740 q 492 632 523 666 q 419 573 461 599 q 322 532 376 547 q 203 517 269 517 l 203 610 z "},"“":{"ha":764,"x_min":136,"x_max":840,"o":"m 485 879 q 421 873 454 881 q 359 849 387 866 q 312 807 330 833 q 293 747 293 782 q 298 720 293 731 q 310 697 303 708 q 321 673 316 686 q 326 642 326 661 q 318 600 326 618 q 296 569 309 581 q 266 551 282 557 q 232 545 249 545 q 163 572 190 545 q 136 656 136 600 q 145 723 136 688 q 173 792 155 758 q 220 858 192 827 q 288 914 249 890 q 375 952 326 938 q 485 966 425 966 l 485 879 m 840 879 q 776 873 810 881 q 714 849 743 866 q 667 807 686 833 q 648 747 648 782 q 654 720 648 731 q 665 697 659 708 q 677 673 671 686 q 682 642 682 661 q 674 600 682 618 q 652 569 665 581 q 621 551 638 557 q 587 545 604 545 q 518 572 545 545 q 492 656 492 600 q 501 723 492 688 q 529 792 510 758 q 576 858 547 827 q 643 914 604 890 q 731 952 682 938 q 840 966 780 966 l 840 879 z "},"”":{"ha":764,"x_min":85,"x_max":789,"o":"m 440 632 q 504 638 471 631 q 566 662 538 646 q 613 704 595 678 q 632 764 632 729 q 627 791 632 780 q 615 814 622 803 q 604 838 609 825 q 599 869 599 850 q 607 911 599 893 q 629 942 616 930 q 660 960 643 954 q 693 966 676 966 q 762 939 735 966 q 789 856 789 911 q 780 789 789 824 q 752 719 770 753 q 705 653 733 684 q 637 597 676 621 q 550 559 599 573 q 440 545 500 545 l 440 632 m 85 632 q 149 638 115 631 q 211 662 182 646 q 258 704 239 678 q 277 764 277 729 q 271 791 277 780 q 260 814 266 803 q 248 838 254 825 q 243 869 243 850 q 251 911 243 893 q 273 942 260 930 q 304 960 287 954 q 338 966 321 966 q 407 939 380 966 q 433 856 433 911 q 424 789 433 824 q 396 719 415 753 q 349 653 378 684 q 282 597 321 621 q 194 559 243 573 q 85 545 144 545 l 85 632 z "},"‚":{"ha":764,"x_min":54,"x_max":435,"o":"m 54 -139 q 127 -132 89 -140 q 196 -106 165 -124 q 248 -62 227 -89 q 268 1 268 -35 q 262 32 268 19 q 250 56 256 44 q 238 81 243 67 q 232 114 232 94 q 241 159 232 139 q 264 192 250 178 q 296 212 279 205 q 332 218 314 218 q 406 189 377 218 q 435 100 435 159 q 425 28 435 66 q 395 -46 415 -9 q 343 -116 374 -83 q 270 -176 313 -150 q 174 -217 228 -201 q 54 -232 120 -232 l 54 -139 z "},"„":{"ha":764,"x_min":-66,"x_max":637,"o":"m 289 -134 q 353 -127 319 -135 q 415 -103 387 -120 q 462 -61 444 -87 q 481 -1 481 -36 q 475 26 481 15 q 464 48 470 37 q 452 73 458 60 q 447 104 447 85 q 455 146 447 128 q 477 177 464 165 q 508 195 491 189 q 542 201 525 201 q 611 174 584 201 q 637 90 637 146 q 628 23 637 59 q 601 -47 619 -12 q 553 -113 582 -81 q 486 -169 525 -144 q 398 -207 447 -193 q 289 -221 349 -221 l 289 -134 m -66 -134 q -3 -127 -37 -135 q 59 -103 31 -120 q 106 -61 87 -87 q 125 -1 125 -36 q 120 26 125 15 q 108 48 115 37 q 97 73 102 60 q 92 104 92 85 q 100 146 92 128 q 122 177 109 165 q 153 195 136 189 q 186 201 170 201 q 255 174 228 201 q 282 90 282 146 q 273 23 282 59 q 245 -47 264 -12 q 198 -113 227 -81 q 131 -169 170 -144 q 42 -207 92 -193 q -66 -221 -7 -221 l -66 -134 z "},"‹":{"ha":764,"x_min":200,"x_max":581,"o":"m 581 602 l 336 366 l 487 129 l 387 66 l 200 373 l 500 672 l 581 602 z "},"›":{"ha":764,"x_min":192,"x_max":573,"o":"m 192 136 l 437 372 l 286 610 l 386 672 l 573 366 l 273 66 l 192 136 z "},"«":{"ha":764,"x_min":102,"x_max":707,"o":"m 415 591 l 222 366 l 323 138 l 227 93 l 102 372 l 328 642 l 415 591 m 707 587 l 504 366 l 618 143 l 524 97 l 386 372 l 624 639 l 707 587 z "},"»":{"ha":764,"x_min":65,"x_max":671,"o":"m 357 143 l 550 370 l 449 597 l 546 642 l 671 363 l 444 93 l 357 143 m 65 147 l 268 370 l 154 591 l 249 637 l 386 363 l 149 96 l 65 147 z "},"/":{"ha":764,"x_min":-26,"x_max":782,"o":"m 782 958 l 94 -146 l -26 -146 l 661 958 l 782 958 z "},"|":{"ha":764,"x_min":201,"x_max":590,"o":"m 313 -278 l 201 -278 l 479 1111 l 590 1111 l 313 -278 z "},"–":{"ha":764,"x_min":85,"x_max":689,"o":"m 668 318 l 85 318 l 106 421 l 689 421 l 668 318 z "},"—":{"ha":764,"x_min":-8,"x_max":782,"o":"m 761 318 l -8 318 l 12 421 l 782 421 l 761 318 z "},"―":{"ha":764,"x_min":-8,"x_max":782,"o":"m 761 318 l -8 318 l 12 421 l 782 421 l 761 318 z "},"•":{"ha":764,"x_min":179,"x_max":593,"o":"m 390 576 q 470 560 433 576 q 534 516 507 544 q 577 453 562 489 q 593 376 593 416 q 575 292 593 331 q 529 224 558 253 q 462 179 500 195 q 380 163 423 163 q 301 179 338 163 q 237 222 264 195 q 195 286 210 250 q 179 361 179 321 q 196 446 179 407 q 242 515 213 486 q 309 560 271 544 q 390 576 347 576 z "},"·":{"ha":764,"x_min":273,"x_max":498,"o":"m 390 484 q 434 475 414 484 q 469 451 454 466 q 491 415 483 435 q 498 374 498 395 q 489 328 498 349 q 464 291 479 307 q 426 266 448 275 q 382 257 405 257 q 338 266 358 257 q 304 290 319 275 q 281 325 290 305 q 273 366 273 344 q 283 412 273 391 q 309 449 292 433 q 346 474 325 465 q 390 484 367 484 z "},"(":{"ha":764,"x_min":191,"x_max":704,"o":"m 395 -285 q 242 -47 294 -173 q 191 216 191 79 q 215 415 191 315 q 295 615 240 515 q 436 812 349 714 q 647 1007 523 911 l 704 935 q 514 744 589 839 q 393 559 438 650 q 330 384 348 469 q 311 222 311 299 q 351 -3 311 104 q 475 -218 390 -111 l 395 -285 z "},")":{"ha":764,"x_min":63,"x_max":577,"o":"m 373 1007 q 526 769 474 895 q 577 505 577 643 q 552 307 577 406 q 473 107 528 207 q 331 -90 418 8 q 120 -285 244 -189 l 63 -212 q 254 -22 178 -117 q 375 163 330 73 q 438 338 420 254 q 456 500 456 423 q 417 725 456 618 q 292 940 378 833 l 373 1007 z "},"[":{"ha":764,"x_min":109,"x_max":695,"o":"m 443 -278 l 109 -278 l 361 982 l 695 982 l 676 887 l 454 887 l 240 -183 l 462 -183 l 443 -278 z "},"]":{"ha":764,"x_min":70,"x_max":656,"o":"m 404 -278 l 70 -278 l 89 -183 l 309 -183 l 524 887 l 303 887 l 322 982 l 656 982 l 404 -278 z "},"{":{"ha":764,"x_min":109,"x_max":734,"o":"m 484 -278 l 433 -278 q 252 -213 302 -278 q 227 -24 201 -149 l 271 203 q 275 262 277 236 q 258 306 273 288 q 214 334 243 324 q 138 343 184 343 l 109 343 l 127 437 l 157 437 q 239 446 206 437 q 293 470 272 454 q 327 513 315 487 q 346 574 338 538 l 379 742 q 413 843 391 799 q 472 919 435 888 q 561 966 509 949 q 685 982 614 982 l 734 982 l 716 887 l 675 887 q 489 734 519 887 l 456 570 q 395 441 439 486 q 277 386 351 397 q 337 367 313 382 q 373 326 361 351 q 388 268 386 301 q 382 197 390 235 l 338 -28 q 332 -96 330 -66 q 349 -144 334 -125 q 391 -173 363 -163 q 463 -183 418 -183 l 503 -183 l 484 -278 z "},"}":{"ha":764,"x_min":31,"x_max":672,"o":"m 282 982 l 332 982 q 514 917 463 982 q 541 728 566 852 l 509 571 q 504 513 502 538 q 522 471 507 488 q 567 446 537 454 q 643 437 596 437 l 672 437 l 653 343 l 624 343 q 541 334 574 343 q 487 307 508 325 q 453 262 465 289 q 435 200 441 235 l 387 -37 q 353 -139 376 -94 q 294 -215 330 -184 q 204 -262 257 -245 q 81 -278 152 -278 l 31 -278 l 50 -183 l 90 -183 q 278 -31 246 -183 l 325 211 q 386 340 342 295 q 504 396 430 385 q 408 450 434 404 q 399 583 382 497 l 429 739 q 414 852 445 817 q 304 887 382 887 l 264 887 l 282 982 z "},"*":{"ha":764,"x_min":176,"x_max":718,"o":"m 717 570 l 671 489 l 481 616 l 496 383 l 399 383 l 414 615 l 220 489 l 176 568 l 385 671 l 176 775 l 224 854 l 416 725 l 399 958 l 496 958 l 481 725 l 671 856 l 718 772 l 510 669 l 717 570 z "},"†":{"ha":764,"x_min":187,"x_max":728,"o":"m 707 679 l 505 679 l 404 172 l 288 172 l 389 679 l 187 679 l 208 778 l 410 778 l 446 958 l 562 958 l 526 778 l 728 778 l 707 679 z "},"‡":{"ha":764,"x_min":90,"x_max":728,"o":"m 187 679 l 208 778 l 410 778 l 446 958 l 562 958 l 526 778 l 728 778 l 707 679 l 505 679 l 428 288 l 629 288 l 610 189 l 408 189 l 371 0 l 254 0 l 292 189 l 90 189 l 110 288 l 311 288 l 389 679 l 187 679 z "},"§":{"ha":764,"x_min":21,"x_max":717,"o":"m 513 153 q 535 116 526 139 q 545 62 545 92 q 518 -30 545 11 q 449 -100 492 -71 q 347 -143 405 -128 q 227 -158 290 -158 q 164 -157 192 -158 q 111 -153 136 -155 q 65 -145 87 -150 q 21 -135 43 -141 l 43 -26 q 87 -41 66 -35 q 132 -51 109 -47 q 179 -57 154 -55 q 232 -58 203 -58 q 310 -51 275 -58 q 371 -28 345 -43 q 410 6 396 -14 q 424 52 424 26 q 401 104 424 79 q 343 154 378 129 q 268 205 309 178 q 193 265 228 233 q 136 336 159 297 q 113 425 113 376 q 125 492 113 458 q 159 556 137 526 q 213 614 182 587 q 281 661 243 641 q 258 697 268 675 q 249 753 249 719 q 266 827 249 789 q 319 896 282 865 q 414 947 355 927 q 558 966 473 966 q 640 962 598 966 q 717 950 681 958 l 697 848 q 622 865 656 860 q 549 869 587 869 q 414 842 460 869 q 368 761 368 814 q 381 720 368 739 q 416 682 395 701 q 466 644 438 663 q 523 604 494 625 q 580 562 552 584 q 629 513 608 539 q 664 456 651 486 q 677 389 677 425 q 665 320 677 353 q 631 257 653 287 q 579 200 610 227 q 513 153 549 174 m 443 218 q 491 250 470 233 q 528 288 513 268 q 550 329 543 308 q 558 372 558 351 q 538 436 558 408 q 487 491 517 465 q 419 542 456 517 q 349 593 382 566 q 301 563 323 580 q 264 526 279 545 q 240 486 249 507 q 232 444 232 465 q 252 378 232 408 q 303 321 272 349 q 371 269 334 294 q 443 218 408 244 z "},"¶":{"ha":764,"x_min":74,"x_max":799,"o":"m 453 387 q 308 404 368 387 q 210 451 248 420 q 154 523 172 481 q 136 618 136 566 q 161 750 136 688 q 237 859 186 812 q 366 931 288 905 q 551 958 444 958 l 799 958 l 632 125 q 588 0 618 54 q 515 -88 559 -53 q 415 -140 471 -123 q 292 -158 359 -158 q 170 -136 224 -158 q 74 -75 115 -115 l 139 12 q 211 -38 168 -19 q 302 -57 254 -57 q 376 -45 341 -57 q 438 -8 410 -33 q 486 52 466 16 q 515 135 506 87 l 661 861 l 547 861 l 453 387 z "},"Α":{"ha":764,"x_min":-62,"x_max":688,"o":"m 688 0 l 559 0 l 538 193 l 168 193 l 66 0 l -62 0 l 410 886 l 575 886 l 688 0 m 524 301 l 469 775 l 224 301 l 524 301 z "},"Β":{"ha":764,"x_min":37,"x_max":725,"o":"m 37 0 l 215 886 l 461 886 q 659 843 592 886 q 725 714 725 799 q 715 639 725 677 q 683 568 705 602 q 624 508 661 535 q 534 465 587 481 q 590 447 564 460 q 635 414 616 434 q 665 366 654 393 q 676 304 676 339 q 667 234 676 270 q 638 164 659 198 q 587 100 618 130 q 512 48 556 71 q 410 13 468 26 q 278 0 351 0 l 37 0 m 597 688 q 589 727 597 709 q 563 758 581 745 q 514 778 545 770 q 440 785 484 785 l 315 785 l 260 507 l 375 507 q 484 526 441 507 q 552 571 526 544 q 587 630 577 598 q 597 688 597 661 m 547 293 q 502 377 547 347 q 370 407 456 407 l 240 407 l 179 102 l 297 102 q 390 111 351 102 q 457 137 429 121 q 503 173 485 153 q 530 214 520 193 q 544 256 540 235 q 547 293 547 276 z "},"Γ":{"ha":764,"x_min":89,"x_max":777,"o":"m 368 783 l 211 0 l 89 0 l 267 886 l 777 886 l 755 783 l 368 783 z "},"Δ":{"ha":764,"x_min":-32,"x_max":677,"o":"m -11 103 l 412 886 l 575 886 l 677 103 l 657 0 l -32 0 l -11 103 m 546 113 l 469 775 l 125 113 l 546 113 z "},"Ε":{"ha":764,"x_min":66,"x_max":749,"o":"m 571 0 l 66 0 l 244 886 l 749 886 l 728 785 l 345 785 l 289 510 l 657 510 l 637 408 l 269 408 l 208 103 l 591 103 l 571 0 z "},"Ζ":{"ha":764,"x_min":5,"x_max":787,"o":"m 768 791 l 183 113 l 640 113 l 618 0 l 5 0 l 24 90 l 612 777 l 174 777 l 196 886 l 787 886 l 768 791 z "},"Η":{"ha":764,"x_min":5,"x_max":798,"o":"m 619 0 l 498 0 l 581 407 l 208 407 l 126 0 l 5 0 l 183 886 l 304 886 l 229 511 l 602 511 l 676 886 l 798 886 l 619 0 z "},"Θ":{"ha":764,"x_min":39,"x_max":765,"o":"m 265 408 l 285 510 l 543 510 l 524 408 l 265 408 m 310 -12 q 106 65 174 -12 q 39 286 39 143 q 51 427 39 355 q 89 567 64 499 q 153 695 115 635 q 241 801 191 755 q 355 872 292 846 q 494 899 418 899 q 697 821 629 899 q 765 600 765 743 q 752 459 765 532 q 714 319 740 387 q 651 191 689 251 q 563 85 614 130 q 449 14 513 40 q 310 -12 386 -12 m 641 591 q 632 675 641 637 q 604 739 623 712 q 554 779 585 765 q 481 793 524 793 q 378 768 424 793 q 297 702 332 743 q 236 609 262 661 q 195 501 211 556 q 171 392 178 446 q 163 294 163 338 q 172 211 163 248 q 200 148 181 174 q 250 107 220 121 q 323 93 281 93 q 424 118 379 93 q 504 183 469 142 q 566 277 540 224 q 608 385 591 330 q 633 494 625 440 q 641 591 641 548 z "},"Ι":{"ha":764,"x_min":47,"x_max":755,"o":"m 408 785 l 204 785 l 225 886 l 755 886 l 734 785 l 530 785 l 395 103 l 599 103 l 578 0 l 47 0 l 68 103 l 272 103 l 408 785 z "},"Κ":{"ha":764,"x_min":36,"x_max":810,"o":"m 635 0 l 492 0 l 245 440 l 157 0 l 36 0 l 214 886 l 335 886 l 253 479 l 657 886 l 810 886 l 367 458 l 635 0 z "},"Λ":{"ha":764,"x_min":-66,"x_max":692,"o":"m -66 0 l 412 886 l 575 886 l 692 0 l 561 0 l 489 597 l 471 772 l 379 597 l 68 0 l -66 0 z "},"Μ":{"ha":764,"x_min":-36,"x_max":796,"o":"m 661 0 l 543 0 l 636 553 l 671 765 l 604 642 l 404 289 l 321 289 l 262 628 l 249 765 l 201 543 l 78 0 l -36 0 l 184 886 l 322 886 l 375 553 l 390 440 l 452 553 l 643 886 l 796 886 l 661 0 z "},"Ν":{"ha":764,"x_min":13,"x_max":788,"o":"m 610 0 l 459 0 l 312 553 l 271 730 l 182 283 l 125 0 l 13 0 l 191 886 l 341 886 l 481 363 l 530 160 l 625 635 l 675 886 l 788 886 l 610 0 z "},"Ξ":{"ha":764,"x_min":49,"x_max":749,"o":"m 611 406 l 175 406 l 197 513 l 633 513 l 611 406 m 726 779 l 210 779 l 232 886 l 749 886 l 726 779 m 49 0 l 71 109 l 599 109 l 576 0 l 49 0 z "},"Ο":{"ha":764,"x_min":41,"x_max":762,"o":"m 313 -12 q 109 65 177 -12 q 41 286 41 143 q 54 427 41 355 q 91 567 66 499 q 153 695 115 635 q 240 801 190 755 q 353 872 290 846 q 492 899 416 899 q 694 821 627 899 q 762 600 762 743 q 750 459 762 532 q 713 319 738 387 q 651 191 688 251 q 564 85 614 130 q 451 14 514 40 q 313 -12 389 -12 m 639 591 q 630 675 639 637 q 601 738 621 712 q 551 779 581 764 q 478 793 521 793 q 378 768 423 793 q 299 702 334 743 q 239 609 264 661 q 197 501 214 556 q 173 392 181 446 q 165 294 165 338 q 175 211 165 248 q 203 148 184 174 q 253 107 222 121 q 326 93 283 93 q 426 118 381 93 q 506 183 471 142 q 566 277 541 224 q 607 385 591 330 q 631 494 623 440 q 639 591 639 548 z "},"Π":{"ha":764,"x_min":9,"x_max":793,"o":"m 615 0 l 494 0 l 652 782 l 288 782 l 131 0 l 9 0 l 187 886 l 793 886 l 615 0 z "},"Ρ":{"ha":764,"x_min":37,"x_max":747,"o":"m 222 318 l 158 0 l 37 0 l 215 886 l 458 886 q 571 874 519 886 q 663 835 624 861 q 725 767 703 808 q 747 668 747 726 q 736 584 747 626 q 701 503 724 541 q 644 430 678 464 q 565 371 610 396 q 463 332 519 347 q 339 318 406 318 l 222 318 m 621 657 q 576 751 621 718 q 444 785 532 785 l 315 785 l 243 420 l 350 420 q 445 431 404 420 q 516 461 486 442 q 566 504 546 479 q 598 554 586 528 q 615 607 610 581 q 621 657 621 634 z "},"Σ":{"ha":764,"x_min":5,"x_max":787,"o":"m 194 113 l 640 113 l 618 0 l 5 0 l 25 97 l 396 464 l 177 795 l 195 886 l 787 886 l 765 777 l 336 777 l 547 461 l 194 113 z "},"Τ":{"ha":764,"x_min":146,"x_max":814,"o":"m 793 783 l 530 783 l 374 0 l 252 0 l 408 783 l 146 783 l 167 886 l 814 886 l 793 783 z "},"Υ":{"ha":764,"x_min":109,"x_max":872,"o":"m 872 886 l 437 317 l 374 0 l 252 0 l 315 319 l 109 886 l 249 886 l 359 562 l 399 432 l 482 550 l 728 886 l 872 886 z "},"Φ":{"ha":764,"x_min":0,"x_max":772,"o":"m 357 -57 l 245 -57 l 261 21 q 89 104 147 33 q 31 304 31 174 q 40 417 31 357 q 69 536 49 477 q 120 651 89 595 q 196 751 152 707 q 298 826 241 795 q 429 864 356 856 l 446 943 l 557 943 l 542 865 q 712 783 652 854 q 772 582 772 713 q 764 478 772 535 q 738 361 756 420 q 688 245 719 302 q 613 142 658 189 q 509 63 569 95 q 372 22 450 31 l 357 -57 m 410 762 q 324 727 362 753 q 257 663 286 701 q 207 579 228 625 q 174 487 186 534 q 155 394 161 439 q 149 310 149 348 q 181 180 149 228 q 282 123 213 133 l 410 762 m 393 123 q 483 161 444 133 q 551 229 522 190 q 600 316 580 269 q 631 410 619 363 q 649 501 644 457 q 654 578 654 545 q 624 705 654 656 q 521 762 593 753 l 393 123 m 0 886 z "},"Χ":{"ha":764,"x_min":-57,"x_max":833,"o":"m 677 0 l 530 0 l 387 358 l 98 0 l -57 0 l 328 453 l 144 886 l 282 886 l 418 553 l 689 886 l 833 886 l 475 458 l 677 0 z "},"Ψ":{"ha":764,"x_min":74,"x_max":829,"o":"m 371 0 l 254 0 l 307 262 q 189 293 237 269 q 114 355 140 317 q 80 445 87 393 q 86 559 74 496 l 151 886 l 269 886 l 204 562 q 216 420 185 467 q 326 364 248 373 l 432 886 l 549 886 l 443 364 q 577 431 525 378 q 646 564 630 484 l 711 886 l 829 886 l 762 557 q 720 439 749 490 q 646 351 690 388 q 546 293 602 315 q 424 264 490 271 l 371 0 z "},"Ω":{"ha":764,"x_min":-40,"x_max":764,"o":"m 665 0 l 372 0 l 390 89 q 483 158 442 117 q 550 247 523 199 q 595 345 578 294 q 622 442 612 395 q 635 527 632 488 q 639 591 639 566 q 630 674 639 637 q 602 738 621 711 q 550 780 582 765 q 473 794 519 794 q 378 772 420 794 q 301 714 335 751 q 243 630 268 677 q 203 530 219 583 q 180 426 188 478 q 172 326 172 373 q 195 193 172 251 q 272 92 218 134 l 253 0 l -40 0 l -21 98 l 161 98 q 77 200 103 138 q 50 347 50 261 q 62 471 50 407 q 97 596 73 535 q 157 712 121 658 q 242 808 193 767 q 352 874 291 850 q 489 899 414 899 q 611 879 559 899 q 697 821 663 859 q 747 729 731 783 q 764 606 764 674 q 760 528 764 571 q 746 438 755 485 q 718 343 736 391 q 673 250 701 295 q 608 164 646 204 q 520 98 570 124 l 685 98 l 665 0 z "},"Ά":{"ha":764,"x_min":-62,"x_max":849,"o":"m 688 0 l 559 0 l 538 193 l 168 193 l 66 0 l -62 0 l 410 886 l 575 886 l 688 0 m 524 301 l 469 775 l 224 301 l 524 301 m 288 972 l 216 790 l 118 790 l 158 972 l 288 972 m 849 886 z "},"Έ":{"ha":764,"x_min":19,"x_max":750,"o":"m 571 0 l 66 0 l 244 886 l 749 886 l 728 785 l 345 785 l 289 510 l 657 510 l 637 408 l 269 408 l 208 103 l 591 103 l 571 0 m 189 972 l 117 790 l 19 790 l 59 972 l 189 972 m 750 886 z "},"Ή":{"ha":764,"x_min":-1,"x_max":798,"o":"m 619 0 l 498 0 l 581 407 l 208 407 l 126 0 l 5 0 l 183 886 l 304 886 l 229 511 l 602 511 l 676 886 l 798 886 l 619 0 m 168 972 l 97 790 l -1 790 l 39 972 l 168 972 m 730 886 z "},"Ί":{"ha":764,"x_min":10,"x_max":755,"o":"m 408 785 l 204 785 l 225 886 l 755 886 l 734 785 l 530 785 l 395 103 l 599 103 l 578 0 l 47 0 l 68 103 l 272 103 l 408 785 m 180 972 l 109 790 l 10 790 l 50 972 l 180 972 m 741 886 z "},"Ϊ":{"ha":764,"x_min":0,"x_max":755,"o":"m 408 785 l 204 785 l 225 886 l 755 886 l 734 785 l 530 785 l 395 103 l 599 103 l 578 0 l 47 0 l 68 103 l 272 103 l 408 785 m 378 1125 q 428 1104 408 1125 q 447 1054 447 1084 q 441 1025 447 1038 q 425 1002 435 1012 q 401 986 414 992 q 372 981 387 981 q 321 1001 340 981 q 302 1051 302 1022 q 309 1080 302 1067 q 325 1104 315 1094 q 349 1119 335 1114 q 378 1125 362 1125 m 675 1125 q 703 1119 690 1125 q 725 1104 715 1114 q 740 1082 734 1095 q 745 1054 745 1069 q 739 1025 745 1038 q 722 1002 732 1012 q 698 986 712 992 q 669 981 684 981 q 619 1001 638 981 q 600 1051 600 1022 q 606 1080 600 1067 q 622 1104 612 1094 q 646 1119 632 1114 q 675 1125 659 1125 m 0 886 z "},"Ό":{"ha":764,"x_min":19,"x_max":762,"o":"m 313 -12 q 109 65 177 -12 q 41 286 41 143 q 54 427 41 355 q 91 567 66 499 q 153 695 115 635 q 240 801 190 755 q 353 872 290 846 q 492 899 416 899 q 694 821 627 899 q 762 600 762 743 q 750 459 762 532 q 713 319 738 387 q 651 191 688 251 q 564 85 614 130 q 451 14 514 40 q 313 -12 389 -12 m 639 591 q 630 675 639 637 q 601 738 621 712 q 551 779 581 764 q 478 793 521 793 q 378 768 423 793 q 299 702 334 743 q 239 609 264 661 q 197 501 214 556 q 173 392 181 446 q 165 294 165 338 q 175 211 165 248 q 203 148 184 174 q 253 107 222 121 q 326 93 283 93 q 426 118 381 93 q 506 183 471 142 q 566 277 541 224 q 607 385 591 330 q 631 494 623 440 q 639 591 639 548 m 189 972 l 117 790 l 19 790 l 59 972 l 189 972 m 750 886 z "},"Ύ":{"ha":764,"x_min":-33,"x_max":872,"o":"m 872 886 l 437 317 l 374 0 l 252 0 l 315 319 l 109 886 l 249 886 l 359 562 l 399 432 l 482 550 l 728 886 l 872 886 m 136 972 l 65 790 l -33 790 l 7 972 l 136 972 m 698 886 z "},"Ϋ":{"ha":764,"x_min":0,"x_max":872,"o":"m 872 886 l 437 317 l 374 0 l 252 0 l 315 319 l 109 886 l 249 886 l 359 562 l 399 432 l 482 550 l 728 886 l 872 886 m 378 1125 q 428 1104 408 1125 q 447 1054 447 1084 q 441 1025 447 1038 q 425 1002 435 1012 q 401 986 414 992 q 372 981 387 981 q 321 1001 340 981 q 302 1051 302 1022 q 309 1080 302 1067 q 325 1104 315 1094 q 349 1119 335 1114 q 378 1125 362 1125 m 675 1125 q 703 1119 690 1125 q 725 1104 715 1114 q 740 1082 734 1095 q 745 1054 745 1069 q 739 1025 745 1038 q 722 1002 732 1012 q 698 986 712 992 q 669 981 684 981 q 619 1001 638 981 q 600 1051 600 1022 q 606 1080 600 1067 q 622 1104 612 1094 q 646 1119 632 1114 q 675 1125 659 1125 m 0 886 z "},"Ώ":{"ha":764,"x_min":-40,"x_max":764,"o":"m 665 0 l 372 0 l 390 89 q 483 158 442 117 q 550 247 523 199 q 595 345 578 294 q 622 442 612 395 q 635 527 632 488 q 639 591 639 566 q 630 674 639 637 q 602 738 621 711 q 550 780 582 765 q 473 794 519 794 q 378 772 420 794 q 301 714 335 751 q 243 630 268 677 q 203 530 219 583 q 180 426 188 478 q 172 326 172 373 q 195 193 172 251 q 272 92 218 134 l 253 0 l -40 0 l -21 98 l 161 98 q 77 200 103 138 q 50 347 50 261 q 62 471 50 407 q 97 596 73 535 q 157 712 121 658 q 242 808 193 767 q 352 874 291 850 q 489 899 414 899 q 611 879 559 899 q 697 821 663 859 q 747 729 731 783 q 764 606 764 674 q 760 528 764 571 q 746 438 755 485 q 718 343 736 391 q 673 250 701 295 q 608 164 646 204 q 520 98 570 124 l 685 98 l 665 0 m 186 972 l 115 790 l 17 790 l 57 972 l 186 972 m 748 886 z "},"α":{"ha":764,"x_min":39,"x_max":764,"o":"m 404 693 q 478 683 444 693 q 538 652 512 672 q 580 602 564 631 q 602 534 597 572 l 656 681 l 764 681 l 625 319 q 618 282 621 298 q 614 251 615 265 q 612 225 612 237 q 611 200 611 212 q 615 154 611 174 q 628 121 619 134 q 652 101 637 107 q 688 97 667 94 l 668 0 q 627 -4 646 -4 q 570 6 592 -4 q 536 35 549 16 q 518 81 524 54 q 511 142 513 108 q 399 28 463 68 q 253 -12 336 -12 q 159 4 199 -12 q 92 52 119 21 q 52 125 65 82 q 39 221 39 168 q 48 323 39 269 q 78 429 58 376 q 129 529 98 481 q 199 613 159 577 q 291 671 240 650 q 404 693 342 693 m 161 229 q 283 89 161 89 q 368 115 326 89 q 445 189 411 142 q 501 299 479 235 q 522 437 522 363 q 492 550 522 508 q 399 591 461 591 q 319 573 354 591 q 257 524 283 554 q 212 455 231 494 q 183 376 194 416 q 166 297 172 336 q 161 229 161 259 z "},"β":{"ha":764,"x_min":71,"x_max":714,"o":"m 349 632 q 478 671 429 650 q 552 714 526 692 q 587 756 578 735 q 595 798 595 778 q 590 823 595 810 q 574 845 585 836 q 547 861 563 854 q 510 867 531 867 q 424 846 463 867 q 351 790 384 825 q 294 708 319 755 q 250 610 269 661 l 349 632 m 220 510 q 196 382 204 441 q 187 281 187 323 q 223 134 187 181 q 326 87 259 87 q 410 104 373 87 q 476 147 448 120 q 525 209 505 174 q 559 280 546 244 q 578 350 572 316 q 585 411 585 385 q 547 514 585 479 q 436 549 509 549 q 387 546 411 549 q 338 536 363 543 l 220 510 m 559 612 q 615 597 589 610 q 661 563 641 585 q 692 506 681 540 q 704 425 704 471 q 693 328 704 378 q 661 228 682 277 q 606 136 639 180 q 530 59 574 92 q 432 7 487 26 q 313 -12 378 -12 q 211 5 256 -12 q 134 59 165 23 q 87 150 103 95 q 71 279 71 205 q 76 378 71 324 q 95 488 82 431 q 126 602 107 545 q 173 713 146 660 q 235 812 200 766 q 315 893 271 859 q 412 947 359 927 q 528 966 465 966 q 607 955 572 966 q 666 922 642 943 q 702 873 690 901 q 714 812 714 845 q 702 749 714 780 q 668 692 689 718 q 618 645 646 665 q 559 612 590 625 z "},"γ":{"ha":764,"x_min":90,"x_max":744,"o":"m 334 317 q 341 217 338 269 q 342 102 344 166 q 454 267 406 192 q 535 412 502 342 q 588 547 568 481 q 616 681 608 612 l 744 681 q 692 503 726 589 q 610 329 659 416 q 496 153 561 241 q 338 -45 431 64 q 334 -82 336 -62 q 328 -122 331 -102 q 322 -161 326 -142 q 316 -198 319 -180 l 300 -278 l 182 -278 l 198 -198 q 217 -71 212 -130 q 223 38 222 -12 q 224 145 225 87 q 217 286 224 203 q 197 442 208 381 q 173 534 185 503 q 149 574 161 565 q 117 583 136 583 q 102 582 108 583 q 90 581 96 582 l 109 681 q 160 685 135 685 q 200 681 180 685 q 238 662 221 676 q 268 622 255 647 q 293 555 281 596 q 315 456 304 515 q 334 317 326 397 z "},"δ":{"ha":764,"x_min":60,"x_max":737,"o":"m 368 669 q 331 728 343 698 q 319 791 319 759 q 335 862 319 830 q 381 918 351 895 q 457 954 412 941 q 561 966 502 966 q 642 962 596 966 q 737 947 688 957 l 717 846 q 631 862 675 855 q 551 868 587 868 q 498 862 519 868 q 465 847 477 857 q 446 824 452 837 q 441 798 441 812 q 444 779 441 788 q 452 761 446 770 q 468 739 458 751 q 493 711 478 726 l 585 616 q 632 557 613 586 q 664 499 652 528 q 680 439 675 470 q 685 376 685 409 q 676 293 685 337 q 649 206 667 249 q 600 123 630 163 q 529 54 570 84 q 432 6 487 24 q 309 -12 378 -12 q 199 6 245 -12 q 121 57 152 24 q 75 135 90 90 q 60 236 60 181 q 80 369 60 302 q 140 495 100 436 q 236 600 179 554 q 368 669 294 646 m 444 591 q 356 561 395 582 q 288 510 317 539 q 239 447 259 481 q 206 377 218 412 q 188 310 193 342 q 182 250 182 277 q 220 133 182 177 q 334 89 258 89 q 405 102 373 89 q 463 137 437 115 q 507 188 488 159 q 537 248 525 216 q 555 310 549 279 q 561 368 561 341 q 547 456 561 413 q 494 540 533 499 l 444 591 z "},"ε":{"ha":764,"x_min":53,"x_max":720,"o":"m 616 17 q 485 -5 547 2 q 364 -12 424 -12 q 224 0 283 -12 q 127 33 165 12 q 71 86 90 55 q 53 157 53 118 q 65 228 53 195 q 104 286 78 260 q 170 329 130 312 q 262 354 209 347 q 211 372 232 359 q 175 401 189 385 q 155 436 161 418 q 149 471 149 454 q 154 518 149 493 q 174 569 160 544 q 213 616 189 593 q 275 655 237 638 q 365 683 313 673 q 486 693 416 693 q 598 688 538 693 q 720 668 659 683 l 697 558 q 580 584 636 575 q 467 593 524 593 q 374 583 411 593 q 314 556 336 572 q 281 519 291 540 q 272 476 272 498 q 314 417 272 435 q 443 399 356 399 l 581 399 l 561 301 l 425 301 q 315 293 361 301 q 239 268 269 284 q 196 229 210 252 q 182 178 182 206 q 193 140 182 156 q 228 112 203 123 q 290 95 252 100 q 383 89 328 89 q 487 96 429 89 q 616 121 545 104 l 616 17 z "},"ζ":{"ha":764,"x_min":93,"x_max":790,"o":"m 248 858 l 268 958 l 790 958 l 772 869 q 540 705 643 784 q 365 550 437 626 q 255 401 293 475 q 216 253 216 328 q 225 202 216 224 q 251 163 233 180 q 297 135 269 146 q 364 114 325 123 q 461 85 422 101 q 526 47 501 68 q 562 0 551 26 q 572 -60 572 -26 q 567 -112 572 -88 q 551 -160 562 -136 q 521 -210 539 -184 q 478 -265 503 -235 l 354 -265 q 400 -204 382 -231 q 430 -155 418 -178 q 446 -114 441 -133 q 450 -78 450 -96 q 445 -51 450 -63 q 425 -30 439 -39 q 387 -12 411 -20 q 325 4 362 -3 q 150 86 207 27 q 93 239 93 144 q 114 356 93 298 q 170 471 134 415 q 253 581 205 528 q 357 684 302 635 q 472 777 412 734 q 591 858 532 821 l 248 858 z "},"η":{"ha":764,"x_min":42,"x_max":702,"o":"m 533 -278 l 415 -278 l 559 435 q 556 554 576 517 q 483 591 537 591 q 396 562 439 591 q 316 484 353 532 q 251 376 279 436 q 212 257 224 317 l 160 0 l 42 0 l 116 368 q 122 402 119 381 q 130 459 125 423 q 140 548 134 494 q 153 681 146 602 l 264 681 l 248 524 q 361 649 295 606 q 505 693 427 693 q 657 628 612 693 q 677 436 702 563 l 533 -278 z "},"θ":{"ha":764,"x_min":79,"x_max":828,"o":"m 729 582 q 677 343 713 452 q 589 156 642 235 q 466 32 536 77 q 310 -12 395 -12 q 138 59 197 -12 q 79 278 79 130 q 82 346 79 312 q 91 413 85 380 q 103 475 96 446 q 115 530 109 505 l 235 530 q 220 471 227 502 q 208 409 213 440 q 200 346 203 377 q 197 286 197 315 q 227 135 197 181 q 323 88 257 88 q 425 125 378 88 q 508 228 471 162 q 570 385 544 294 q 611 582 596 475 l 518 582 q 385 594 435 582 q 302 629 334 606 q 253 684 269 652 q 237 754 237 715 q 256 837 237 798 q 310 905 275 876 q 391 953 344 935 q 495 970 438 970 q 677 895 616 970 q 737 681 737 820 l 828 681 l 810 582 l 729 582 m 619 681 q 588 821 619 772 q 488 871 556 871 q 431 862 456 871 q 390 837 406 852 q 365 803 374 822 q 357 763 357 783 q 366 727 357 743 q 394 702 376 712 q 444 686 412 692 q 537 681 476 681 l 619 681 z "},"ι":{"ha":764,"x_min":114,"x_max":648,"o":"m 648 43 q 550 2 602 17 q 439 -12 498 -12 q 358 1 391 -12 q 308 44 326 15 q 289 120 291 74 q 300 232 287 166 l 346 460 q 354 525 354 498 q 347 566 353 551 q 327 588 340 582 q 296 595 313 595 q 205 577 250 595 q 114 533 160 559 l 114 637 q 213 678 161 663 q 323 693 264 693 q 404 680 372 693 q 454 636 437 666 q 473 561 471 607 q 463 449 475 515 l 416 221 q 409 156 409 182 q 416 115 409 130 q 436 93 423 99 q 467 86 449 86 q 557 104 513 86 q 648 147 602 122 l 648 43 z "},"κ":{"ha":764,"x_min":54,"x_max":777,"o":"m 646 0 l 495 0 l 247 374 l 172 0 l 54 0 l 190 681 l 308 681 l 248 378 l 607 681 l 777 681 l 387 362 l 646 0 z "},"λ":{"ha":764,"x_min":-25,"x_max":677,"o":"m 393 749 q 361 845 382 824 q 306 865 340 865 q 264 862 285 865 q 222 852 243 859 l 222 951 q 273 962 245 958 q 328 966 302 966 q 390 960 363 966 q 440 937 416 954 q 479 889 464 920 q 505 798 494 859 l 602 174 q 609 136 605 151 q 618 112 612 121 q 634 99 625 103 q 657 96 643 96 q 668 96 663 96 q 677 97 672 96 l 677 -1 q 647 -6 664 -5 q 619 -8 630 -8 q 567 0 589 -8 q 529 26 545 8 q 503 73 513 44 q 486 144 492 102 l 441 437 l 429 533 l 374 437 l 110 0 l -25 0 l 403 688 l 393 749 z "},"μ":{"ha":764,"x_min":-17,"x_max":714,"o":"m 293 681 l 207 248 q 199 173 197 203 q 211 124 200 142 q 239 98 222 106 q 286 90 256 90 q 341 104 313 90 q 395 141 369 117 q 444 197 421 165 q 487 266 467 229 q 522 343 507 303 q 545 424 536 384 l 596 681 l 714 681 l 640 313 q 621 198 626 241 q 619 131 616 155 q 634 100 623 108 q 667 93 646 93 l 679 93 l 661 -1 q 638 -5 650 -3 q 612 -7 626 -7 q 510 157 479 -7 q 400 30 461 71 q 269 -11 339 -11 q 201 4 231 -11 q 157 44 172 18 l 142 -77 l 102 -278 l -17 -278 l 175 681 l 293 681 z "},"ν":{"ha":764,"x_min":87,"x_max":764,"o":"m 167 543 q 152 581 163 570 q 121 591 140 591 q 106 590 115 591 q 87 587 97 589 l 106 682 q 137 688 123 686 q 164 690 151 690 q 246 665 215 690 q 285 576 277 640 l 322 231 l 334 125 q 503 401 432 262 q 621 681 574 540 l 764 681 q 688 510 731 596 q 592 337 644 423 q 481 167 541 252 q 358 0 422 82 l 235 0 l 167 543 z "}}}
